<svg width="17" height="17" viewBox="0 0 17 17" fill="none" xmlns="http://www.w3.org/2000/svg">
<path d="M16.5792 3.45833C16.8083 3.45833 16.9958 3.27083 17 3.04167V0.420833C17 0.1875 16.8125 0 16.5792 0H13.9583C13.7292 0 13.5417 0.1875 13.5417 0.420833V1.33333H3.45833V0.420833C3.45833 0.191667 3.27083 0.00416667 3.04167 0H0.420833C0.191667 0 0.00416667 0.1875 0 0.420833V3.04167C0 3.27083 0.1875 3.45833 0.420833 3.45833H1.33333V13.5417H0.420833C0.191667 13.5417 0.00416667 13.7292 0 13.9583V16.5792C0 16.8083 0.1875 16.9958 0.420833 17H3.04167C3.27083 17 3.45833 16.8125 3.45833 16.5792V15.6667H13.5417V16.5792C13.5417 16.8083 13.7292 16.9958 13.9583 17H16.5792C16.8083 17 16.9958 16.8125 17 16.5792V13.9583C17 13.7292 16.8125 13.5417 16.5792 13.5417H15.6667V3.45833H16.5792ZM0.833333 2.625V0.833333H2.625V2.625H0.833333ZM2.625 16.1667H0.833333V14.375H2.625V16.1667ZM13.5417 13.9583V14.8333H3.45833V13.9583C3.45833 13.7292 3.27083 13.5417 3.04167 13.5417H2.16667V3.45833H3.04167C3.27083 3.45833 3.45833 3.27083 3.45833 3.04167V2.16667H13.5417V3.04167C13.5417 3.27083 13.7292 3.45833 13.9583 3.45833H14.8333V13.5417H13.9583C13.7292 13.5417 13.5417 13.7292 13.5417 13.9583ZM16.1667 14.375V16.1667H14.375V14.375H16.1667ZM14.375 2.625V0.833333H16.1667V2.625H14.375Z" fill="#C33B49"/>
</svg>
