<svg width="18" height="16" viewBox="0 0 18 16" fill="none" xmlns="http://www.w3.org/2000/svg">
<path d="M3.66344 14.0722L3.09229 15.1111" stroke="#C33B49" stroke-width="1.2" stroke-miterlimit="10" stroke-linecap="round" stroke-linejoin="round"/>
<path d="M14.3367 14.0722L14.9078 15.1111" stroke="#C33B49" stroke-width="1.2" stroke-miterlimit="10" stroke-linecap="round" stroke-linejoin="round"/>
<path d="M1.6438 9.10071L2.19384 11.7857C2.49648 13.2632 3.75567 14.3198 5.21359 14.3198H12.786C14.244 14.3198 15.5032 13.2632 15.8058 11.7858L16.3558 9.10071H1.6438Z" stroke="#C33B49" stroke-width="1.2" stroke-miterlimit="10" stroke-linecap="round" stroke-linejoin="round"/>
<path d="M1 9.10083H17" stroke="#C33B49" stroke-width="1.2" stroke-miterlimit="10" stroke-linecap="round" stroke-linejoin="round"/>
<path d="M3.98291 9.10083V2.78987C3.98291 1.73991 4.80452 0.88878 5.81803 0.88878C6.83154 0.88878 7.65318 1.73991 7.65318 2.78987V2.81631" stroke="#C33B49" stroke-width="1.2" stroke-miterlimit="10" stroke-linecap="round" stroke-linejoin="round"/>
<path d="M6.68418 6.57937L6.68213 7.42651" stroke="#C33B49" stroke-width="1.2" stroke-miterlimit="10" stroke-linecap="round" stroke-linejoin="round"/>
<path d="M8.62207 6.57937L8.62412 7.42651" stroke="#C33B49" stroke-width="1.2" stroke-miterlimit="10" stroke-linecap="round" stroke-linejoin="round"/>
<path d="M9.33151 4.82544H5.97437V4.3252C5.97437 3.49185 6.62651 2.81627 7.43096 2.81627H7.87491C8.67936 2.81627 9.33151 3.49185 9.33151 4.3252V4.82544Z" stroke="#C33B49" stroke-width="1.2" stroke-miterlimit="10" stroke-linecap="round" stroke-linejoin="round"/>
</svg>
