<svg width="17" height="15" viewBox="0 0 17 15" fill="none" xmlns="http://www.w3.org/2000/svg">
<path d="M14.875 3.24984H7.79167C7.30366 3.24992 6.83055 3.41796 6.45184 3.72573C6.07312 4.0335 5.81188 4.46225 5.712 4.93992C5.36946 4.76266 4.98984 4.66897 4.60417 4.6665C3.94665 4.6665 3.31607 4.9277 2.85113 5.39264C2.3862 5.85757 2.125 6.48815 2.125 7.14567C2.12707 7.51401 2.21205 7.87716 2.37363 8.20817H1.41667V0.416504H0V14.5832H1.41667V12.4582H15.5833V14.5832H17V5.37484C17 4.81125 16.7761 4.27075 16.3776 3.87224C15.9791 3.47372 15.4386 3.24984 14.875 3.24984ZM7.08333 5.37484C7.08333 5.18698 7.15796 5.00681 7.2908 4.87397C7.42364 4.74113 7.6038 4.6665 7.79167 4.6665H14.875C15.0629 4.6665 15.243 4.74113 15.3759 4.87397C15.5087 5.00681 15.5833 5.18698 15.5833 5.37484V8.20817H7.08333V5.37484ZM3.54167 7.14567C3.54167 6.93553 3.60398 6.7301 3.72073 6.55538C3.83748 6.38065 4.00342 6.24447 4.19757 6.16405C4.39171 6.08363 4.60535 6.06259 4.81145 6.10359C5.01755 6.14458 5.20687 6.24578 5.35547 6.39437C5.50406 6.54296 5.60525 6.73228 5.64625 6.93839C5.68725 7.14449 5.66621 7.35813 5.58579 7.55227C5.50537 7.74642 5.36919 7.91236 5.19446 8.02911C5.01973 8.14586 4.81431 8.20817 4.60417 8.20817C4.32237 8.20817 4.05212 8.09623 3.85287 7.89697C3.65361 7.69771 3.54167 7.42746 3.54167 7.14567ZM1.41667 11.0415V9.62484H15.5833V11.0415H1.41667Z" fill="#C33B49"/>
</svg>
