<svg width="1241" height="536" viewBox="0 0 1241 536" fill="none" xmlns="http://www.w3.org/2000/svg">
<g clip-path="url(#clip0_40_5018)">
<path d="M623.563 34.0694L624.103 10.6227L637.963 10.942C639.7 10.982 641.201 11.27 642.468 11.806C643.736 12.3179 644.707 13.1006 645.383 14.154C646.059 15.1832 646.379 16.4939 646.342 18.0859C646.318 19.1473 646.116 20.0598 645.736 20.8234C645.357 21.5628 644.836 22.1663 644.174 22.6337C643.511 23.1011 642.743 23.4575 641.868 23.7029C641.018 23.9487 640.109 24.0968 639.143 24.1469L638.787 23.8853C640.33 23.945 641.605 24.1192 642.612 24.4078C643.62 24.6724 644.381 25.1606 644.896 25.8724C645.411 26.56 645.653 27.5672 645.623 28.8939L645.492 34.5747L641.403 34.4805L641.529 29.0168C641.55 28.1002 641.397 27.3847 641.071 26.8703C640.77 26.3324 640.223 25.9578 639.432 25.7465C638.665 25.5116 637.558 25.3775 636.11 25.3441L627.896 25.1548L627.688 34.1645L623.563 34.0694ZM627.973 21.7898L637.707 22.0141C639.155 22.0474 640.261 21.7109 641.025 21.0044C641.79 20.298 642.186 19.3538 642.213 18.1718C642.239 17.0381 641.885 16.161 641.151 15.5408C640.418 14.8964 639.327 14.5575 637.88 14.5241L628.146 14.2998L627.973 21.7898Z" fill="#6A6A6A"/>
<path d="M665.602 29.8696L669.466 30.1202C669.194 31.3357 668.642 32.4 667.808 33.3132C667.001 34.2038 665.929 34.8839 664.593 35.3534C663.258 35.7988 661.688 35.9629 659.882 35.8458C657.835 35.7131 656.029 35.2213 654.464 34.3702C652.901 33.4951 651.707 32.3296 650.883 30.8738C650.058 29.4179 649.708 27.7269 649.833 25.8006C649.957 23.8985 650.51 22.266 651.493 20.9031C652.476 19.5403 653.775 18.5244 655.39 17.8554C657.03 17.1879 658.885 16.9213 660.955 17.0556C663.099 17.1945 664.856 17.6953 666.226 18.5579C667.623 19.398 668.621 20.5992 669.221 22.1614C669.822 23.6995 669.989 25.6083 669.72 27.888L653.863 26.8599C653.918 27.8789 654.184 28.815 654.661 29.668C655.163 30.4985 655.869 31.1729 656.778 31.6913C657.689 32.1856 658.771 32.4733 660.023 32.5545C661.42 32.645 662.605 32.4439 663.58 31.951C664.58 31.4596 665.253 30.7658 665.602 29.8696ZM660.636 20.2991C658.999 20.1929 657.624 20.5148 656.511 21.2648C655.4 21.9907 654.648 22.9695 654.253 24.2012L665.848 24.953C665.839 23.5984 665.365 22.5159 664.426 21.7054C663.489 20.8709 662.226 20.4021 660.636 20.2991Z" fill="#6A6A6A"/>
<path d="M680.557 37.5775C678.925 37.4068 677.466 36.854 676.181 35.9191C674.92 34.9866 673.954 33.7818 673.284 32.3046C672.64 30.8059 672.413 29.1446 672.604 27.3208C672.8 25.449 673.379 23.8598 674.34 22.5533C675.304 21.2227 676.524 20.2343 677.998 19.5879C679.473 18.9415 681.075 18.7087 682.803 18.8894C684.723 19.0901 686.203 19.6694 687.243 20.6273C688.283 21.5852 688.969 22.7972 689.301 24.2632C689.633 25.7293 689.707 27.3382 689.524 29.0901C689.421 30.074 689.168 31.1028 688.764 32.1766C688.363 33.2264 687.802 34.1866 687.08 35.0573C686.382 35.9304 685.486 36.613 684.391 37.1051C683.323 37.5756 682.045 37.7331 680.557 37.5775ZM682.127 34.3938C683.471 34.5343 684.638 34.4016 685.626 33.9955C686.641 33.5679 687.437 32.9233 688.012 32.0615C688.612 31.2023 688.971 30.1968 689.092 29.0449C689.225 27.773 689.086 26.6667 688.675 25.7261C688.266 24.7615 687.619 23.9903 686.733 23.4125C685.85 22.8106 684.736 22.4395 683.392 22.2989C681.472 22.0982 679.925 22.5065 678.751 23.524C677.577 24.5415 676.896 25.9501 676.708 27.7499C676.585 28.9258 676.728 29.9961 677.137 30.9607C677.569 31.9278 678.215 32.7111 679.074 33.3104C679.934 33.9097 680.951 34.2708 682.127 34.3938ZM690.033 20.0457L694.065 20.4673L692.19 38.3937L688.446 38.0022C688.446 38.0022 688.446 37.7717 688.446 37.3107C688.445 36.8497 688.455 36.2928 688.475 35.6398C688.497 34.9628 688.54 34.3244 688.602 33.7244L690.033 20.0457Z" fill="#6A6A6A"/>
<path d="M700.166 14.016L704.148 14.546L700.816 39.5879L696.833 39.0579L700.166 14.016Z" fill="#6A6A6A"/>
<path d="M720.138 32.3979L719.01 38.7406L735.224 41.6257L734.603 45.1177L714.326 41.5098L718.435 18.4195L738.676 22.0211L738.055 25.5132L721.876 22.6344L720.734 29.0484L733.991 31.4072L733.395 34.7567L720.138 32.3979Z" fill="#6A6A6A"/>
<path d="M739.284 40.0396L742.927 40.8313C742.921 41.7682 743.245 42.6042 743.901 43.3391C744.561 44.0505 745.551 44.5497 746.872 44.8366C747.721 45.0211 748.401 45.0702 748.914 44.9841C749.45 44.903 749.848 44.718 750.109 44.4289C750.393 44.1449 750.581 43.7907 750.673 43.3663C750.786 42.8475 750.72 42.4134 750.475 42.0639C750.253 41.7194 749.88 41.3914 749.355 41.0798C748.83 40.7682 748.159 40.4495 747.34 40.1236C746.514 39.7218 745.705 39.299 744.912 38.8552C744.12 38.4113 743.422 37.9265 742.821 37.4007C742.224 36.8513 741.789 36.2383 741.516 35.5617C741.272 34.8667 741.245 34.083 741.435 33.2106C741.609 32.4089 741.942 31.7282 742.434 31.1685C742.955 30.5902 743.594 30.1489 744.352 29.8443C745.109 29.5398 745.962 29.367 746.909 29.3259C747.861 29.2613 748.868 29.3442 749.929 29.5748C751.462 29.9078 752.681 30.4321 753.588 31.1475C754.518 31.8681 755.145 32.7328 755.469 33.7415C755.816 34.7553 755.865 35.8399 755.614 36.9952L752.147 36.242C752.164 35.2579 751.947 34.4947 751.497 33.9525C751.046 33.4102 750.279 33.0212 749.194 32.7855C748.11 32.5499 747.243 32.5591 746.595 32.8134C745.948 33.0677 745.552 33.525 745.408 34.1852C745.301 34.6803 745.391 35.1196 745.678 35.5029C745.993 35.8679 746.47 36.2307 747.108 36.5915C747.746 36.9523 748.501 37.3387 749.375 37.7507C750.172 38.171 750.92 38.5927 751.619 39.0161C752.322 39.4158 752.927 39.8683 753.435 40.3737C753.971 40.8606 754.352 41.4372 754.578 42.1035C754.803 42.7698 754.821 43.5392 754.632 44.4116C754.396 45.4962 753.899 46.3635 753.14 47.0135C752.405 47.6686 751.449 48.0905 750.272 48.2792C749.1 48.4444 747.748 48.3604 746.215 48.0274C744.871 47.7353 743.737 47.3284 742.814 46.8067C741.913 46.2901 741.187 45.7125 740.634 45.0739C740.105 44.4404 739.725 43.8023 739.495 43.1596C739.264 42.5169 739.134 41.9208 739.106 41.3713C739.1 40.827 739.16 40.3831 739.284 40.0396Z" fill="#6A6A6A"/>
<path d="M760.14 32.2682L772.508 35.3265L771.718 38.5238L759.349 35.4655L760.14 32.2682ZM765.521 28.6028L769.456 29.5759L763.965 51.781L760.029 50.8079L765.521 28.6028Z" fill="#6A6A6A"/>
<path d="M778.459 56.0342C776.88 55.5889 775.537 54.7963 774.429 53.6567C773.344 52.5236 772.597 51.1722 772.188 49.6026C771.808 48.0163 771.867 46.3407 772.364 44.5758C772.875 42.7644 773.715 41.2966 774.885 40.1724C776.061 39.0249 777.431 38.258 778.994 37.8715C780.557 37.485 782.175 37.5275 783.847 37.9991C785.705 38.5231 787.065 39.3454 787.927 40.466C788.79 41.5866 789.26 42.8975 789.338 44.3986C789.416 45.8997 789.216 47.4979 788.738 49.1932C788.469 50.1453 788.045 51.1162 787.465 52.1058C786.891 53.0723 786.175 53.9232 785.316 54.6586C784.48 55.4005 783.481 55.921 782.318 56.2199C781.185 56.5022 779.899 56.4403 778.459 56.0342ZM780.548 53.1635C781.848 53.5303 783.02 53.5975 784.063 53.3653C785.137 53.1164 786.03 52.6162 786.743 51.8647C787.48 51.1198 788.005 50.19 788.32 49.0753C788.667 47.8445 788.718 46.7307 788.472 45.7339C788.234 44.7139 787.727 43.844 786.952 43.1241C786.184 42.381 785.149 41.826 783.849 41.4593C781.991 40.9353 780.397 41.075 779.067 41.8783C777.738 42.6816 776.827 43.954 776.336 45.6958C776.015 46.8337 775.974 47.9126 776.213 48.9326C776.475 49.9592 776.978 50.8407 777.723 51.5773C778.468 52.3138 779.41 52.8426 780.548 53.1635ZM790.776 40.3668L794.678 41.4671L789.785 58.8144L786.162 57.7927C786.162 57.7927 786.201 57.5656 786.279 57.1112C786.357 56.6569 786.461 56.1097 786.591 55.4696C786.728 54.8062 786.879 54.1843 787.042 53.6037L790.776 40.3668Z" fill="#6A6A6A"/>
<path d="M798.154 42.573L810.296 46.4357L809.297 49.5742L797.156 45.7115L798.154 42.573ZM803.764 39.2683L807.627 40.4973L800.691 62.2945L796.828 61.0654L803.764 39.2683Z" fill="#6A6A6A"/>
<path d="M823.612 63.8611L827.264 65.15C826.673 66.2462 825.852 67.1208 824.803 67.774C823.784 68.4124 822.568 68.7764 821.155 68.8661C819.749 68.933 818.193 68.6654 816.487 68.0631C814.552 67.3805 812.948 66.4175 811.672 65.1741C810.404 63.908 809.571 62.4625 809.172 60.8376C808.773 59.2128 808.895 57.4903 809.538 55.67C810.172 53.8725 811.147 52.4511 812.463 51.4058C813.779 50.3605 815.305 49.7348 817.041 49.5287C818.8 49.3306 820.657 49.5769 822.614 50.2675C824.64 50.9822 826.195 51.9405 827.28 53.1424C828.397 54.3296 829.032 55.7563 829.186 57.4227C829.348 59.0662 828.99 60.9487 828.114 63.0701L813.13 57.782C812.906 58.7778 812.908 59.7509 813.136 60.7011C813.394 61.6367 813.891 62.4772 814.625 63.2227C815.368 63.9454 816.331 64.5156 817.515 64.9332C818.834 65.399 820.03 65.5268 821.103 65.3166C822.197 65.1145 823.034 64.6294 823.612 63.8611ZM821.428 53.303C819.88 52.757 818.47 52.6941 817.195 53.1143C815.929 53.5118 814.939 54.25 814.226 55.3287L825.182 59.1954C825.541 57.8891 825.378 56.7187 824.694 55.6841C824.019 54.6267 822.93 53.833 821.428 53.303Z" fill="#6A6A6A"/>
<path d="M925.777 92.9692L925.112 96.1277L920.578 95.0995L921.248 100.013L918.035 100.398L917.525 95.2013L912.838 97.4553L911.515 94.5021L916.024 92.563L912.873 89.2399L915.271 87.0622L918.396 90.5785L920.723 86.3226L923.526 87.9097L921.01 92.0586L925.777 92.9692Z" fill="#6A6A6A"/>
<path d="M987.116 162.497L1002.13 144.438L1012.8 153.31C1014.14 154.422 1015.14 155.582 1015.8 156.791C1016.47 157.981 1016.75 159.199 1016.62 160.446C1016.51 161.674 1015.95 162.901 1014.93 164.127C1014.25 164.945 1013.53 165.535 1012.75 165.898C1011.99 166.242 1011.21 166.392 1010.4 166.346C1009.59 166.301 1008.77 166.103 1007.93 165.751C1007.11 165.415 1006.3 164.966 1005.51 164.404L1005.4 163.977C1006.57 164.984 1007.46 165.914 1008.07 166.767C1008.7 167.601 1008.99 168.458 1008.95 169.336C1008.93 170.196 1008.49 171.137 1007.64 172.159L1004.01 176.534L1000.86 173.917L1004.35 169.709C1004.94 169.003 1005.27 168.347 1005.33 167.74C1005.43 167.131 1005.23 166.497 1004.74 165.839C1004.29 165.177 1003.5 164.383 1002.39 163.457L996.061 158.199L990.293 165.138L987.116 162.497ZM998.215 155.607L1005.71 161.838C1006.83 162.764 1007.9 163.188 1008.94 163.11C1009.98 163.031 1010.88 162.537 1011.64 161.626C1012.36 160.753 1012.63 159.845 1012.44 158.902C1012.27 157.94 1011.62 156.996 1010.51 156.069L1003.01 149.838L998.215 155.607Z" fill="#6A6A6A"/>
<path d="M1022.63 185.381L1025.51 187.981C1024.54 188.763 1023.44 189.253 1022.22 189.451C1021.04 189.646 1019.77 189.512 1018.43 189.049C1017.11 188.568 1015.78 187.72 1014.44 186.505C1012.92 185.129 1011.81 183.621 1011.11 181.981C1010.43 180.324 1010.22 178.669 1010.48 177.016C1010.74 175.363 1011.52 173.821 1012.82 172.39C1014.1 170.977 1015.54 170.043 1017.16 169.587C1018.78 169.131 1020.43 169.143 1022.11 169.623C1023.81 170.12 1025.43 171.065 1026.97 172.457C1028.56 173.899 1029.62 175.383 1030.16 176.911C1030.73 178.437 1030.76 179.999 1030.26 181.595C1029.78 183.174 1028.72 184.772 1027.09 186.39L1015.31 175.726C1014.72 176.558 1014.35 177.456 1014.19 178.421C1014.07 179.383 1014.2 180.35 1014.59 181.322C1015 182.275 1015.67 183.173 1016.6 184.015C1017.63 184.955 1018.69 185.535 1019.76 185.755C1020.85 185.991 1021.8 185.867 1022.63 185.381ZM1024.7 174.799C1023.48 173.698 1022.2 173.095 1020.87 172.99C1019.55 172.868 1018.35 173.167 1017.27 173.886L1025.89 181.684C1026.72 180.618 1027.02 179.475 1026.79 178.257C1026.58 177.021 1025.88 175.868 1024.7 174.799Z" fill="#6A6A6A"/>
<path d="M1029.57 200.729C1028.4 199.581 1027.6 198.241 1027.17 196.71C1026.77 195.195 1026.76 193.651 1027.15 192.077C1027.58 190.503 1028.44 189.061 1029.72 187.752C1031.04 186.408 1032.48 185.523 1034.04 185.097C1035.63 184.655 1037.2 184.639 1038.75 185.05C1040.31 185.461 1041.71 186.274 1042.95 187.49C1044.33 188.841 1045.13 190.215 1045.35 191.612C1045.57 193.009 1045.35 194.384 1044.7 195.739C1044.05 197.093 1043.1 198.4 1041.87 199.658C1041.18 200.364 1040.34 201.013 1039.36 201.603C1038.39 202.176 1037.35 202.578 1036.25 202.811C1035.16 203.061 1034.03 203.039 1032.87 202.743C1031.74 202.448 1030.64 201.776 1029.57 200.729ZM1032.78 199.212C1033.74 200.158 1034.74 200.779 1035.77 201.076C1036.83 201.372 1037.85 201.362 1038.84 201.045C1039.84 200.745 1040.75 200.181 1041.56 199.354C1042.46 198.44 1043.03 197.488 1043.3 196.495C1043.58 195.486 1043.55 194.479 1043.22 193.476C1042.9 192.456 1042.26 191.472 1041.29 190.527C1039.91 189.176 1038.45 188.534 1036.9 188.6C1035.34 188.667 1033.93 189.347 1032.67 190.64C1031.84 191.484 1031.29 192.411 1031.01 193.42C1030.74 194.447 1030.76 195.462 1031.06 196.466C1031.36 197.469 1031.93 198.385 1032.78 199.212ZM1047.89 192.891L1050.79 195.728L1038.17 208.602L1035.48 205.967C1035.48 205.967 1035.63 205.787 1035.91 205.425C1036.2 205.064 1036.55 204.634 1036.98 204.135C1037.41 203.619 1037.84 203.145 1038.27 202.714L1047.89 192.891Z" fill="#6A6A6A"/>
<path d="M1059.49 194.635L1062.26 197.527L1044.07 214.958L1041.3 212.066L1059.49 194.635Z" fill="#6A6A6A"/>
<path d="M1063.75 221.321L1058.92 225.573L1069.79 237.924L1067.13 240.265L1053.53 224.82L1071.13 209.341L1084.7 224.759L1082.03 227.1L1071.19 214.776L1066.3 219.076L1075.19 229.174L1072.64 231.419L1063.75 221.321Z" fill="#6A6A6A"/>
<path d="M1074.02 239.142L1076.38 242.025C1075.79 242.755 1075.53 243.612 1075.59 244.595C1075.66 245.562 1076.13 246.569 1076.99 247.614C1077.54 248.286 1078.04 248.747 1078.49 248.998C1078.96 249.267 1079.39 249.37 1079.78 249.305C1080.17 249.259 1080.54 249.098 1080.88 248.822C1081.29 248.486 1081.51 248.105 1081.53 247.678C1081.57 247.271 1081.48 246.782 1081.26 246.212C1081.05 245.642 1080.72 244.975 1080.28 244.211C1079.88 243.383 1079.51 242.549 1079.17 241.709C1078.82 240.869 1078.57 240.056 1078.43 239.27C1078.3 238.469 1078.34 237.718 1078.55 237.019C1078.79 236.323 1079.26 235.691 1079.95 235.125C1080.58 234.605 1081.26 234.279 1082 234.146C1082.77 234.016 1083.54 234.067 1084.32 234.299C1085.11 234.531 1085.88 234.925 1086.65 235.481C1087.44 236.022 1088.17 236.712 1088.86 237.552C1089.86 238.765 1090.49 239.933 1090.75 241.057C1091.03 242.199 1090.99 243.266 1090.61 244.258C1090.26 245.269 1089.62 246.149 1088.71 246.898L1086.46 244.155C1087.08 243.394 1087.39 242.661 1087.37 241.956C1087.35 241.252 1087 240.47 1086.29 239.612C1085.59 238.754 1084.9 238.223 1084.24 238.02C1083.57 237.817 1082.98 237.929 1082.45 238.357C1082.06 238.679 1081.86 239.079 1081.85 239.557C1081.87 240.039 1082.02 240.62 1082.29 241.299C1082.57 241.978 1082.92 242.75 1083.35 243.615C1083.71 244.44 1084.04 245.235 1084.32 246C1084.62 246.751 1084.82 247.481 1084.9 248.192C1085.02 248.907 1084.96 249.596 1084.72 250.258C1084.48 250.92 1084.02 251.534 1083.33 252.1C1082.47 252.804 1081.54 253.175 1080.55 253.213C1079.56 253.27 1078.55 253.007 1077.51 252.424C1076.49 251.825 1075.48 250.92 1074.49 249.707C1073.62 248.643 1072.98 247.62 1072.58 246.637C1072.2 245.673 1071.99 244.769 1071.95 243.926C1071.93 243.101 1072.03 242.365 1072.25 241.718C1072.46 241.071 1072.73 240.523 1073.05 240.074C1073.39 239.645 1073.71 239.334 1074.02 239.142Z" fill="#6A6A6A"/>
<path d="M1095.2 246.01L1103 256.086L1100.39 258.101L1092.59 248.025L1095.2 246.01ZM1101.69 246.477L1104.17 249.683L1086.08 263.681L1083.6 260.475L1101.69 246.477Z" fill="#6A6A6A"/>
<path d="M1094.82 276.021C1093.86 274.691 1093.29 273.236 1093.13 271.655C1092.99 270.094 1093.24 268.57 1093.89 267.085C1094.58 265.606 1095.67 264.329 1097.15 263.254C1098.68 262.151 1100.25 261.522 1101.86 261.366C1103.5 261.197 1105.05 261.445 1106.51 262.113C1107.98 262.78 1109.22 263.817 1110.24 265.225C1111.37 266.789 1111.93 268.278 1111.91 269.692C1111.89 271.105 1111.44 272.425 1110.57 273.65C1109.7 274.876 1108.55 276.005 1107.12 277.037C1106.32 277.617 1105.39 278.115 1104.32 278.53C1103.27 278.932 1102.18 279.155 1101.05 279.198C1099.93 279.261 1098.82 279.048 1097.73 278.561C1096.66 278.08 1095.69 277.233 1094.82 276.021ZM1098.24 275.066C1099.03 276.161 1099.91 276.941 1100.87 277.407C1101.86 277.877 1102.88 278.04 1103.9 277.893C1104.94 277.767 1105.93 277.364 1106.87 276.685C1107.9 275.935 1108.64 275.094 1109.06 274.16C1109.51 273.212 1109.65 272.215 1109.49 271.17C1109.35 270.111 1108.88 269.034 1108.09 267.939C1106.96 266.375 1105.62 265.495 1104.08 265.299C1102.54 265.104 1101.04 265.536 1099.57 266.597C1098.61 267.29 1097.91 268.11 1097.47 269.058C1097.03 270.026 1096.88 271.03 1097.01 272.069C1097.13 273.109 1097.54 274.108 1098.24 275.066ZM1114.2 271.382L1116.58 274.666L1101.97 285.23L1099.77 282.18C1099.77 282.18 1099.94 282.026 1100.28 281.719C1100.62 281.411 1101.04 281.046 1101.54 280.625C1102.06 280.19 1102.57 279.796 1103.06 279.443L1114.2 271.382Z" fill="#6A6A6A"/>
<path d="M1118.61 277.671L1125.73 288.232L1123 290.074L1115.88 279.513L1118.61 277.671ZM1125.06 278.559L1127.32 281.919L1108.36 294.713L1106.09 291.353L1125.06 278.559Z" fill="#6A6A6A"/>
<path d="M1125.42 310.25L1127.47 313.542C1126.32 314.03 1125.13 314.202 1123.9 314.057C1122.71 313.92 1121.53 313.445 1120.36 312.631C1119.22 311.805 1118.17 310.623 1117.21 309.085C1116.12 307.342 1115.47 305.585 1115.25 303.814C1115.05 302.031 1115.3 300.379 1116 298.858C1116.71 297.336 1117.88 296.064 1119.52 295.041C1121.14 294.031 1122.79 293.528 1124.48 293.532C1126.16 293.537 1127.75 294.001 1129.23 294.925C1130.73 295.869 1132.03 297.223 1133.13 298.987C1134.27 300.812 1134.89 302.535 1134.99 304.154C1135.12 305.781 1134.73 307.295 1133.8 308.695C1132.9 310.083 1131.45 311.333 1129.43 312.445L1121.01 298.94C1120.21 299.579 1119.61 300.342 1119.19 301.228C1118.81 302.122 1118.67 303.09 1118.78 304.133C1118.91 305.163 1119.31 306.211 1119.97 307.278C1120.72 308.467 1121.57 309.315 1122.54 309.821C1123.53 310.347 1124.48 310.49 1125.42 310.25ZM1130.31 300.621C1129.44 299.227 1128.37 298.295 1127.11 297.828C1125.87 297.347 1124.64 297.306 1123.4 297.705L1129.56 307.58C1130.66 306.782 1131.26 305.764 1131.38 304.527C1131.51 303.277 1131.15 301.975 1130.31 300.621Z" fill="#6A6A6A"/>
<path d="M1187.5 396.314L1185.02 398.38L1182.1 394.763L1179.58 399.035L1176.82 397.346L1179.64 392.952L1174.56 391.816L1175.36 388.678L1180.1 389.951L1179.68 385.39L1182.91 385.167L1183.19 389.863L1187.65 387.965L1188.87 390.948L1184.32 392.645L1187.5 396.314Z" fill="#6A6A6A"/>
<path d="M1192.44 488.941L1215.39 484.125L1218.24 497.691C1218.59 499.392 1218.66 500.92 1218.42 502.275C1218.21 503.626 1217.67 504.75 1216.8 505.648C1215.95 506.541 1214.75 507.151 1213.19 507.478C1212.15 507.696 1211.22 507.707 1210.39 507.511C1209.58 507.311 1208.87 506.941 1208.27 506.403C1207.66 505.864 1207.14 505.197 1206.7 504.402C1206.27 503.63 1205.92 502.779 1205.65 501.849L1205.82 501.443C1206.11 502.959 1206.24 504.24 1206.18 505.287C1206.16 506.328 1205.85 507.18 1205.28 507.844C1204.73 508.502 1203.8 508.967 1202.5 509.24L1196.94 510.407L1196.1 506.404L1201.45 505.282C1202.35 505.093 1203.01 504.782 1203.44 504.347C1203.89 503.931 1204.13 503.314 1204.16 502.495C1204.21 501.695 1204.09 500.586 1203.79 499.169L1202.1 491.129L1193.28 492.979L1192.44 488.941ZM1205.4 490.437L1207.4 499.966C1207.69 501.383 1208.27 502.383 1209.14 502.966C1210 503.55 1211.01 503.72 1212.17 503.477C1213.28 503.244 1214.05 502.7 1214.49 501.844C1214.95 500.983 1215.03 499.844 1214.73 498.427L1212.73 488.899L1205.4 490.437Z" fill="#6A6A6A"/>
<path d="M1206.14 528.99L1206.76 532.824C1205.51 532.83 1204.35 532.528 1203.27 531.918C1202.22 531.328 1201.31 530.432 1200.55 529.231C1199.82 528.026 1199.31 526.528 1199.02 524.737C1198.69 522.706 1198.77 520.831 1199.25 519.111C1199.75 517.387 1200.63 515.959 1201.87 514.827C1203.1 513.696 1204.68 512.975 1206.59 512.667C1208.48 512.362 1210.2 512.537 1211.75 513.193C1213.3 513.849 1214.59 514.892 1215.6 516.321C1216.62 517.774 1217.3 519.528 1217.63 521.582C1217.97 523.708 1217.88 525.537 1217.34 527.07C1216.83 528.623 1215.88 529.868 1214.49 530.804C1213.12 531.736 1211.29 532.325 1209 532.573L1206.46 516.843C1205.47 517.124 1204.62 517.594 1203.89 518.25C1203.19 518.927 1202.69 519.768 1202.38 520.773C1202.11 521.774 1202.07 522.896 1202.27 524.138C1202.49 525.523 1202.95 526.638 1203.65 527.48C1204.36 528.347 1205.19 528.85 1206.14 528.99ZM1214.39 521.996C1214.12 520.371 1213.5 519.099 1212.52 518.179C1211.56 517.256 1210.44 516.739 1209.14 516.629L1211 528.131C1212.32 527.819 1213.28 527.114 1213.86 526.015C1214.46 524.912 1214.64 523.572 1214.39 521.996Z" fill="#6A6A6A"/>
<path d="M1201.83 545.244C1201.63 543.62 1201.84 542.079 1202.47 540.622C1203.09 539.188 1204.05 537.982 1205.34 537.002C1206.65 536.043 1208.22 535.453 1210.03 535.233C1211.9 535.007 1213.57 535.216 1215.05 535.861C1216.56 536.502 1217.79 537.467 1218.75 538.757C1219.71 540.047 1220.29 541.552 1220.5 543.272C1220.73 545.183 1220.49 546.751 1219.79 547.975C1219.09 549.199 1218.07 550.135 1216.72 550.784C1215.37 551.432 1213.82 551.862 1212.07 552.073C1211.09 552.192 1210.04 552.175 1208.9 552.021C1207.79 551.865 1206.74 551.533 1205.73 551.025C1204.72 550.54 1203.86 549.821 1203.14 548.866C1202.45 547.932 1202.01 546.725 1201.83 545.244ZM1205.27 546.063C1205.43 547.4 1205.82 548.504 1206.44 549.375C1207.08 550.267 1207.88 550.897 1208.85 551.265C1209.82 551.656 1210.87 551.782 1212.02 551.643C1213.29 551.49 1214.33 551.109 1215.16 550.5C1216 549.889 1216.61 549.088 1216.97 548.098C1217.36 547.106 1217.48 545.941 1217.31 544.603C1217.08 542.692 1216.34 541.279 1215.09 540.364C1213.84 539.449 1212.32 539.1 1210.53 539.318C1209.36 539.46 1208.35 539.836 1207.5 540.448C1206.66 541.084 1206.04 541.886 1205.65 542.854C1205.26 543.823 1205.13 544.892 1205.27 546.063ZM1220.98 550.558L1221.47 554.571L1203.62 556.734L1203.17 553.007C1203.17 553.007 1203.39 552.956 1203.84 552.853C1204.29 552.75 1204.83 552.636 1205.47 552.51C1206.14 552.381 1206.77 552.28 1207.36 552.208L1220.98 550.558Z" fill="#6A6A6A"/>
<path d="M30.2348 535.112L36.6132 536.079L39.0836 519.776L42.5953 520.308L39.506 540.695L16.2856 537.177L19.3695 516.826L22.8812 517.358L20.4163 533.625L26.8664 534.602L28.8861 521.273L32.2545 521.783L30.2348 535.112Z" fill="#6A6A6A"/>
<path d="M37.4946 515.803L38.199 512.142C39.1359 512.126 39.9639 511.782 40.6831 511.109C41.3785 510.432 41.8539 509.43 42.1092 508.103C42.2733 507.25 42.3062 506.569 42.2078 506.058C42.1139 505.524 41.9194 505.13 41.6241 504.877C41.3334 504.6 40.9748 504.42 40.5482 504.338C40.0269 504.238 39.5945 504.315 39.2508 504.568C38.9118 504.798 38.5928 505.178 38.2938 505.711C37.9948 506.243 37.6922 506.922 37.3859 507.747C37.0039 508.583 36.6006 509.402 36.1758 510.205C35.751 511.008 35.283 511.717 34.7716 512.331C34.2366 512.94 33.6341 513.39 32.9642 513.678C32.2752 513.939 31.4923 513.985 30.6155 513.816C29.8099 513.661 29.1213 513.345 28.5499 512.866C27.9594 512.359 27.5028 511.731 27.1802 510.981C26.8577 510.231 26.6645 509.383 26.6008 508.437C26.5134 507.486 26.5722 506.478 26.7774 505.412C27.0737 503.872 27.5687 502.64 28.2623 501.717C28.9605 500.77 29.81 500.123 30.8108 499.775C31.8161 499.403 32.8993 499.329 34.0604 499.552L33.3902 503.035C32.4059 503.042 31.6481 503.277 31.1167 503.74C30.5853 504.203 30.2148 504.98 30.005 506.07C29.7953 507.159 29.8254 508.025 30.0951 508.667C30.3648 509.308 30.8314 509.693 31.4949 509.821C31.9925 509.916 32.4295 509.816 32.806 509.52C33.1633 509.196 33.5146 508.71 33.8601 508.064C34.2056 507.418 34.5738 506.654 34.9649 505.771C35.366 504.963 35.7698 504.205 36.1763 503.497C36.5592 502.785 36.9971 502.169 37.4903 501.649C37.9642 501.102 38.5316 500.707 39.1924 500.466C39.8532 500.224 40.6219 500.188 41.4987 500.356C42.5887 500.566 43.4677 501.042 44.1357 501.785C44.8083 502.504 45.253 503.45 45.4698 504.622C45.6629 505.789 45.6113 507.143 45.315 508.683C45.0551 510.034 44.6754 511.177 44.1759 512.113C43.681 513.025 43.1208 513.765 42.4956 514.333C41.8749 514.877 41.246 515.272 40.6089 515.518C39.9718 515.764 39.3789 515.908 38.8303 515.949C38.2862 515.968 37.8409 515.919 37.4946 515.803Z" fill="#6A6A6A"/>
<path d="M29.2225 495.135L31.9844 482.699L35.1999 483.412L32.4379 495.849L29.2225 495.135ZM25.4291 489.844L26.3079 485.887L48.6397 490.846L47.7609 494.803L25.4291 489.844Z" fill="#6A6A6A"/>
<path d="M52.5579 476.226C52.1501 477.815 51.3896 479.177 50.2765 480.311C49.1693 481.422 47.836 482.201 46.2764 482.648C44.6995 483.065 43.0228 483.046 41.2464 482.59C39.4233 482.123 37.9358 481.318 36.7841 480.175C35.6089 479.027 34.8096 477.676 34.3861 476.122C33.9626 474.569 33.9668 472.951 34.3985 471.268C34.8783 469.398 35.6681 468.019 36.7681 467.131C37.868 466.242 39.1674 465.741 40.6664 465.627C42.1654 465.514 43.768 465.676 45.4743 466.113C46.4326 466.359 47.4134 466.76 48.4166 467.317C49.3964 467.867 50.2642 468.563 51.0198 469.404C51.7814 470.223 52.3255 471.209 52.652 472.364C52.9611 473.489 52.9297 474.777 52.5579 476.226ZM49.6382 474.206C49.974 472.898 50.0135 471.724 49.7565 470.687C49.4822 469.62 48.9609 468.739 48.1926 468.044C47.4303 467.325 46.4883 466.822 45.3663 466.534C44.1275 466.216 43.0128 466.192 42.022 466.461C41.0079 466.724 40.1501 467.251 39.4488 468.043C38.7241 468.828 38.1938 469.875 37.858 471.184C37.3782 473.054 37.5557 474.644 38.3904 475.954C39.225 477.264 40.5189 478.144 42.2719 478.594C43.4172 478.888 44.4969 478.903 45.5111 478.64C46.5312 478.354 47.4006 477.83 48.1193 477.067C48.8381 476.305 49.3443 475.352 49.6382 474.206ZM36.6013 464.285L37.6088 460.359L55.0688 464.838L54.1332 468.484C54.1332 468.484 53.9052 468.451 53.4491 468.384C52.993 468.316 52.4434 468.225 51.8003 468.11C51.1339 467.989 50.5085 467.853 49.9242 467.703L36.6013 464.285Z" fill="#6A6A6A"/>
<path d="M38.6155 456.897L42.1829 444.667L45.345 445.589L41.7775 457.819L38.6155 456.897ZM35.1754 451.37L36.3105 447.478L58.2712 453.883L57.1361 457.775L35.1754 451.37Z" fill="#6A6A6A"/>
<path d="M59.3011 430.909L60.5031 427.227C61.6131 427.793 62.507 428.592 63.1849 429.626C63.8474 430.629 64.2403 431.836 64.3635 433.247C64.4637 434.65 64.233 436.212 63.6714 437.932C63.0348 439.882 62.1101 441.509 60.8973 442.814C59.6615 444.111 58.236 444.978 56.621 445.415C55.006 445.853 53.2809 445.772 51.4457 445.173C49.6336 444.581 48.1893 443.64 47.113 442.35C46.0367 441.059 45.3749 439.549 45.1276 437.818C44.8878 436.065 45.0899 434.201 45.7339 432.229C46.4004 430.187 47.3216 428.61 48.4975 427.496C49.658 426.352 51.0694 425.683 52.7317 425.49C54.3711 425.289 56.2617 425.602 58.4034 426.428L53.4721 441.532C54.473 441.732 55.4458 441.707 56.3904 441.457C57.3197 441.176 58.1482 440.66 58.8761 439.907C59.5811 439.148 60.1283 438.171 60.5177 436.979C60.9521 435.648 61.0515 434.45 60.8159 433.383C60.5879 432.293 60.083 431.469 59.3011 430.909ZM48.797 433.343C48.2878 434.903 48.2584 436.314 48.7088 437.578C49.1363 438.835 49.8978 439.807 50.9932 440.494L54.5991 429.45C53.2845 429.122 52.1182 429.313 51.1 430.021C50.059 430.722 49.2913 431.829 48.797 433.343Z" fill="#6A6A6A"/>
<path d="M85.9595 328.107L89.1332 328.697L88.2128 333.254L93.109 332.467L93.5704 335.67L88.387 336.303L90.7518 340.935L87.8306 342.327L85.7849 337.866L82.5372 341.095L80.3031 338.749L83.7444 335.542L79.4341 333.317L80.9545 330.477L85.1623 332.894L85.9595 328.107Z" fill="#6A6A6A"/>
<path d="M154.161 265.262L135.866 250.721L144.461 239.909C145.538 238.554 146.671 237.534 147.859 236.851C149.028 236.153 150.235 235.852 151.478 235.95C152.702 236.032 153.936 236.567 155.178 237.555C156.006 238.213 156.609 238.923 156.987 239.684C157.346 240.43 157.512 241.206 157.484 242.014C157.457 242.821 157.277 243.646 156.946 244.488C156.629 245.311 156.2 246.122 155.658 246.919L155.236 247.045C156.212 245.855 157.118 244.947 157.953 244.321C158.77 243.681 159.616 243.37 160.491 243.39C161.347 243.395 162.293 243.808 163.328 244.631L167.76 248.154L165.224 251.344L160.961 247.956C160.246 247.387 159.586 247.078 158.981 247.027C158.373 246.943 157.746 247.151 157.102 247.653C156.454 248.12 155.681 248.919 154.783 250.048L149.689 256.456L156.719 262.044L154.161 265.262ZM147.064 254.369L153.1 246.775C153.998 245.646 154.396 244.565 154.295 243.533C154.195 242.501 153.683 241.618 152.761 240.885C151.876 240.182 150.967 239.935 150.032 240.145C149.079 240.339 148.154 241.001 147.256 242.13L141.219 249.724L147.064 254.369Z" fill="#6A6A6A"/>
<path d="M176.064 229.103L178.595 226.172C179.4 227.122 179.916 228.205 180.142 229.42C180.365 230.601 180.261 231.866 179.83 233.215C179.38 234.548 178.563 235.9 177.381 237.269C176.04 238.822 174.558 239.965 172.936 240.7C171.295 241.419 169.645 241.668 167.986 241.447C166.328 241.227 164.768 240.486 163.307 239.224C161.864 237.978 160.895 236.552 160.401 234.946C159.907 233.34 159.88 231.691 160.321 230C160.778 228.29 161.684 226.649 163.04 225.079C164.444 223.453 165.903 222.354 167.418 221.781C168.93 221.175 170.49 221.103 172.098 221.567C173.688 222.015 175.311 223.034 176.967 224.623L166.582 236.649C167.428 237.22 168.335 237.573 169.303 237.707C170.269 237.807 171.232 237.651 172.194 237.239C173.138 236.81 174.02 236.121 174.84 235.172C175.755 234.112 176.31 233.045 176.505 231.97C176.716 230.877 176.569 229.921 176.064 229.103ZM165.435 227.29C164.362 228.532 163.79 229.822 163.717 231.162C163.626 232.486 163.952 233.677 164.697 234.734L172.291 225.941C171.205 225.131 170.055 224.856 168.843 225.116C167.612 225.36 166.476 226.084 165.435 227.29Z" fill="#6A6A6A"/>
<path d="M191.244 221.814C190.124 223.013 188.803 223.842 187.282 224.303C185.778 224.747 184.234 224.79 182.651 224.434C181.068 224.043 179.606 223.222 178.266 221.97C176.891 220.684 175.973 219.264 175.51 217.709C175.031 216.138 174.978 214.569 175.352 213.003C175.726 211.437 176.506 210.019 177.693 208.75C179.011 207.34 180.366 206.509 181.757 206.257C183.149 206.006 184.529 206.19 185.899 206.809C187.268 207.429 188.597 208.34 189.883 209.543C190.606 210.219 191.274 211.041 191.887 212.011C192.483 212.964 192.91 213.99 193.169 215.091C193.445 216.175 193.448 217.301 193.181 218.471C192.912 219.607 192.266 220.721 191.244 221.814ZM189.652 218.641C190.575 217.654 191.173 216.644 191.445 215.61C191.716 214.543 191.682 213.52 191.342 212.541C191.018 211.545 190.433 210.651 189.587 209.86C188.653 208.987 187.686 208.431 186.688 208.191C185.672 207.935 184.667 207.986 183.671 208.344C182.658 208.685 181.691 209.35 180.768 210.337C179.45 211.747 178.842 213.227 178.946 214.777C179.049 216.327 179.762 217.72 181.084 218.956C181.948 219.763 182.887 220.295 183.903 220.551C184.936 220.789 185.95 220.746 186.947 220.422C187.943 220.099 188.845 219.505 189.652 218.641ZM182.976 203.681L185.745 200.72L198.913 213.029L196.342 215.778C196.342 215.778 196.158 215.639 195.79 215.362C195.422 215.084 194.984 214.74 194.475 214.33C193.949 213.904 193.465 213.485 193.024 213.073L182.976 203.681Z" fill="#6A6A6A"/>
<path d="M184.37 192.118L187.183 189.266L205.12 206.95L202.308 209.802L184.37 192.118Z" fill="#6A6A6A"/>
<path d="M211.018 187.214L215.399 191.917L227.422 180.718L229.834 183.308L214.799 197.311L198.85 180.191L213.858 166.212L216.27 168.801L204.274 179.974L208.705 184.73L218.534 175.575L220.848 178.058L211.018 187.214Z" fill="#6A6A6A"/>
<path d="M228.617 176.455L231.444 174.025C232.188 174.594 233.051 174.839 234.032 174.759C234.998 174.661 235.993 174.171 237.018 173.29C237.676 172.724 238.126 172.21 238.366 171.749C238.624 171.272 238.717 170.843 238.643 170.461C238.587 170.063 238.418 169.7 238.135 169.37C237.788 168.968 237.402 168.759 236.975 168.744C236.567 168.713 236.08 168.814 235.515 169.045C234.95 169.276 234.291 169.62 233.538 170.076C232.72 170.494 231.895 170.885 231.063 171.25C230.231 171.615 229.424 171.879 228.642 172.043C227.844 172.188 227.092 172.166 226.388 171.976C225.686 171.752 225.044 171.301 224.462 170.624C223.927 170.002 223.585 169.326 223.434 168.596C223.287 167.832 223.319 167.056 223.533 166.268C223.746 165.48 224.122 164.696 224.66 163.915C225.182 163.116 225.855 162.363 226.678 161.655C227.868 160.632 229.021 159.975 230.138 159.682C231.273 159.375 232.341 159.395 233.342 159.744C234.36 160.078 235.255 160.693 236.026 161.589L233.336 163.902C232.561 163.296 231.821 163.009 231.117 163.041C230.413 163.074 229.64 163.452 228.798 164.176C227.957 164.899 227.442 165.596 227.255 166.266C227.067 166.937 227.194 167.528 227.634 168.04C227.965 168.424 228.369 168.617 228.848 168.619C229.33 168.587 229.907 168.425 230.579 168.134C231.251 167.842 232.015 167.472 232.87 167.023C233.686 166.64 234.473 166.297 235.232 165.995C235.975 165.675 236.701 165.464 237.41 165.363C238.122 165.229 238.811 165.272 239.479 165.494C240.147 165.715 240.772 166.164 241.354 166.841C242.078 167.683 242.47 168.602 242.532 169.599C242.612 170.58 242.373 171.598 241.814 172.651C241.24 173.685 240.358 174.714 239.169 175.736C238.126 176.633 237.118 177.293 236.145 177.716C235.19 178.123 234.292 178.354 233.449 178.411C232.625 178.451 231.887 178.37 231.234 178.167C230.582 177.964 230.028 177.708 229.573 177.4C229.135 177.076 228.817 176.761 228.617 176.455Z" fill="#6A6A6A"/>
<path d="M234.93 154.984L244.868 146.958L246.943 149.527L237.005 157.553L234.93 154.984ZM235.262 148.465L238.424 145.911L252.836 163.753L249.674 166.307L235.262 148.465Z" fill="#6A6A6A"/>
<path d="M264.996 154.803C263.69 155.796 262.248 156.392 260.671 156.59C259.114 156.774 257.585 156.557 256.085 155.939C254.589 155.288 253.286 154.232 252.177 152.772C251.038 151.274 250.371 149.72 250.177 148.109C249.969 146.479 250.181 144.924 250.813 143.443C251.446 141.962 252.453 140.696 253.837 139.645C255.373 138.477 256.849 137.886 258.263 137.872C259.677 137.858 261.007 138.272 262.252 139.113C263.498 139.954 264.654 141.076 265.72 142.478C266.319 143.266 266.839 144.189 267.28 145.248C267.707 146.287 267.955 147.372 268.025 148.5C268.114 149.615 267.928 150.726 267.467 151.834C267.011 152.908 266.187 153.898 264.996 154.803ZM263.961 151.408C265.037 150.59 265.796 149.695 266.238 148.722C266.685 147.715 266.824 146.701 266.653 145.679C266.501 144.642 266.075 143.663 265.374 142.741C264.6 141.723 263.742 141.012 262.798 140.608C261.839 140.184 260.84 140.065 259.798 140.251C258.743 140.417 257.677 140.909 256.601 141.726C255.064 142.895 254.216 144.251 254.057 145.797C253.898 147.342 254.366 148.835 255.462 150.275C256.177 151.217 257.014 151.899 257.972 152.322C258.95 152.731 259.957 152.86 260.994 152.708C262.03 152.557 263.019 152.123 263.961 151.408ZM259.898 135.538L263.126 133.085L274.034 147.434L271.037 149.712C271.037 149.712 270.879 149.544 270.563 149.208C270.247 148.872 269.873 148.46 269.44 147.97C268.993 147.461 268.587 146.967 268.222 146.487L259.898 135.538Z" fill="#6A6A6A"/>
<path d="M265.979 130.769L276.427 123.38L278.337 126.081L267.89 133.47L265.979 130.769ZM266.728 124.274L270.052 121.922L283.32 140.679L279.996 143.03L266.728 124.274Z" fill="#6A6A6A"/>
<path d="M298.467 123.652L301.681 121.522C302.198 122.649 302.401 123.826 302.291 125.052C302.188 126.244 301.748 127.429 300.972 128.606C300.182 129.763 299.037 130.84 297.534 131.835C295.832 132.963 294.104 133.661 292.351 133.93C290.584 134.178 288.935 133.973 287.405 133.316C285.874 132.659 284.577 131.529 283.516 129.927C282.467 128.345 281.922 126.717 281.88 125.045C281.838 123.372 282.256 121.784 283.133 120.281C284.03 118.764 285.34 117.435 287.062 116.294C288.845 115.113 290.539 114.451 292.146 114.309C293.759 114.134 295.274 114.484 296.691 115.361C298.094 116.218 299.377 117.631 300.537 119.6L287.349 128.338C288.006 129.113 288.781 129.695 289.673 130.084C290.571 130.44 291.537 130.549 292.57 130.412C293.59 130.255 294.621 129.831 295.663 129.141C296.824 128.372 297.643 127.498 298.119 126.519C298.615 125.528 298.731 124.572 298.467 123.652ZM288.764 119.057C287.402 119.96 286.506 121.043 286.076 122.308C285.633 123.553 285.626 124.782 286.056 125.996L295.699 119.606C294.876 118.538 293.848 117.965 292.615 117.888C291.37 117.792 290.086 118.181 288.764 119.057Z" fill="#6A6A6A"/>
<path d="M383.062 59.2986L385.187 61.7287L381.64 64.7343L385.97 67.1513L384.347 69.9507L379.887 67.2351L378.872 72.3357L375.716 71.6179L376.876 66.849L372.326 67.3704L372.026 64.1453L376.715 63.7609L374.711 59.3436L377.665 58.0571L379.469 62.5611L383.062 59.2986Z" fill="#6A6A6A"/>
</g>
<defs>
<clipPath id="clip0_40_5018">
<rect width="1241" height="536" fill="white"/>
</clipPath>
</defs>
</svg>
