<svg width="1131" height="1131" viewBox="0 0 1131 1131" fill="none" xmlns="http://www.w3.org/2000/svg">
<path d="M1107.04 564.931L1123.29 565.119L1123.2 572.294C1123.19 573.427 1123 574.392 1122.65 575.188C1122.3 575.984 1121.79 576.586 1121.1 576.995C1120.41 577.42 1119.55 577.627 1118.52 577.615C1117.82 577.607 1117.22 577.483 1116.72 577.244C1116.22 577.022 1115.8 576.708 1115.46 576.304C1115.13 575.901 1114.88 575.423 1114.7 574.871C1114.52 574.335 1114.41 573.75 1114.37 573.117L1114.49 573.043C1114.45 573.926 1114.33 574.683 1114.14 575.314C1113.95 575.945 1113.61 576.433 1113.13 576.777C1112.64 577.122 1111.91 577.288 1110.95 577.277L1106.9 577.23L1106.92 575.23L1110.97 575.277C1111.64 575.285 1112.15 575.174 1112.52 574.945C1112.91 574.733 1113.18 574.361 1113.34 573.83C1113.51 573.315 1113.6 572.599 1113.61 571.683L1113.66 567.008L1107.01 566.931L1107.04 564.931ZM1115.54 567.03L1115.48 572.204C1115.47 573.338 1115.74 574.183 1116.3 574.739C1116.88 575.312 1117.62 575.604 1118.54 575.615C1119.42 575.625 1120.1 575.35 1120.57 574.789C1121.06 574.244 1121.32 573.405 1121.33 572.272L1121.39 567.097L1115.54 567.03Z" fill="#6A6A6A"/>
<path d="M1110.38 592.059L1110.3 593.932C1109.49 593.764 1108.77 593.433 1108.14 592.939C1107.52 592.463 1107.04 591.842 1106.69 591.076C1106.36 590.328 1106.21 589.471 1106.25 588.505C1106.3 587.34 1106.62 586.302 1107.21 585.393C1107.81 584.485 1108.61 583.776 1109.6 583.268C1110.61 582.777 1111.73 582.558 1112.98 582.611C1114.23 582.664 1115.33 582.969 1116.29 583.527C1117.25 584.102 1118 584.859 1118.53 585.799C1119.05 586.739 1119.29 587.783 1119.24 588.932C1119.19 590.148 1118.87 591.16 1118.29 591.969C1117.72 592.796 1116.9 593.387 1115.84 593.742C1114.79 594.114 1113.51 594.227 1111.99 594.079L1112.4 584.588C1111.58 584.636 1110.85 584.831 1110.22 585.171C1109.59 585.511 1109.08 585.973 1108.71 586.558C1108.35 587.143 1108.16 587.819 1108.12 588.585C1108.09 589.434 1108.27 590.159 1108.68 590.76C1109.11 591.379 1109.67 591.812 1110.38 592.059ZM1117.37 588.927C1117.41 587.895 1117.15 587.016 1116.58 586.292C1116.01 585.567 1115.21 585.066 1114.19 584.789L1113.88 592.107C1114.98 592.087 1115.83 591.765 1116.42 591.139C1117.02 590.531 1117.33 589.793 1117.37 588.927Z" fill="#6A6A6A"/>
<path d="M1105.64 600.025C1105.7 599.043 1106.04 598.155 1106.64 597.36C1107.26 596.582 1108.07 595.975 1109.06 595.54C1110.08 595.122 1111.21 594.954 1112.45 595.036C1113.7 595.118 1114.8 595.44 1115.75 596.004C1116.7 596.567 1117.43 597.291 1117.93 598.177C1118.44 599.079 1118.66 600.062 1118.59 601.126C1118.52 602.29 1118.16 603.152 1117.52 603.711C1116.9 604.288 1116.09 604.653 1115.09 604.805C1114.1 604.973 1113 605.018 1111.8 604.939C1111.17 604.898 1110.49 604.786 1109.75 604.604C1109.02 604.423 1108.33 604.143 1107.67 603.766C1107.03 603.406 1106.51 602.921 1106.11 602.311C1105.74 601.701 1105.58 600.939 1105.64 600.025ZM1107.5 600.648C1107.44 601.496 1107.61 602.208 1107.99 602.784C1108.37 603.377 1108.89 603.829 1109.55 604.14C1110.23 604.452 1110.99 604.635 1111.82 604.69C1112.73 604.75 1113.54 604.661 1114.24 604.423C1114.96 604.203 1115.53 603.823 1115.95 603.282C1116.38 602.76 1116.63 602.083 1116.68 601.251C1116.76 600.004 1116.39 599.01 1115.55 598.27C1114.73 597.532 1113.65 597.119 1112.32 597.031C1111.44 596.973 1110.64 597.088 1109.92 597.375C1109.22 597.679 1108.64 598.109 1108.21 598.665C1107.79 599.239 1107.55 599.9 1107.5 600.648ZM1118.08 605.101L1117.95 607.097L1105.48 606.278L1105.6 604.456C1105.6 604.456 1105.75 604.45 1106.05 604.436C1106.35 604.439 1106.7 604.437 1107.1 604.43C1107.5 604.423 1107.84 604.428 1108.1 604.446L1118.08 605.101Z" fill="#6A6A6A"/>
<path d="M1122.55 612.061L1122.38 614.054L1104.94 612.571L1105.11 610.578L1122.55 612.061Z" fill="#6A6A6A"/>
<path d="M1110.68 627.243L1105.44 626.614L1104.3 636.071L1102.44 635.847L1103.82 624.405L1119.95 626.341L1118.58 637.76L1116.72 637.536L1117.85 628.104L1112.54 627.466L1111.61 635.186L1109.75 634.962L1110.68 627.243Z" fill="#6A6A6A"/>
<path d="M1106.13 638.592L1105.87 640.423C1105.15 640.371 1104.53 640.552 1104.02 640.966C1103.5 641.397 1103.18 642.075 1103.05 642.999C1102.97 643.56 1102.98 644.007 1103.08 644.342C1103.18 644.693 1103.35 644.961 1103.57 645.145C1103.81 645.331 1104.09 645.447 1104.41 645.492C1104.79 645.547 1105.1 645.49 1105.34 645.323C1105.6 645.175 1105.82 644.946 1106.02 644.637C1106.21 644.345 1106.4 644.002 1106.6 643.609C1106.85 643.157 1107.11 642.689 1107.38 642.206C1107.66 641.742 1107.98 641.307 1108.32 640.902C1108.68 640.515 1109.09 640.22 1109.54 640.015C1110 639.813 1110.53 639.754 1111.13 639.839C1111.62 639.91 1112.07 640.076 1112.47 640.335C1112.89 640.597 1113.23 640.932 1113.49 641.34C1113.76 641.767 1113.96 642.241 1114.07 642.762C1114.18 643.299 1114.19 643.873 1114.1 644.483C1113.98 645.308 1113.72 645.977 1113.3 646.491C1112.89 647.021 1112.36 647.391 1111.71 647.6C1111.07 647.828 1110.35 647.894 1109.56 647.797L1109.8 646.089C1110.56 646.08 1111.13 645.918 1111.51 645.603C1111.91 645.306 1112.15 644.827 1112.25 644.168C1112.35 643.491 1112.27 642.95 1112.03 642.545C1111.78 642.139 1111.41 641.901 1110.92 641.83C1110.55 641.778 1110.23 641.866 1109.95 642.094C1109.68 642.325 1109.41 642.633 1109.16 643.017C1108.91 643.419 1108.66 643.846 1108.39 644.296C1108.12 644.746 1107.86 645.18 1107.6 645.597C1107.34 646.014 1107.05 646.376 1106.74 646.685C1106.42 646.994 1106.05 647.218 1105.63 647.36C1105.22 647.52 1104.72 647.558 1104.15 647.475C1103.45 647.376 1102.86 647.122 1102.36 646.714C1101.88 646.325 1101.53 645.796 1101.33 645.126C1101.12 644.473 1101.08 643.701 1101.2 642.81C1101.32 642.002 1101.52 641.323 1101.8 640.774C1102.09 640.244 1102.43 639.813 1102.82 639.481C1103.22 639.151 1103.63 638.906 1104.04 638.746C1104.44 638.603 1104.83 638.524 1105.21 638.51C1105.58 638.496 1105.89 638.523 1106.13 638.592Z" fill="#6A6A6A"/>
<path d="M1112.8 651.538L1111.61 658.792L1109.76 658.49L1110.95 651.236L1112.8 651.538ZM1115.57 654.701L1115.25 656.675L1099.71 654.14L1100.03 652.166L1115.57 654.701Z" fill="#6A6A6A"/>
<path d="M1097.69 664.202C1097.87 663.235 1098.31 662.393 1099 661.675C1099.71 660.976 1100.58 660.469 1101.62 660.155C1102.68 659.861 1103.82 659.828 1105.05 660.058C1106.28 660.287 1107.33 660.738 1108.21 661.41C1109.08 662.082 1109.72 662.888 1110.12 663.828C1110.52 664.784 1110.62 665.786 1110.42 666.834C1110.21 667.981 1109.75 668.794 1109.05 669.274C1108.37 669.773 1107.52 670.039 1106.51 670.071C1105.5 670.12 1104.41 670.034 1103.23 669.814C1102.61 669.698 1101.94 669.505 1101.23 669.237C1100.53 668.971 1099.88 668.611 1099.27 668.158C1098.67 667.725 1098.21 667.181 1097.89 666.528C1097.59 665.878 1097.52 665.103 1097.69 664.202ZM1099.47 665.042C1099.31 665.878 1099.39 666.604 1099.69 667.221C1100 667.855 1100.46 668.365 1101.09 668.753C1101.73 669.144 1102.46 669.415 1103.27 669.568C1104.18 669.737 1104.99 669.744 1105.71 669.591C1106.45 669.458 1107.06 669.148 1107.54 668.661C1108.03 668.194 1108.36 667.55 1108.51 666.731C1108.74 665.503 1108.48 664.471 1107.74 663.637C1107.01 662.806 1105.99 662.269 1104.68 662.024C1103.82 661.862 1103.01 661.88 1102.26 662.079C1101.52 662.298 1100.9 662.657 1100.4 663.157C1099.92 663.677 1099.6 664.305 1099.47 665.042ZM1109.44 670.72L1109.08 672.686L1096.79 670.391L1097.12 668.597C1097.12 668.597 1097.27 668.609 1097.57 668.631C1097.87 668.67 1098.22 668.709 1098.62 668.75C1099.02 668.791 1099.35 668.836 1099.61 668.884L1109.44 670.72Z" fill="#6A6A6A"/>
<path d="M1108.33 676.324L1106.82 683.516L1104.98 683.13L1106.5 675.937L1108.33 676.324ZM1110.96 679.611L1110.55 681.568L1095.14 678.322L1095.55 676.365L1110.96 679.611Z" fill="#6A6A6A"/>
<path d="M1096.2 691.983L1095.78 693.81C1095.01 693.496 1094.36 693.039 1093.83 692.438C1093.32 691.858 1092.96 691.159 1092.75 690.342C1092.56 689.545 1092.57 688.675 1092.79 687.733C1093.05 686.597 1093.56 685.635 1094.3 684.849C1095.06 684.067 1095.98 683.517 1097.04 683.198C1098.12 682.899 1099.27 682.89 1100.49 683.171C1101.7 683.452 1102.73 683.955 1103.58 684.679C1104.42 685.42 1105.01 686.3 1105.35 687.321C1105.7 688.341 1105.74 689.412 1105.49 690.533C1105.21 691.718 1104.71 692.655 1103.99 693.344C1103.28 694.052 1102.37 694.483 1101.25 694.637C1100.15 694.811 1098.87 694.687 1097.42 694.265L1099.55 685.008C1098.74 684.905 1097.99 684.964 1097.3 685.182C1096.62 685.401 1096.04 685.763 1095.56 686.269C1095.1 686.779 1094.79 687.408 1094.62 688.155C1094.43 688.983 1094.48 689.73 1094.77 690.396C1095.07 691.082 1095.55 691.611 1096.2 691.983ZM1103.64 690.184C1103.87 689.177 1103.78 688.266 1103.35 687.449C1102.92 686.632 1102.23 685.993 1101.28 685.534L1099.63 692.672C1100.72 692.854 1101.61 692.692 1102.31 692.186C1103 691.696 1103.45 691.029 1103.64 690.184Z" fill="#6A6A6A"/>
<path d="M1086.83 762.241L1085.07 762.174L1085.17 759.441L1082.24 760.244L1081.75 758.543L1084.84 757.689L1083.06 755.003L1084.54 754.033L1086.2 756.517L1087.89 754.422L1089.27 755.52L1087.51 757.747L1090.3 758.782L1089.69 760.422L1086.95 759.405L1086.83 762.241Z" fill="#6A6A6A"/>
<path d="M1045.45 816.16L1059.77 823.851L1056.37 830.171C1055.84 831.17 1055.22 831.938 1054.54 832.477C1053.86 833.024 1053.13 833.32 1052.33 833.363C1051.52 833.422 1050.66 833.206 1049.75 832.717C1049.14 832.386 1048.66 831.999 1048.33 831.557C1048 831.129 1047.77 830.657 1047.65 830.139C1047.54 829.629 1047.54 829.088 1047.64 828.517C1047.73 827.96 1047.9 827.391 1048.16 826.809L1048.31 826.802C1047.86 827.565 1047.4 828.182 1046.94 828.653C1046.48 829.124 1045.96 829.399 1045.36 829.479C1044.77 829.558 1044.05 829.369 1043.2 828.912L1039.63 826.995L1040.58 825.233L1044.15 827.15C1044.73 827.466 1045.24 827.607 1045.68 827.575C1046.12 827.566 1046.53 827.362 1046.91 826.963C1047.31 826.587 1047.72 825.995 1048.15 825.187L1050.36 821.069L1044.51 817.922L1045.45 816.16ZM1052.02 821.956L1049.57 826.515C1049.03 827.514 1048.88 828.389 1049.12 829.142C1049.37 829.917 1049.89 830.522 1050.7 830.955C1051.48 831.373 1052.21 831.443 1052.89 831.165C1053.57 830.909 1054.18 830.282 1054.72 829.284L1057.17 824.725L1052.02 821.956Z" fill="#6A6A6A"/>
<path d="M1036.5 840.584L1035.56 842.208C1034.92 841.685 1034.43 841.059 1034.1 840.331C1033.78 839.624 1033.64 838.851 1033.68 838.01C1033.73 837.191 1033.99 836.363 1034.48 835.525C1035.06 834.514 1035.82 833.742 1036.76 833.207C1037.72 832.682 1038.76 832.421 1039.87 832.427C1040.99 832.456 1042.09 832.782 1043.17 833.406C1044.25 834.03 1045.09 834.811 1045.69 835.749C1046.27 836.702 1046.58 837.717 1046.61 838.795C1046.65 839.872 1046.38 840.909 1045.8 841.905C1045.2 842.959 1044.45 843.71 1043.55 844.158C1042.67 844.628 1041.67 844.775 1040.56 844.598C1039.46 844.443 1038.27 843.951 1037 843.122L1041.74 834.89C1040.99 834.554 1040.26 834.391 1039.54 834.401C1038.82 834.411 1038.16 834.589 1037.56 834.934C1036.97 835.288 1036.48 835.797 1036.1 836.461C1035.68 837.198 1035.51 837.927 1035.59 838.649C1035.68 839.393 1035.98 840.038 1036.5 840.584ZM1044.14 841.034C1044.66 840.139 1044.83 839.238 1044.66 838.332C1044.49 837.426 1044.01 836.614 1043.24 835.896L1039.58 842.244C1040.57 842.735 1041.47 842.84 1042.28 842.56C1043.09 842.294 1043.71 841.785 1044.14 841.034Z" fill="#6A6A6A"/>
<path d="M1027.89 846.617C1028.41 845.778 1029.11 845.146 1030.02 844.722C1030.93 844.32 1031.92 844.158 1033.01 844.235C1034.1 844.335 1035.18 844.711 1036.25 845.362C1037.31 846.014 1038.14 846.809 1038.71 847.749C1039.29 848.688 1039.6 849.668 1039.64 850.689C1039.68 851.724 1039.41 852.696 1038.86 853.607C1038.25 854.602 1037.53 855.2 1036.71 855.399C1035.89 855.621 1035 855.569 1034.05 855.241C1033.09 854.928 1032.1 854.458 1031.07 853.833C1030.53 853.502 1029.98 853.085 1029.41 852.58C1028.85 852.084 1028.37 851.516 1027.96 850.875C1027.55 850.258 1027.32 849.587 1027.25 848.863C1027.2 848.148 1027.42 847.4 1027.89 846.617ZM1029.25 848.034C1028.81 848.76 1028.62 849.466 1028.69 850.152C1028.75 850.853 1029.01 851.495 1029.45 852.079C1029.91 852.671 1030.49 853.185 1031.2 853.619C1031.99 854.097 1032.74 854.393 1033.47 854.508C1034.21 854.645 1034.89 854.572 1035.51 854.288C1036.14 854.027 1036.67 853.541 1037.11 852.83C1037.76 851.763 1037.88 850.708 1037.49 849.664C1037.1 848.629 1036.34 847.764 1035.2 847.069C1034.45 846.609 1033.69 846.338 1032.92 846.258C1032.15 846.201 1031.45 846.317 1030.8 846.606C1030.16 846.918 1029.65 847.394 1029.25 848.034ZM1036.56 856.89L1035.52 858.597L1024.85 852.081L1025.8 850.524C1025.8 850.524 1025.94 850.588 1026.21 850.716C1026.47 850.858 1026.79 851.019 1027.15 851.199C1027.5 851.379 1027.8 851.539 1028.02 851.678L1036.56 856.89Z" fill="#6A6A6A"/>
<path d="M1037.47 864.814L1036.4 866.501L1021.63 857.107L1022.71 855.42L1037.47 864.814Z" fill="#6A6A6A"/>
<path d="M1020.4 871.992L1016.05 869.015L1010.67 876.878L1009.12 875.82L1015.63 866.305L1029.04 875.476L1022.55 884.97L1021.01 883.912L1026.37 876.069L1021.95 873.05L1017.56 879.468L1016.01 878.41L1020.4 871.992Z" fill="#6A6A6A"/>
<path d="M1010.42 880.922L1009.34 882.422C1008.73 882.043 1008.1 881.918 1007.45 882.046C1006.79 882.188 1006.19 882.638 1005.65 883.395C1005.31 883.854 1005.12 884.256 1005.05 884.601C1004.98 884.959 1005 885.272 1005.11 885.54C1005.24 885.817 1005.44 886.049 1005.69 886.234C1006 886.459 1006.3 886.553 1006.6 886.518C1006.89 886.506 1007.2 886.408 1007.52 886.226C1007.82 886.057 1008.15 885.843 1008.51 885.583C1008.94 885.298 1009.39 885.005 1009.85 884.703C1010.32 884.424 1010.8 884.186 1011.29 883.987C1011.79 883.811 1012.28 883.737 1012.78 883.764C1013.29 883.802 1013.78 883.996 1014.27 884.347C1014.67 884.64 1014.99 884.994 1015.23 885.41C1015.48 885.835 1015.62 886.29 1015.66 886.772C1015.71 887.278 1015.66 887.787 1015.52 888.3C1015.36 888.826 1015.11 889.339 1014.74 889.84C1014.26 890.515 1013.71 890.985 1013.11 891.25C1012.5 891.527 1011.85 891.608 1011.18 891.49C1010.51 891.395 1009.84 891.121 1009.18 890.666L1010.19 889.268C1010.87 889.612 1011.45 889.733 1011.93 889.631C1012.42 889.552 1012.86 889.242 1013.25 888.702C1013.65 888.147 1013.84 887.634 1013.81 887.161C1013.78 886.688 1013.56 886.305 1013.16 886.013C1012.86 885.798 1012.53 885.726 1012.18 885.796C1011.83 885.875 1011.45 886.026 1011.05 886.246C1010.65 886.49 1010.22 886.75 1009.78 887.025C1009.33 887.3 1008.9 887.561 1008.47 887.809C1008.05 888.057 1007.62 888.244 1007.2 888.372C1006.78 888.5 1006.35 888.528 1005.91 888.456C1005.47 888.407 1005.01 888.212 1004.54 887.87C1003.97 887.461 1003.56 886.96 1003.31 886.368C1003.07 885.799 1003.01 885.17 1003.13 884.481C1003.25 883.805 1003.57 883.102 1004.1 882.373C1004.58 881.71 1005.07 881.201 1005.57 880.845C1006.08 880.513 1006.58 880.289 1007.08 880.173C1007.58 880.067 1008.06 880.038 1008.5 880.087C1008.92 880.149 1009.31 880.261 1009.64 880.421C1009.98 880.582 1010.24 880.749 1010.42 880.922Z" fill="#6A6A6A"/>
<path d="M1010.43 895.309L1006.02 901.189L1004.52 900.064L1008.93 894.184L1010.43 895.309ZM1011.43 899.399L1010.23 900.999L997.626 891.549L998.826 889.949L1011.43 899.399Z" fill="#6A6A6A"/>
<path d="M991.436 899.169C992.043 898.395 992.82 897.851 993.768 897.535C994.717 897.242 995.727 897.197 996.796 897.401C997.868 897.628 998.896 898.127 999.879 898.899C1000.86 899.67 1001.59 900.556 1002.05 901.557C1002.52 902.557 1002.71 903.567 1002.63 904.585C1002.54 905.617 1002.17 906.552 1001.51 907.391C1000.79 908.309 1000.01 908.819 999.165 908.92C998.325 909.045 997.452 908.889 996.544 908.453C995.627 908.029 994.696 907.447 993.752 906.706C993.254 906.315 992.751 905.836 992.243 905.268C991.748 904.71 991.335 904.09 991.003 903.405C990.674 902.745 990.52 902.051 990.539 901.325C990.571 900.609 990.87 899.89 991.436 899.169ZM992.622 900.735C992.097 901.404 991.829 902.083 991.817 902.773C991.795 903.476 991.971 904.143 992.344 904.775C992.73 905.417 993.251 905.995 993.906 906.51C994.627 907.076 995.344 907.458 996.057 907.657C996.772 907.879 997.455 907.886 998.107 907.677C998.761 907.491 999.345 907.07 999.86 906.415C1000.63 905.432 1000.88 904.398 1000.61 903.316C1000.35 902.243 999.693 901.295 998.644 900.472C997.95 899.927 997.224 899.569 996.467 899.399C995.714 899.253 995 899.285 994.325 899.497C993.653 899.733 993.085 900.145 992.622 900.735ZM998.843 910.384L997.608 911.957L987.774 904.24L988.901 902.804C988.901 902.804 989.029 902.884 989.286 903.043C989.532 903.215 989.823 903.411 990.158 903.632C990.494 903.853 990.766 904.045 990.976 904.21L998.843 910.384Z" fill="#6A6A6A"/>
<path d="M995.506 914.513L990.843 920.194L989.394 919.005L994.057 913.323L995.506 914.513ZM996.321 918.642L995.052 920.188L982.878 910.197L984.146 908.651L996.321 918.642Z" fill="#6A6A6A"/>
<path d="M976.814 923.578L975.593 925.001C975.06 924.368 974.698 923.663 974.509 922.886C974.321 922.132 974.326 921.345 974.524 920.527C974.723 919.731 975.137 918.967 975.766 918.233C976.526 917.348 977.419 916.73 978.444 916.379C979.481 916.04 980.546 915.976 981.638 916.188C982.732 916.424 983.753 916.949 984.702 917.762C985.65 918.576 986.33 919.499 986.739 920.532C987.139 921.577 987.255 922.632 987.088 923.697C986.921 924.761 986.463 925.73 985.714 926.603C984.922 927.526 984.046 928.125 983.086 928.399C982.128 928.697 981.12 928.656 980.063 928.276C979.007 927.919 977.931 927.216 976.834 926.165L983.02 918.955C982.346 918.486 981.655 918.19 980.948 918.067C980.242 917.944 979.56 917.996 978.904 918.224C978.26 918.462 977.689 918.872 977.19 919.454C976.636 920.099 976.334 920.784 976.283 921.509C976.234 922.257 976.411 922.947 976.814 923.578ZM984.243 925.439C984.915 924.655 985.252 923.801 985.252 922.88C985.253 921.958 984.937 921.072 984.305 920.222L979.535 925.781C980.413 926.447 981.279 926.717 982.132 926.593C982.975 926.481 983.678 926.097 984.243 925.439Z" fill="#6A6A6A"/>
<path d="M931.357 985.516L929.836 984.625L931.221 982.267L928.252 981.587L928.625 979.857L931.752 980.564L931.454 977.357L933.217 977.201L933.511 980.177L935.985 979.125L936.682 980.745L934.079 981.877L936.049 984.106L934.738 985.265L932.801 983.073L931.357 985.516Z" fill="#6A6A6A"/>
<path d="M857.265 1021.57L865.888 1035.34L859.806 1039.15C858.845 1039.75 857.933 1040.11 857.069 1040.24C856.214 1040.38 855.429 1040.28 854.713 1039.92C853.983 1039.57 853.344 1038.96 852.796 1038.08C852.425 1037.49 852.205 1036.92 852.137 1036.37C852.056 1035.83 852.092 1035.31 852.245 1034.8C852.407 1034.3 852.673 1033.83 853.042 1033.38C853.396 1032.95 853.829 1032.54 854.339 1032.16L854.469 1032.22C853.703 1032.66 853.002 1032.98 852.368 1033.16C851.734 1033.34 851.141 1033.32 850.588 1033.09C850.034 1032.87 849.501 1032.35 848.988 1031.53L846.839 1028.09L848.535 1027.03L850.684 1030.47C851.037 1031.03 851.41 1031.41 851.803 1031.59C852.19 1031.8 852.649 1031.83 853.181 1031.67C853.707 1031.54 854.359 1031.23 855.136 1030.75L859.099 1028.26L855.57 1022.63L857.265 1021.57ZM860.093 1029.85L855.707 1032.6C854.746 1033.2 854.183 1033.89 854.018 1034.66C853.847 1035.46 854.005 1036.24 854.491 1037.02C854.96 1037.77 855.558 1038.19 856.286 1038.28C857.009 1038.4 857.85 1038.16 858.811 1037.56L863.197 1034.81L860.093 1029.85Z" fill="#6A6A6A"/>
<path d="M837.882 1038.08L836.268 1039.03C835.967 1038.26 835.852 1037.48 835.923 1036.68C835.989 1035.9 836.247 1035.16 836.698 1034.45C837.142 1033.76 837.781 1033.17 838.613 1032.68C839.618 1032.09 840.662 1031.79 841.745 1031.79C842.837 1031.8 843.865 1032.08 844.831 1032.64C845.79 1033.21 846.588 1034.04 847.223 1035.11C847.859 1036.19 848.205 1037.28 848.26 1038.39C848.301 1039.51 848.071 1040.55 847.57 1041.5C847.069 1042.45 846.323 1043.22 845.333 1043.81C844.286 1044.43 843.263 1044.71 842.266 1044.66C841.263 1044.64 840.322 1044.27 839.444 1043.57C838.559 1042.89 837.767 1041.88 837.068 1040.53L845.247 1035.7C844.76 1035.04 844.202 1034.54 843.572 1034.19C842.943 1033.85 842.281 1033.68 841.586 1033.68C840.9 1033.7 840.227 1033.9 839.567 1034.29C838.835 1034.73 838.328 1035.28 838.047 1035.95C837.759 1036.64 837.704 1037.35 837.882 1038.08ZM844.315 1042.23C845.205 1041.71 845.798 1041.01 846.096 1040.14C846.393 1039.26 846.38 1038.32 846.055 1037.31L839.748 1041.04C840.365 1041.95 841.097 1042.49 841.945 1042.65C842.779 1042.81 843.569 1042.67 844.315 1042.23Z" fill="#6A6A6A"/>
<path d="M827.106 1039.24C827.967 1038.77 828.895 1038.57 829.89 1038.65C830.879 1038.75 831.826 1039.1 832.731 1039.71C833.629 1040.33 834.38 1041.19 834.983 1042.29C835.587 1043.38 835.908 1044.48 835.945 1045.58C835.982 1046.69 835.765 1047.69 835.295 1048.6C834.81 1049.51 834.1 1050.23 833.166 1050.74C832.145 1051.31 831.226 1051.47 830.411 1051.24C829.589 1051.02 828.846 1050.54 828.181 1049.78C827.502 1049.03 826.873 1048.13 826.293 1047.08C825.987 1046.53 825.711 1045.89 825.466 1045.17C825.228 1044.46 825.091 1043.73 825.052 1042.97C825.008 1042.23 825.136 1041.54 825.438 1040.87C825.747 1040.23 826.303 1039.68 827.106 1039.24ZM827.586 1041.15C826.841 1041.56 826.329 1042.08 826.049 1042.71C825.754 1043.35 825.655 1044.03 825.751 1044.76C825.856 1045.5 826.109 1046.23 826.512 1046.96C826.955 1047.77 827.465 1048.4 828.043 1048.86C828.615 1049.34 829.241 1049.62 829.923 1049.68C830.598 1049.76 831.3 1049.6 832.029 1049.2C833.124 1048.6 833.757 1047.74 833.929 1046.64C834.108 1045.55 833.876 1044.42 833.232 1043.26C832.806 1042.48 832.277 1041.87 831.647 1041.42C831.011 1040.99 830.341 1040.74 829.637 1040.67C828.926 1040.62 828.242 1040.78 827.586 1041.15ZM829.543 1052.46L827.792 1053.42L821.754 1042.48L823.352 1041.6C823.352 1041.6 823.439 1041.72 823.613 1041.97C823.773 1042.22 823.964 1042.52 824.186 1042.85C824.408 1043.18 824.584 1043.47 824.713 1043.7L829.543 1052.46Z" fill="#6A6A6A"/>
<path d="M826.304 1059.86L824.535 1060.79L816.367 1045.31L818.136 1044.38L826.304 1059.86Z" fill="#6A6A6A"/>
<path d="M808.006 1057.61L805.701 1052.86L797.133 1057.02L796.314 1055.34L806.68 1050.3L813.782 1064.92L803.438 1069.94L802.619 1068.26L811.163 1064.11L808.825 1059.29L801.832 1062.69L801.013 1061L808.006 1057.61Z" fill="#6A6A6A"/>
<path d="M794.97 1060.4L793.286 1061.17C792.944 1060.54 792.46 1060.12 791.834 1059.91C791.193 1059.7 790.447 1059.79 789.597 1060.18C789.081 1060.41 788.71 1060.67 788.484 1060.93C788.242 1061.21 788.105 1061.49 788.072 1061.78C788.045 1062.08 788.098 1062.38 788.229 1062.67C788.387 1063.02 788.602 1063.25 788.874 1063.36C789.137 1063.5 789.452 1063.57 789.817 1063.57C790.168 1063.57 790.56 1063.55 790.995 1063.5C791.51 1063.47 792.045 1063.43 792.598 1063.4C793.143 1063.39 793.679 1063.42 794.206 1063.5C794.724 1063.59 795.191 1063.77 795.606 1064.04C796.028 1064.33 796.363 1064.74 796.611 1065.29C796.818 1065.74 796.92 1066.21 796.917 1066.69C796.921 1067.18 796.821 1067.64 796.618 1068.08C796.407 1068.55 796.112 1068.96 795.732 1069.34C795.338 1069.72 794.86 1070.04 794.298 1070.29C793.539 1070.64 792.833 1070.77 792.179 1070.7C791.51 1070.64 790.912 1070.39 790.384 1069.95C789.847 1069.54 789.406 1068.97 789.06 1068.25L790.631 1067.54C791.047 1068.17 791.491 1068.56 791.963 1068.72C792.426 1068.89 792.962 1068.84 793.569 1068.56C794.191 1068.28 794.607 1067.93 794.817 1067.5C795.026 1067.08 795.028 1066.64 794.821 1066.18C794.67 1065.85 794.421 1065.62 794.075 1065.51C793.735 1065.4 793.335 1065.35 792.872 1065.34C792.402 1065.35 791.906 1065.36 791.383 1065.38C790.86 1065.4 790.352 1065.41 789.86 1065.41C789.368 1065.42 788.907 1065.37 788.478 1065.27C788.049 1065.18 787.661 1064.99 787.313 1064.7C786.958 1064.44 786.659 1064.05 786.418 1063.52C786.128 1062.88 786.022 1062.24 786.098 1061.6C786.166 1060.99 786.426 1060.41 786.879 1059.88C787.316 1059.35 787.944 1058.9 788.764 1058.53C789.508 1058.19 790.186 1057.99 790.8 1057.93C791.406 1057.89 791.952 1057.95 792.439 1058.09C792.932 1058.25 793.357 1058.46 793.713 1058.72C794.054 1058.99 794.33 1059.28 794.542 1059.58C794.755 1059.89 794.897 1060.16 794.97 1060.4Z" fill="#6A6A6A"/>
<path d="M787.731 1072.96L780.983 1075.88L780.24 1074.15L786.987 1071.24L787.731 1072.96ZM786.563 1077.01L784.727 1077.8L778.483 1063.34L780.32 1062.55L786.563 1077.01Z" fill="#6A6A6A"/>
<path d="M769.378 1066.88C770.29 1066.51 771.235 1066.42 772.214 1066.62C773.184 1066.84 774.082 1067.3 774.908 1068.01C775.726 1068.74 776.369 1069.68 776.839 1070.84C777.309 1072 777.496 1073.13 777.403 1074.23C777.309 1075.32 776.974 1076.3 776.4 1077.14C775.809 1077.99 775.02 1078.62 774.031 1079.02C772.95 1079.46 772.019 1079.51 771.237 1079.18C770.447 1078.87 769.766 1078.3 769.196 1077.47C768.61 1076.65 768.092 1075.68 767.641 1074.57C767.403 1073.98 767.205 1073.32 767.047 1072.57C766.895 1071.84 766.845 1071.1 766.897 1070.34C766.94 1069.6 767.15 1068.92 767.528 1068.3C767.912 1067.7 768.529 1067.22 769.378 1066.88ZM769.629 1068.83C768.841 1069.14 768.271 1069.6 767.918 1070.19C767.549 1070.79 767.37 1071.46 767.379 1072.19C767.395 1072.94 767.56 1073.7 767.873 1074.47C768.217 1075.32 768.649 1076.01 769.168 1076.54C769.679 1077.09 770.268 1077.43 770.937 1077.58C771.597 1077.74 772.314 1077.66 773.086 1077.35C774.244 1076.88 774.974 1076.11 775.275 1075.03C775.583 1073.97 775.486 1072.83 774.985 1071.59C774.654 1070.77 774.202 1070.1 773.63 1069.58C773.049 1069.08 772.413 1068.75 771.722 1068.6C771.022 1068.47 770.324 1068.54 769.629 1068.83ZM770.231 1080.29L768.377 1081.04L763.68 1069.46L765.372 1068.77C765.372 1068.77 765.443 1068.9 765.587 1069.17C765.715 1069.44 765.87 1069.76 766.051 1070.11C766.232 1070.47 766.373 1070.78 766.473 1071.02L770.231 1080.29Z" fill="#6A6A6A"/>
<path d="M765.465 1082.15L758.603 1084.79L757.931 1083.04L764.793 1080.4L765.465 1082.15ZM764.132 1086.15L762.264 1086.86L756.621 1072.16L758.488 1071.44L764.132 1086.15Z" fill="#6A6A6A"/>
<path d="M744.889 1080.72L743.124 1081.35C742.974 1080.54 743.009 1079.75 743.229 1078.98C743.439 1078.23 743.833 1077.55 744.409 1076.93C744.976 1076.34 745.715 1075.88 746.625 1075.56C747.723 1075.16 748.804 1075.07 749.868 1075.27C750.938 1075.49 751.895 1075.96 752.739 1076.69C753.572 1077.43 754.2 1078.39 754.621 1079.57C755.043 1080.75 755.176 1081.88 755.021 1082.98C754.851 1084.09 754.43 1085.06 753.758 1085.91C753.086 1086.75 752.209 1087.36 751.126 1087.75C749.981 1088.16 748.923 1088.25 747.953 1088.01C746.973 1087.8 746.117 1087.26 745.387 1086.41C744.646 1085.58 744.059 1084.43 743.626 1082.98L752.57 1079.77C752.216 1079.03 751.763 1078.43 751.209 1077.98C750.656 1077.52 750.038 1077.23 749.355 1077.1C748.678 1076.99 747.979 1077.06 747.257 1077.32C746.457 1077.61 745.855 1078.05 745.452 1078.66C745.039 1079.28 744.851 1079.97 744.889 1080.72ZM750.423 1086.01C751.396 1085.66 752.111 1085.09 752.567 1084.29C753.024 1083.49 753.188 1082.56 753.059 1081.51L746.163 1083.98C746.597 1084.99 747.215 1085.66 748.018 1085.97C748.806 1086.29 749.607 1086.3 750.423 1086.01Z" fill="#6A6A6A"/>
<path d="M640.002 1117.72L639.219 1116.14L641.672 1114.93L639.564 1112.73L640.825 1111.49L643.05 1113.8L644.562 1110.95L646.122 1111.79L644.734 1114.44L647.379 1114.92L647.072 1116.65L644.275 1116.17L644.698 1119.12L642.965 1119.36L642.55 1116.47L640.002 1117.72Z" fill="#6A6A6A"/>
<path d="M542.299 1106.55L541.484 1122.78L534.318 1122.42C533.186 1122.37 532.229 1122.14 531.448 1121.75C530.666 1121.38 530.084 1120.84 529.702 1120.14C529.303 1119.43 529.13 1118.57 529.182 1117.53C529.217 1116.83 529.363 1116.24 529.622 1115.75C529.863 1115.26 530.192 1114.86 530.609 1114.53C531.026 1114.21 531.513 1113.98 532.071 1113.82C532.613 1113.67 533.202 1113.58 533.837 1113.56L533.905 1113.69C533.025 1113.61 532.273 1113.47 531.65 1113.25C531.026 1113.04 530.552 1112.68 530.227 1112.18C529.901 1111.68 529.763 1110.95 529.811 1109.98L530.014 1105.94L532.012 1106.04L531.809 1110.08C531.775 1110.75 531.866 1111.27 532.081 1111.65C532.278 1112.04 532.639 1112.33 533.164 1112.5C533.672 1112.69 534.383 1112.81 535.299 1112.86L539.968 1113.09L540.301 1106.45L542.299 1106.55ZM539.874 1114.97L534.705 1114.71C533.573 1114.65 532.719 1114.89 532.141 1115.43C531.546 1115.98 531.225 1116.72 531.179 1117.63C531.135 1118.52 531.384 1119.2 531.927 1119.7C532.452 1120.21 533.28 1120.49 534.412 1120.55L539.581 1120.81L539.874 1114.97Z" fill="#6A6A6A"/>
<path d="M516.787 1108.95L514.918 1108.81C515.113 1108 515.469 1107.29 515.984 1106.68C516.482 1106.08 517.119 1105.62 517.897 1105.3C518.656 1104.99 519.518 1104.87 520.481 1104.95C521.645 1105.04 522.67 1105.39 523.558 1106.01C524.445 1106.65 525.126 1107.47 525.6 1108.48C526.056 1109.5 526.235 1110.63 526.139 1111.88C526.043 1113.13 525.699 1114.22 525.108 1115.16C524.501 1116.1 523.718 1116.82 522.76 1117.31C521.803 1117.8 520.751 1118.01 519.604 1117.92C518.391 1117.82 517.39 1117.47 516.602 1116.86C515.795 1116.26 515.233 1115.42 514.915 1114.35C514.58 1113.28 514.512 1112 514.712 1110.49L524.183 1111.23C524.163 1110.41 523.994 1109.67 523.676 1109.03C523.358 1108.39 522.913 1107.87 522.342 1107.47C521.77 1107.1 521.101 1106.88 520.337 1106.82C519.489 1106.75 518.758 1106.91 518.143 1107.3C517.51 1107.7 517.058 1108.25 516.787 1108.95ZM519.674 1116.04C520.704 1116.12 521.591 1115.89 522.335 1115.35C523.08 1114.8 523.608 1114.02 523.92 1113.01L516.617 1112.45C516.599 1113.55 516.892 1114.41 517.496 1115.02C518.084 1115.64 518.81 1115.98 519.674 1116.04Z" fill="#6A6A6A"/>
<path d="M507.514 1103.73C508.492 1103.84 509.366 1104.2 510.138 1104.84C510.892 1105.49 511.467 1106.32 511.863 1107.33C512.242 1108.36 512.366 1109.49 512.236 1110.74C512.107 1111.98 511.742 1113.07 511.142 1113.99C510.543 1114.92 509.791 1115.62 508.887 1116.09C507.966 1116.57 506.975 1116.75 505.914 1116.64C504.754 1116.52 503.906 1116.13 503.372 1115.47C502.819 1114.82 502.486 1114 502.373 1113C502.243 1112 502.24 1110.9 502.365 1109.71C502.431 1109.08 502.569 1108.4 502.78 1107.66C502.989 1106.95 503.294 1106.27 503.697 1105.62C504.081 1104.99 504.586 1104.49 505.211 1104.12C505.834 1103.77 506.602 1103.64 507.514 1103.73ZM506.819 1105.57C505.973 1105.48 505.256 1105.62 504.665 1105.97C504.058 1106.33 503.587 1106.83 503.251 1107.49C502.913 1108.15 502.7 1108.9 502.614 1109.73C502.519 1110.64 502.576 1111.45 502.787 1112.16C502.98 1112.89 503.338 1113.47 503.862 1113.91C504.367 1114.36 505.034 1114.64 505.863 1114.72C507.106 1114.85 508.114 1114.51 508.885 1113.71C509.655 1112.91 510.109 1111.86 510.247 1110.53C510.339 1109.65 510.256 1108.85 509.997 1108.12C509.72 1107.4 509.312 1106.81 508.773 1106.35C508.216 1105.91 507.565 1105.65 506.819 1105.57ZM501.962 1115.97L499.973 1115.77L501.271 1103.33L503.087 1103.52C503.087 1103.52 503.088 1103.67 503.09 1103.98C503.075 1104.28 503.063 1104.63 503.055 1105.03C503.047 1105.43 503.029 1105.76 503.001 1106.03L501.962 1115.97Z" fill="#6A6A6A"/>
<path d="M495.035 1120.16L493.05 1119.92L495.203 1102.55L497.188 1102.8L495.035 1120.16Z" fill="#6A6A6A"/>
<path d="M481.35 1107.83L482.179 1102.62L472.773 1101.12L473.067 1099.27L484.449 1101.08L481.895 1117.13L470.538 1115.32L470.832 1113.47L480.214 1114.96L481.055 1109.68L473.377 1108.46L473.672 1106.61L481.35 1107.83Z" fill="#6A6A6A"/>
<path d="M469.106 1102.64L467.286 1102.3C467.366 1101.59 467.208 1100.97 466.814 1100.44C466.403 1099.91 465.738 1099.56 464.82 1099.39C464.263 1099.29 463.815 1099.28 463.476 1099.37C463.122 1099.46 462.848 1099.61 462.655 1099.83C462.46 1100.07 462.334 1100.34 462.277 1100.65C462.208 1101.03 462.252 1101.34 462.41 1101.59C462.548 1101.85 462.768 1102.09 463.069 1102.3C463.353 1102.5 463.689 1102.71 464.074 1102.91C464.517 1103.18 464.974 1103.46 465.447 1103.75C465.899 1104.05 466.322 1104.38 466.713 1104.74C467.086 1105.11 467.366 1105.53 467.553 1105.99C467.737 1106.46 467.776 1106.99 467.668 1107.58C467.578 1108.08 467.396 1108.52 467.121 1108.91C466.843 1109.31 466.496 1109.64 466.078 1109.89C465.641 1110.14 465.16 1110.32 464.635 1110.41C464.094 1110.5 463.52 1110.49 462.913 1110.37C462.094 1110.22 461.435 1109.94 460.938 1109.51C460.424 1109.07 460.075 1108.53 459.89 1107.87C459.687 1107.22 459.649 1106.5 459.776 1105.71L461.473 1106.02C461.453 1106.78 461.593 1107.35 461.894 1107.75C462.175 1108.16 462.644 1108.42 463.3 1108.54C463.972 1108.66 464.515 1108.61 464.93 1108.38C465.345 1108.15 465.597 1107.79 465.687 1107.3C465.753 1106.94 465.677 1106.61 465.46 1106.32C465.239 1106.04 464.942 1105.76 464.568 1105.49C464.175 1105.23 463.759 1104.96 463.319 1104.68C462.88 1104.4 462.457 1104.12 462.05 1103.84C461.643 1103.56 461.292 1103.26 460.995 1102.93C460.699 1102.61 460.488 1102.23 460.364 1101.8C460.219 1101.39 460.2 1100.89 460.305 1100.32C460.431 1099.63 460.707 1099.04 461.134 1098.56C461.541 1098.09 462.083 1097.77 462.76 1097.59C463.421 1097.4 464.194 1097.39 465.079 1097.56C465.883 1097.7 466.553 1097.93 467.091 1098.23C467.609 1098.54 468.027 1098.9 468.344 1099.3C468.659 1099.71 468.888 1100.12 469.032 1100.54C469.16 1100.95 469.223 1101.35 469.223 1101.72C469.223 1102.09 469.184 1102.4 469.106 1102.64Z" fill="#6A6A6A"/>
<path d="M455.984 1108.78L448.78 1107.33L449.153 1105.49L456.356 1106.95L455.984 1108.78ZM452.717 1111.44L450.756 1111.04L453.885 1095.61L455.845 1096L452.717 1111.44Z" fill="#6A6A6A"/>
<path d="M444.42 1093.28C445.379 1093.5 446.204 1093.97 446.895 1094.69C447.566 1095.42 448.039 1096.31 448.313 1097.37C448.567 1098.43 448.556 1099.58 448.28 1100.79C448.004 1102.01 447.513 1103.05 446.808 1103.9C446.103 1104.74 445.274 1105.35 444.319 1105.72C443.349 1106.08 442.344 1106.14 441.303 1105.9C440.165 1105.65 439.37 1105.16 438.918 1104.44C438.445 1103.74 438.212 1102.88 438.218 1101.87C438.208 1100.86 438.335 1099.77 438.6 1098.6C438.74 1097.98 438.958 1097.32 439.254 1096.62C439.546 1095.94 439.93 1095.3 440.406 1094.7C440.862 1094.12 441.423 1093.69 442.087 1093.39C442.748 1093.12 443.526 1093.08 444.42 1093.28ZM443.512 1095.02C442.683 1094.84 441.955 1094.88 441.326 1095.17C440.681 1095.45 440.153 1095.89 439.742 1096.5C439.328 1097.13 439.028 1097.84 438.844 1098.66C438.641 1099.55 438.603 1100.36 438.728 1101.09C438.834 1101.83 439.12 1102.45 439.588 1102.95C440.036 1103.46 440.667 1103.81 441.479 1104C442.698 1104.27 443.739 1104.06 444.6 1103.34C445.458 1102.65 446.035 1101.65 446.329 1100.35C446.525 1099.49 446.537 1098.68 446.367 1097.93C446.176 1097.18 445.841 1096.55 445.36 1096.03C444.86 1095.53 444.244 1095.19 443.512 1095.02ZM437.457 1104.78L435.507 1104.33L438.269 1092.14L440.049 1092.55C440.049 1092.55 440.032 1092.7 439.998 1093C439.948 1093.29 439.895 1093.64 439.839 1094.04C439.784 1094.44 439.726 1094.76 439.667 1095.02L437.457 1104.78Z" fill="#6A6A6A"/>
<path d="M432.347 1103.54L425.218 1101.75L425.674 1099.93L432.803 1101.72L432.347 1103.54ZM428.962 1106.04L427.022 1105.55L430.852 1090.27L432.792 1090.76L428.962 1106.04Z" fill="#6A6A6A"/>
<path d="M416.362 1090.56L414.554 1090.07C414.9 1089.31 415.383 1088.69 416.006 1088.18C416.607 1087.69 417.321 1087.36 418.146 1087.19C418.95 1087.03 419.818 1087.08 420.75 1087.34C421.875 1087.65 422.815 1088.19 423.569 1088.97C424.318 1089.76 424.83 1090.7 425.104 1091.78C425.357 1092.86 425.318 1094.01 424.987 1095.22C424.655 1096.42 424.11 1097.43 423.351 1098.24C422.576 1099.05 421.671 1099.6 420.637 1099.91C419.603 1100.21 418.532 1100.21 417.423 1099.9C416.25 1099.58 415.334 1099.04 414.677 1098.29C413.999 1097.55 413.606 1096.62 413.499 1095.51C413.371 1094.4 413.549 1093.13 414.031 1091.69L423.191 1094.2C423.327 1093.4 423.3 1092.64 423.11 1091.95C422.92 1091.26 422.583 1090.67 422.097 1090.17C421.607 1089.69 420.992 1089.35 420.253 1089.14C419.433 1088.92 418.685 1088.94 418.007 1089.2C417.31 1089.48 416.761 1089.93 416.362 1090.56ZM417.848 1098.08C418.844 1098.35 419.759 1098.29 420.593 1097.9C421.427 1097.51 422.094 1096.84 422.593 1095.91L415.53 1093.96C415.303 1095.04 415.427 1095.94 415.904 1096.66C416.364 1097.37 417.012 1097.85 417.848 1098.08Z" fill="#6A6A6A"/>
<path d="M303.057 1057.5L303.346 1055.76L306.044 1056.21L305.618 1053.19L307.367 1052.92L307.824 1056.1L310.712 1054.67L311.488 1056.26L308.814 1057.6L310.679 1059.54L309.416 1060.77L307.429 1058.74L306.05 1061.38L304.499 1060.56L305.855 1057.97L303.057 1057.5Z" fill="#6A6A6A"/>
<path d="M226.823 988.61L216.56 1001.21L210.997 996.677C210.119 995.961 209.48 995.215 209.081 994.438C208.671 993.674 208.52 992.896 208.629 992.103C208.724 991.3 209.098 990.497 209.751 989.696C210.193 989.153 210.663 988.762 211.159 988.522C211.643 988.271 212.151 988.136 212.682 988.117C213.202 988.112 213.734 988.211 214.276 988.417C214.805 988.611 215.331 988.889 215.854 989.25L215.833 989.395C215.169 988.811 214.65 988.248 214.275 987.706C213.899 987.164 213.729 986.595 213.763 985.999C213.796 985.403 214.119 984.731 214.729 983.981L217.287 980.841L218.838 982.104L216.28 985.244C215.859 985.761 215.623 986.235 215.572 986.667C215.498 987.101 215.62 987.545 215.939 987.998C216.234 988.453 216.737 988.971 217.448 989.55L221.073 992.502L225.273 987.346L226.823 988.61ZM219.889 993.956L215.876 990.687C214.998 989.972 214.166 989.66 213.382 989.752C212.574 989.846 211.881 990.249 211.302 990.959C210.744 991.644 210.537 992.346 210.682 993.066C210.803 993.788 211.303 994.507 212.182 995.223L216.194 998.491L219.889 993.956Z" fill="#6A6A6A"/>
<path d="M204.766 975.366L203.348 974.14C203.983 973.61 204.689 973.251 205.467 973.064C206.222 972.879 207.008 972.887 207.826 973.088C208.621 973.29 209.384 973.707 210.115 974.339C210.998 975.102 211.613 975.996 211.959 977.023C212.295 978.062 212.354 979.127 212.139 980.218C211.899 981.311 211.371 982.33 210.553 983.276C209.736 984.221 208.81 984.897 207.776 985.303C206.73 985.699 205.675 985.811 204.611 985.64C203.546 985.47 202.579 985.008 201.709 984.256C200.789 983.461 200.193 982.582 199.922 981.621C199.628 980.662 199.673 979.654 200.057 978.598C200.417 977.544 201.125 976.471 202.179 975.378L209.367 981.589C209.838 980.917 210.136 980.228 210.262 979.521C210.388 978.815 210.338 978.133 210.113 977.476C209.877 976.832 209.469 976.259 208.889 975.757C208.246 975.202 207.562 974.897 206.837 974.843C206.089 974.792 205.399 974.966 204.766 975.366ZM202.879 982.789C203.66 983.464 204.512 983.804 205.434 983.808C206.356 983.812 207.243 983.499 208.095 982.87L202.553 978.08C201.885 978.956 201.611 979.821 201.732 980.674C201.841 981.517 202.223 982.222 202.879 982.789Z" fill="#6A6A6A"/>
<path d="M200.468 965.763C201.195 966.424 201.682 967.239 201.928 968.207C202.151 969.175 202.122 970.186 201.841 971.237C201.537 972.29 200.964 973.278 200.123 974.203C199.282 975.128 198.346 975.785 197.314 976.176C196.283 976.567 195.262 976.686 194.252 976.533C193.229 976.369 192.324 975.928 191.535 975.211C190.672 974.426 190.22 973.609 190.18 972.762C190.116 971.915 190.335 971.055 190.837 970.182C191.326 969.298 191.974 968.412 192.782 967.524C193.208 967.056 193.723 966.589 194.326 966.124C194.918 965.671 195.567 965.304 196.274 965.023C196.957 964.743 197.659 964.639 198.383 964.711C199.094 964.795 199.789 965.146 200.468 965.763ZM198.819 966.832C198.19 966.26 197.532 965.943 196.845 965.881C196.146 965.808 195.467 965.934 194.81 966.26C194.142 966.599 193.527 967.076 192.967 967.692C192.35 968.37 191.916 969.058 191.666 969.754C191.392 970.451 191.336 971.132 191.497 971.797C191.635 972.463 192.012 973.076 192.628 973.637C193.553 974.478 194.565 974.802 195.665 974.608C196.754 974.427 197.747 973.843 198.644 972.857C199.238 972.204 199.648 971.506 199.872 970.764C200.073 970.023 200.092 969.308 199.93 968.62C199.744 967.932 199.374 967.336 198.819 966.832ZM188.744 972.334L187.265 970.988L195.676 961.742L197.026 962.97C197.026 962.97 196.937 963.092 196.76 963.336C196.571 963.57 196.354 963.845 196.109 964.164C195.865 964.482 195.653 964.74 195.473 964.937L188.744 972.334Z" fill="#6A6A6A"/>
<path d="M180.359 971.317L178.909 969.939L190.965 957.254L192.415 958.632L180.359 971.317Z" fill="#6A6A6A"/>
<path d="M176.642 953.277L180.399 949.575L173.713 942.791L175.048 941.474L183.138 949.683L171.565 961.09L163.492 952.899L164.828 951.583L171.496 958.349L175.307 954.594L169.849 949.056L171.184 947.74L176.642 953.277Z" fill="#6A6A6A"/>
<path d="M170.251 942.264L168.982 940.918C169.469 940.39 169.71 939.796 169.706 939.135C169.69 938.463 169.362 937.787 168.721 937.108C168.332 936.696 167.975 936.426 167.648 936.299C167.31 936.159 166.999 936.121 166.714 936.183C166.417 936.257 166.154 936.403 165.923 936.62C165.645 936.883 165.495 937.162 165.475 937.456C165.431 937.749 165.469 938.069 165.588 938.414C165.696 938.748 165.845 939.111 166.034 939.506C166.232 939.983 166.436 940.479 166.645 940.992C166.831 941.504 166.975 942.021 167.078 942.543C167.157 943.064 167.136 943.564 167.016 944.044C166.884 944.536 166.6 944.987 166.163 945.399C165.8 945.742 165.392 945.99 164.939 946.141C164.475 946.305 164.001 946.362 163.519 946.312C163.014 946.262 162.523 946.118 162.046 945.881C161.558 945.631 161.103 945.281 160.68 944.833C160.108 944.227 159.749 943.603 159.602 942.962C159.444 942.309 159.487 941.662 159.729 941.02C159.949 940.378 160.343 939.777 160.914 939.216L162.098 940.47C161.632 941.07 161.404 941.617 161.413 942.113C161.399 942.608 161.62 943.097 162.078 943.582C162.547 944.079 163.016 944.358 163.486 944.419C163.956 944.48 164.373 944.339 164.736 943.996C165.003 943.744 165.136 943.435 165.135 943.07C165.121 942.716 165.044 942.319 164.904 941.878C164.74 941.437 164.565 940.972 164.379 940.484C164.192 939.995 164.018 939.518 163.854 939.054C163.691 938.589 163.586 938.138 163.54 937.7C163.494 937.263 163.547 936.834 163.701 936.414C163.831 935.993 164.108 935.583 164.533 935.183C165.042 934.702 165.611 934.395 166.24 934.26C166.845 934.124 167.474 934.183 168.127 934.438C168.768 934.681 169.398 935.129 170.015 935.784C170.576 936.378 170.983 936.956 171.238 937.517C171.469 938.078 171.595 938.613 171.616 939.12C171.625 939.639 171.564 940.109 171.434 940.53C171.292 940.938 171.111 941.292 170.89 941.593C170.669 941.893 170.456 942.116 170.251 942.264Z" fill="#6A6A6A"/>
<path d="M155.681 939.09L150.755 933.635L152.146 932.378L157.072 937.833L155.681 939.09ZM151.476 939.283L150.135 937.798L161.824 927.242L163.165 928.727L151.476 939.283Z" fill="#6A6A6A"/>
<path d="M155.549 919.757C156.192 920.501 156.578 921.368 156.707 922.358C156.812 923.347 156.662 924.346 156.258 925.356C155.83 926.365 155.143 927.278 154.197 928.095C153.251 928.913 152.243 929.454 151.172 929.718C150.101 929.983 149.074 929.979 148.089 929.707C147.094 929.421 146.247 928.875 145.55 928.068C144.787 927.186 144.436 926.321 144.498 925.475C144.536 924.627 144.856 923.799 145.458 922.992C146.05 922.173 146.8 921.371 147.707 920.586C148.187 920.172 148.754 919.77 149.408 919.381C150.05 919.002 150.739 918.715 151.474 918.521C152.185 918.324 152.895 918.305 153.605 918.463C154.301 918.632 154.949 919.063 155.549 919.757ZM153.784 920.621C153.229 919.978 152.613 919.585 151.938 919.441C151.253 919.285 150.564 919.329 149.873 919.574C149.169 919.83 148.501 920.23 147.871 920.775C147.177 921.375 146.665 922.005 146.333 922.666C145.978 923.326 145.84 923.995 145.921 924.675C145.978 925.352 146.279 926.006 146.824 926.637C147.641 927.583 148.607 928.025 149.722 927.965C150.825 927.915 151.881 927.454 152.889 926.582C153.558 926.005 154.048 925.361 154.359 924.651C154.648 923.939 154.752 923.232 154.673 922.529C154.571 921.825 154.275 921.189 153.784 920.621ZM143.123 924.878L141.816 923.365L151.273 915.192L152.466 916.573C152.466 916.573 152.364 916.683 152.159 916.905C151.942 917.113 151.694 917.361 151.413 917.648C151.132 917.935 150.891 918.165 150.689 918.34L143.123 924.878Z" fill="#6A6A6A"/>
<path d="M139.72 920.856L135.036 915.192L136.481 913.997L141.165 919.662L139.72 920.856ZM135.51 920.866L134.236 919.324L146.374 909.288L147.649 910.83L135.51 920.866Z" fill="#6A6A6A"/>
<path d="M134.849 901.39L133.681 899.924C134.403 899.519 135.163 899.297 135.962 899.257C136.738 899.214 137.51 899.367 138.277 899.715C139.02 900.06 139.693 900.61 140.296 901.366C141.023 902.279 141.462 903.271 141.613 904.344C141.751 905.427 141.614 906.485 141.201 907.518C140.764 908.547 140.056 909.452 139.079 910.231C138.101 911.009 137.067 911.503 135.976 911.712C134.874 911.907 133.816 911.823 132.802 911.459C131.787 911.095 130.922 910.464 130.206 909.564C129.447 908.612 129.024 907.639 128.935 906.645C128.822 905.648 129.052 904.666 129.624 903.698C130.173 902.729 131.066 901.804 132.304 900.924L138.224 908.355C138.81 907.781 139.231 907.158 139.485 906.487C139.739 905.816 139.816 905.137 139.715 904.45C139.602 903.773 139.307 903.134 138.829 902.535C138.3 901.87 137.684 901.444 136.981 901.258C136.255 901.069 135.545 901.113 134.849 901.39ZM131.625 908.337C132.269 909.145 133.044 909.636 133.949 909.81C134.855 909.984 135.784 909.84 136.738 909.378L132.174 903.649C131.355 904.387 130.926 905.186 130.888 906.048C130.84 906.896 131.085 907.659 131.625 908.337Z" fill="#6A6A6A"/>
<path d="M86.4675 851.611L87.6103 850.268L89.6909 852.044L90.8779 849.239L92.5168 849.908L91.2752 852.863L94.4845 853.129L94.3311 854.893L91.3494 854.663L91.9532 857.283L90.237 857.686L89.5764 854.926L87.0375 856.477L86.1254 854.983L88.6216 853.459L86.4675 851.611Z" fill="#6A6A6A"/>
<path d="M69.5114 785.085L54.5927 791.527L51.7484 784.94C51.2991 783.9 51.0766 782.943 51.0808 782.07C51.0697 781.203 51.2952 780.443 51.7574 779.79C52.213 779.121 52.9151 778.582 53.8638 778.172C54.5064 777.895 55.1035 777.764 55.655 777.78C56.2 777.78 56.7124 777.895 57.1923 778.124C57.6568 778.359 58.0823 778.692 58.4686 779.125C58.8484 779.542 59.1867 780.031 59.4837 780.592L59.3987 780.711C59.0791 779.887 58.878 779.148 58.7952 778.493C58.7124 777.839 58.8236 777.256 59.1286 776.743C59.4335 776.23 60.0298 775.782 60.9172 775.399L64.6354 773.793L65.4283 775.629L61.7101 777.235C61.098 777.499 60.6699 777.811 60.4258 778.171C60.1598 778.521 60.0636 778.971 60.1373 779.521C60.1891 780.061 60.3967 780.752 60.7601 781.594L62.6134 785.885L68.7185 783.249L69.5114 785.085ZM60.892 786.629L58.8405 781.878C58.3912 780.837 57.7975 780.177 57.0592 779.897C56.299 779.608 55.4982 779.645 54.6566 780.008C53.8456 780.358 53.3382 780.886 53.1344 781.591C52.9087 782.288 53.0205 783.156 53.4698 784.197L55.5213 788.948L60.892 786.629Z" fill="#6A6A6A"/>
<path d="M55.8963 762.817L55.2049 761.074C56.0131 760.897 56.8054 760.905 57.5817 761.099C58.3363 761.284 59.0301 761.654 59.663 762.21C60.2743 762.756 60.7582 763.479 61.1147 764.377C61.5449 765.462 61.6766 766.539 61.5095 767.61C61.327 768.686 60.8879 769.658 60.1922 770.526C59.4749 771.384 58.5353 772.044 57.3734 772.505C56.2115 772.966 55.0783 773.138 53.9737 773.02C52.863 772.887 51.8752 772.499 51.0105 771.856C50.1457 771.213 49.5012 770.357 49.0771 769.288C48.6284 768.157 48.506 767.103 48.7099 766.125C48.8922 765.139 49.3976 764.266 50.226 763.507C51.0329 762.738 52.1565 762.113 53.597 761.631L57.1006 770.462C57.8289 770.083 58.4121 769.61 58.8501 769.041C59.288 768.473 59.5591 767.846 59.6631 767.159C59.7517 766.478 59.6546 765.782 59.3718 765.069C59.0584 764.279 58.5927 763.693 57.9748 763.31C57.3352 762.918 56.6424 762.754 55.8963 762.817ZM50.7923 768.527C51.1734 769.487 51.7719 770.182 52.5877 770.612C53.4036 771.041 54.3348 771.174 55.3813 771.009L52.6799 764.201C51.6821 764.668 51.0396 765.309 50.7526 766.122C50.4594 766.92 50.4727 767.721 50.7923 768.527Z" fill="#6A6A6A"/>
<path d="M56.5058 752.32C56.8443 753.243 56.8988 754.191 56.6693 755.162C56.4185 756.124 55.9253 757.006 55.1899 757.808C54.433 758.601 53.4678 759.212 52.2942 759.642C51.1207 760.073 49.9862 760.223 48.8908 760.092C47.7955 759.961 46.8355 759.594 46.0108 758.991C45.1804 758.372 44.5816 757.562 44.2144 756.561C43.8127 755.465 43.7903 754.533 44.1471 753.763C44.4824 752.983 45.0744 752.322 45.9231 751.78C46.766 751.223 47.7507 750.737 48.8774 750.324C49.472 750.106 50.1443 749.931 50.8944 749.798C51.6288 749.67 52.3742 749.646 53.1305 749.723C53.8654 749.791 54.5367 750.024 55.1444 750.423C55.7364 750.827 56.1902 751.459 56.5058 752.32ZM54.5498 752.505C54.2572 751.707 53.8206 751.121 53.24 750.748C52.6538 750.36 51.9939 750.158 51.2606 750.143C50.5116 750.133 49.7458 750.272 48.9635 750.559C48.1028 750.874 47.4005 751.283 46.8565 751.784C46.2911 752.276 45.926 752.853 45.7611 753.517C45.5749 754.171 45.6253 754.89 45.9122 755.672C46.3425 756.845 47.09 757.601 48.1546 757.938C49.2035 758.282 50.3539 758.224 51.6057 757.765C52.435 757.461 53.1209 757.032 53.6634 756.478C54.1845 755.914 54.5324 755.289 54.7071 754.604C54.8604 753.909 54.808 753.209 54.5498 752.505ZM43.072 752.719L42.3835 750.841L54.1194 746.538L54.7477 748.252C54.7477 748.252 54.6126 748.319 54.3424 748.453C54.0665 748.572 53.7465 748.716 53.3824 748.885C53.0183 749.054 52.7111 749.185 52.4608 749.276L43.072 752.719Z" fill="#6A6A6A"/>
<path d="M36.295 748.518L35.6419 746.627L52.1825 740.913L52.8356 742.803L36.295 748.518Z" fill="#6A6A6A"/>
<path d="M41.2123 730.495L46.2537 728.943L43.4506 719.839L45.2426 719.288L48.6343 730.302L33.1039 735.085L29.7195 724.094L31.5115 723.542L34.3073 732.621L39.4204 731.047L37.1322 723.616L38.9242 723.064L41.2123 730.495Z" fill="#6A6A6A"/>
<path d="M40.3589 716.905L39.8614 715.123C40.5383 714.882 41.0284 714.469 41.3319 713.882C41.6309 713.28 41.6549 712.529 41.404 711.63C41.2516 711.084 41.0606 710.679 40.831 710.414C40.5969 710.133 40.3393 709.954 40.0582 709.877C39.761 709.804 39.4599 709.811 39.1549 709.896C38.7857 709.999 38.5236 710.176 38.3687 710.427C38.1932 710.666 38.0781 710.966 38.0232 711.328C37.9639 711.673 37.926 712.064 37.9097 712.502C37.863 713.016 37.8129 713.549 37.7591 714.101C37.6849 714.641 37.5718 715.165 37.4199 715.675C37.2475 716.173 36.9964 716.607 36.6668 716.975C36.3211 717.349 35.8593 717.616 35.2814 717.777C34.7998 717.912 34.3235 717.941 33.8523 717.865C33.3651 717.793 32.9197 717.623 32.5161 717.355C32.092 717.076 31.7244 716.72 31.4134 716.288C31.0979 715.839 30.8573 715.318 30.6914 714.724C30.4674 713.921 30.4397 713.202 30.6084 712.567C30.7726 711.916 31.1114 711.362 31.6247 710.908C32.1174 710.441 32.7469 710.093 33.5129 709.861L33.9767 711.523C33.2857 711.837 32.829 712.215 32.6065 712.658C32.3635 713.089 32.3316 713.626 32.5108 714.268C32.6946 714.926 32.9802 715.392 33.3677 715.664C33.7553 715.937 34.1899 716.006 34.6714 715.871C35.0246 715.773 35.2857 715.561 35.4548 715.237C35.6079 714.918 35.7247 714.53 35.8053 714.075C35.8654 713.609 35.9267 713.116 35.9894 712.596C36.0521 712.077 36.1193 711.574 36.1909 711.087C36.2626 710.599 36.3797 710.151 36.5425 709.743C36.7052 709.334 36.9524 708.979 37.2838 708.679C37.5948 708.367 38.0312 708.133 38.5931 707.976C39.2673 707.788 39.9141 707.78 40.5335 707.954C41.1323 708.115 41.6613 708.461 42.1206 708.99C42.5753 709.503 42.9237 710.193 43.1657 711.06C43.3853 711.847 43.4772 712.548 43.4414 713.164C43.385 713.768 43.2479 714.299 43.0299 714.758C42.7958 715.221 42.5233 715.609 42.2124 715.921C41.8969 716.216 41.5716 716.446 41.2364 716.608C40.9011 716.771 40.6086 716.87 40.3589 716.905Z" fill="#6A6A6A"/>
<path d="M29.0782 707.907L27.2366 700.791L29.0518 700.322L30.8934 707.437L29.0782 707.907ZM25.2616 706.132L24.7605 704.195L40.0082 700.249L40.5093 702.185L25.2616 706.132Z" fill="#6A6A6A"/>
<path d="M38.1971 691.918C38.4254 692.874 38.3687 693.822 38.0271 694.76C37.6655 695.686 37.0726 696.504 36.2484 697.215C35.4041 697.913 34.374 698.407 33.1581 698.698C31.9423 698.988 30.7981 699.004 29.7255 698.746C28.653 698.487 27.7425 698.011 26.994 697.316C26.2417 696.604 25.7417 695.73 25.4941 694.692C25.2233 693.557 25.3101 692.628 25.7545 691.905C26.1787 691.17 26.844 690.583 27.7501 690.144C28.6525 689.689 29.6872 689.322 30.8545 689.044C31.4705 688.897 32.1588 688.801 32.9192 688.756C33.6635 688.716 34.4066 688.779 35.1487 688.944C35.8706 689.097 36.5101 689.407 37.067 689.874C37.6076 690.345 37.9844 691.026 38.1971 691.918ZM36.233 691.872C36.0357 691.046 35.6705 690.413 35.1376 689.975C34.6008 689.52 33.9691 689.243 33.2425 689.142C32.4998 689.045 31.7231 689.093 30.9125 689.287C30.0209 689.5 29.2756 689.823 28.6767 690.257C28.0577 690.679 27.6275 691.21 27.3862 691.85C27.1248 692.478 27.0908 693.197 27.2842 694.008C27.5743 695.224 28.2283 696.061 29.2461 696.521C30.2477 696.985 31.397 697.062 32.6939 696.752C33.5531 696.547 34.2845 696.201 34.888 695.715C35.4714 695.216 35.89 694.636 36.1437 693.976C36.3773 693.303 36.407 692.602 36.233 691.872ZM24.8089 690.743L24.3447 688.798L36.5033 685.897L36.9269 687.672C36.9269 687.672 36.7848 687.723 36.5008 687.825C36.2128 687.911 35.8782 688.016 35.4969 688.141C35.1155 688.267 34.7952 688.36 34.5358 688.422L24.8089 690.743Z" fill="#6A6A6A"/>
<path d="M23.5718 685.281L22.0297 678.095L23.863 677.701L25.4051 684.888L23.5718 685.281ZM19.8329 683.348L19.4133 681.392L34.8127 678.087L35.2324 680.043L19.8329 683.348Z" fill="#6A6A6A"/>
<path d="M27.9973 664.448L27.646 662.606C28.4732 662.584 29.2498 662.741 29.9757 663.078C30.6821 663.401 31.2939 663.895 31.811 664.56C32.3085 665.212 32.6479 666.012 32.829 666.962C33.0476 668.108 32.9742 669.191 32.6088 670.211C32.227 671.234 31.6129 672.106 30.7664 672.827C29.9004 673.535 28.8535 674.006 27.6256 674.241C26.3977 674.475 25.2524 674.43 24.1897 674.107C23.1239 673.767 22.2267 673.2 21.4984 672.406C20.77 671.612 20.2981 670.65 20.0826 669.52C19.8547 668.325 19.9327 667.267 20.3169 666.345C20.6815 665.41 21.3421 664.648 22.2985 664.058C23.2355 663.456 24.4567 663.053 25.9621 662.851L27.742 672.182C28.5286 671.948 29.1904 671.592 29.7275 671.117C30.2645 670.641 30.6487 670.075 30.8801 669.421C31.0951 668.769 31.1308 668.066 30.9872 667.313C30.8279 666.478 30.4808 665.815 29.9459 665.323C29.3914 664.818 28.7419 664.526 27.9973 664.448ZM21.9104 669.095C22.104 670.11 22.561 670.905 23.2816 671.481C24.0021 672.056 24.8917 672.361 25.9505 672.397L24.5781 665.202C23.51 665.473 22.7586 665.981 22.3237 666.726C21.8858 667.454 21.748 668.244 21.9104 669.095Z" fill="#6A6A6A"/>
<path d="M7.41355 576.88L9.07308 576.285L9.99301 578.861L12.4192 577.019L13.5073 578.416L10.9589 580.36L13.6093 582.189L12.5981 583.642L10.1267 581.958L9.34594 584.53L7.65669 584.026L8.45843 581.303L5.48452 581.383L5.43724 579.634L8.36117 579.555L7.41355 576.88Z" fill="#6A6A6A"/>
<path d="M27.2993 496.061L11.2053 493.815L12.1972 486.709C12.3538 485.586 12.6608 484.653 13.118 483.909C13.5587 483.163 14.1463 482.631 14.8806 482.312C15.6173 481.978 16.4974 481.882 17.5208 482.025C18.2141 482.121 18.7922 482.32 19.2551 482.62C19.7204 482.904 20.0987 483.268 20.39 483.712C20.6648 484.155 20.855 484.661 20.9606 485.231C21.0684 485.784 21.1033 486.378 21.0653 487.012L20.9311 487.069C21.0863 486.199 21.2984 485.463 21.5675 484.861C21.8366 484.259 22.2347 483.818 22.7618 483.539C23.2889 483.259 24.0311 483.186 24.9885 483.319L28.9996 483.879L28.7231 485.86L24.712 485.3C24.0518 485.208 23.5239 485.252 23.1285 485.432C22.7189 485.594 22.403 485.929 22.1807 486.436C21.9442 486.925 21.7626 487.623 21.6359 488.531L20.9897 493.161L27.5758 494.08L27.2993 496.061ZM19.1327 492.902L19.848 487.776C20.0047 486.654 19.8404 485.781 19.3552 485.158C18.8558 484.516 18.1522 484.132 17.2443 484.005C16.3695 483.883 15.6618 484.071 15.1212 484.567C14.5665 485.045 14.2108 485.845 14.0542 486.968L13.3388 492.093L19.1327 492.902Z" fill="#6A6A6A"/>
<path d="M27.3824 468.959L27.6984 467.11C28.4809 467.379 29.1532 467.799 29.7153 468.368C30.2637 468.919 30.6636 469.596 30.9151 470.4C31.1529 471.184 31.1904 472.053 31.0274 473.006C30.8308 474.156 30.3828 475.144 29.6834 475.972C28.9675 476.796 28.0868 477.398 27.0413 477.777C25.9821 478.137 24.8365 478.212 23.6044 478.001C22.3722 477.79 21.3151 477.348 20.4329 476.673C19.5535 475.981 18.9118 475.136 18.5077 474.137C18.1037 473.138 17.9985 472.072 18.1923 470.938C18.3974 469.739 18.8412 468.775 19.5238 468.046C20.1928 467.298 21.0784 466.815 22.1808 466.598C23.2696 466.362 24.5545 466.412 26.0354 466.75L24.4343 476.114C25.2533 476.17 25.9976 476.069 26.6673 475.811C27.3369 475.554 27.8948 475.159 28.3409 474.626C28.7706 474.091 29.0501 473.445 29.1793 472.69C29.3225 471.852 29.2297 471.109 28.9009 470.461C28.5585 469.794 28.0523 469.293 27.3824 468.959ZM20.0532 471.18C19.879 472.199 20.0287 473.103 20.5021 473.895C20.9755 474.686 21.7019 475.283 22.6811 475.687L23.9156 468.467C22.8201 468.348 21.9383 468.56 21.2702 469.106C20.6049 469.634 20.1992 470.326 20.0532 471.18Z" fill="#6A6A6A"/>
<path d="M33.4125 460.013C33.2209 460.977 32.7742 461.815 32.0723 462.525C31.3574 463.215 30.4771 463.712 29.4316 464.014C28.3729 464.296 27.2305 464.316 26.0045 464.072C24.7785 463.828 23.7319 463.366 22.8649 462.684C21.9978 462.002 21.3692 461.189 20.979 460.244C20.5921 459.284 20.5026 458.281 20.7104 457.234C20.9378 456.09 21.4041 455.282 22.1095 454.811C22.8019 454.319 23.6514 454.063 24.6581 454.042C25.668 454.005 26.7615 454.103 27.9385 454.337C28.5597 454.461 29.2251 454.661 29.9347 454.938C30.628 455.211 31.2773 455.578 31.8826 456.038C32.4748 456.479 32.9266 457.027 33.2379 457.684C33.5329 458.337 33.5911 459.114 33.4125 460.013ZM31.6464 459.152C31.812 458.318 31.744 457.591 31.4425 456.971C31.1443 456.334 30.686 455.818 30.0677 455.423C29.4331 455.025 28.7071 454.745 27.8898 454.582C26.9907 454.404 26.1784 454.387 25.453 454.532C24.7144 454.657 24.1019 454.96 23.6155 455.441C23.116 455.903 22.7851 456.542 22.6227 457.359C22.3791 458.585 22.624 459.62 23.3572 460.462C24.0741 461.301 25.0865 461.851 26.3942 462.11C27.2606 462.282 28.0696 462.273 28.8211 462.083C29.5596 461.873 30.1818 461.52 30.6878 461.026C31.1807 460.512 31.5002 459.888 31.6464 459.152ZM21.7351 453.36L22.1248 451.398L34.3852 453.834L34.0296 455.624C34.0296 455.624 33.8792 455.611 33.5784 455.585C33.2809 455.543 32.9328 455.499 32.5339 455.454C32.1351 455.409 31.8049 455.36 31.5434 455.308L21.7351 453.36Z" fill="#6A6A6A"/>
<path d="M18.1497 446.15L18.5768 444.196L35.6732 447.933L35.2461 449.887L18.1497 446.15Z" fill="#6A6A6A"/>
<path d="M31.2369 435.298L36.3536 436.581L38.6699 427.341L40.4887 427.797L37.6859 438.976L21.9237 435.025L24.7204 423.87L26.5391 424.326L24.2288 433.541L29.4182 434.842L31.309 427.3L33.1277 427.756L31.2369 435.298Z" fill="#6A6A6A"/>
<path d="M37.6041 422.961L38.1015 421.179C38.8053 421.323 39.4388 421.223 40.0022 420.879C40.5701 420.518 40.9795 419.888 41.2304 418.989C41.3828 418.444 41.4293 417.998 41.37 417.653C41.3151 417.291 41.1875 417.005 40.987 416.793C40.7705 416.577 40.5097 416.426 40.2047 416.341C39.8355 416.238 39.5196 416.254 39.2572 416.388C38.9832 416.502 38.7291 416.699 38.495 416.98C38.2654 417.245 38.0303 417.56 37.7899 417.925C37.4833 418.341 37.1643 418.771 36.8327 419.215C36.4896 419.639 36.1211 420.029 35.7272 420.386C35.3218 420.723 34.8825 420.964 34.4095 421.108C33.9204 421.249 33.3869 421.238 32.809 421.077C32.3274 420.943 31.9048 420.721 31.5412 420.412C31.1616 420.098 30.8685 419.722 30.6621 419.284C30.4441 418.825 30.3141 418.33 30.2719 417.799C30.2342 417.252 30.2983 416.682 30.4641 416.088C30.6882 415.285 31.0369 414.656 31.5103 414.2C31.9882 413.727 32.5645 413.43 33.2391 413.306C33.9022 413.163 34.6212 413.19 35.3962 413.39L34.9324 415.051C34.1787 414.962 33.592 415.049 33.1723 415.312C32.7411 415.555 32.4359 415.998 32.2566 416.64C32.0729 417.298 32.0762 417.844 32.2666 418.278C32.457 418.712 32.7929 418.996 33.2745 419.13C33.6277 419.229 33.9605 419.184 34.273 418.994C34.5694 418.8 34.87 418.529 35.1747 418.181C35.4678 417.813 35.7756 417.423 36.0982 417.012C36.4208 416.6 36.7389 416.204 37.0525 415.824C37.3661 415.445 37.6984 415.122 38.0494 414.857C38.4003 414.591 38.7953 414.416 39.2344 414.331C39.6619 414.226 40.1565 414.251 40.7184 414.408C41.3926 414.596 41.9498 414.925 42.3899 415.394C42.8184 415.842 43.092 416.412 43.2107 417.102C43.3339 417.777 43.2744 418.548 43.0325 419.415C42.8129 420.201 42.5284 420.848 42.1789 421.357C41.8178 421.844 41.4252 422.228 41.0011 422.507C40.5609 422.782 40.1271 422.973 39.6996 423.078C39.2766 423.168 38.8796 423.196 38.5085 423.161C38.1374 423.127 37.836 423.06 37.6041 422.961Z" fill="#6A6A6A"/>
<path d="M32.5716 409.543L34.6814 402.502L36.4775 403.04L34.3677 410.081L32.5716 409.543ZM30.2262 406.048L30.8003 404.132L45.8875 408.653L45.3134 410.569L30.2262 406.048Z" fill="#6A6A6A"/>
<path d="M49.1522 398.996C48.8486 399.931 48.3066 400.711 47.5263 401.333C46.7352 401.935 45.8027 402.325 44.7289 402.502C43.6444 402.658 42.5077 402.543 41.3187 402.157C40.1298 401.772 39.1448 401.189 38.3639 400.41C37.5829 399.631 37.0541 398.75 36.7775 397.766C36.506 396.767 36.5349 395.76 36.8642 394.745C37.2244 393.636 37.7824 392.888 38.5383 392.503C39.2835 392.096 40.1572 391.942 41.1594 392.039C42.1667 392.121 43.2411 392.347 44.3825 392.717C44.9849 392.913 45.6222 393.19 46.2944 393.548C46.9508 393.901 47.5525 394.342 48.0995 394.87C48.6359 395.377 49.0201 395.974 49.2522 396.663C49.4685 397.347 49.4351 398.124 49.1522 398.996ZM47.4993 397.934C47.7617 397.126 47.7796 396.395 47.5531 395.744C47.3317 395.076 46.9372 394.51 46.3695 394.045C45.786 393.576 45.0979 393.212 44.3053 392.955C43.4334 392.672 42.6288 392.56 41.8913 392.618C41.1432 392.656 40.4994 392.885 39.9598 393.306C39.4096 393.705 39.0058 394.301 38.7486 395.094C38.3627 396.283 38.4844 397.339 39.1137 398.261C39.7271 399.179 40.6679 399.843 41.9361 400.255C42.7763 400.528 43.5808 400.614 44.3495 400.513C45.1075 400.391 45.7667 400.114 46.3273 399.683C46.8771 399.23 47.2678 398.647 47.4993 397.934ZM38.3368 391.018L38.9541 389.116L50.8437 392.974L50.2803 394.71C50.2803 394.71 50.1325 394.68 49.8369 394.619C49.5464 394.542 49.2057 394.458 48.815 394.366C48.4242 394.274 48.102 394.187 47.8484 394.105L38.3368 391.018Z" fill="#6A6A6A"/>
<path d="M40.1378 385.634L42.5641 378.696L44.334 379.315L41.9077 386.253L40.1378 385.634ZM37.953 382.036L38.6133 380.148L53.4803 385.347L52.8201 387.235L37.953 382.036Z" fill="#6A6A6A"/>
<path d="M53.877 372.468L54.5291 370.71C55.2484 371.119 55.8316 371.656 56.2787 372.319C56.716 372.961 56.984 373.701 57.0825 374.537C57.1713 375.352 57.0475 376.213 56.7113 377.119C56.3056 378.213 55.6826 379.102 54.8423 379.786C53.9864 380.464 53.0096 380.892 51.912 381.072C50.8046 381.23 49.6649 381.092 48.4929 380.657C47.321 380.222 46.3639 379.591 45.6216 378.765C44.8851 377.923 44.4107 376.974 44.1982 375.917C43.9857 374.861 44.0794 373.793 44.4794 372.715C44.9025 371.574 45.5169 370.709 46.3224 370.119C47.118 369.508 48.0776 369.197 49.2012 369.187C50.3149 369.156 51.5683 369.443 52.9613 370.049L49.6573 378.956C50.452 379.161 51.2021 379.2 51.9078 379.07C52.6135 378.941 53.2348 378.656 53.7716 378.215C54.2928 377.769 54.6867 377.186 54.9534 376.467C55.249 375.67 55.2951 374.923 55.0917 374.225C54.8785 373.506 54.4736 372.921 53.877 372.468ZM46.2634 373.297C45.9041 374.266 45.8839 375.183 46.203 376.048C46.5221 376.913 47.1255 377.634 48.0131 378.212L50.5607 371.345C49.5062 371.025 48.6003 371.071 47.8429 371.483C47.0913 371.88 46.5649 372.484 46.2634 373.297Z" fill="#6A6A6A"/>
<path d="M93.617 266.811L95.3286 267.234L94.6695 269.889L97.7092 269.697L97.8431 271.462L94.6444 271.672L95.84 274.662L94.1939 275.313L93.067 272.543L90.9935 274.253L89.8656 272.898L92.0399 271.074L89.5182 269.495L90.4468 268.012L92.9261 269.564L93.617 266.811Z" fill="#6A6A6A"/>
<path d="M163.194 201.172L151.294 190.106L156.18 184.852C156.952 184.022 157.738 183.433 158.539 183.085C159.328 182.726 160.115 182.627 160.899 182.787C161.694 182.935 162.47 183.361 163.227 184.065C163.74 184.541 164.1 185.035 164.307 185.547C164.526 186.046 164.627 186.561 164.611 187.092C164.582 187.612 164.448 188.136 164.208 188.664C163.979 189.179 163.667 189.686 163.273 190.184L163.13 190.153C163.756 189.529 164.352 189.048 164.917 188.709C165.483 188.37 166.062 188.237 166.654 188.309C167.246 188.382 167.896 188.748 168.604 189.406L171.57 192.164L170.208 193.629L167.242 190.871C166.754 190.417 166.296 190.15 165.869 190.072C165.441 189.969 164.99 190.062 164.517 190.351C164.043 190.616 163.494 191.084 162.87 191.755L159.686 195.179L164.556 199.707L163.194 201.172ZM158.313 193.902L161.837 190.112C162.609 189.282 162.975 188.473 162.934 187.684C162.893 186.872 162.536 186.154 161.865 185.529C161.218 184.928 160.531 184.676 159.803 184.773C159.075 184.847 158.325 185.298 157.553 186.128L154.029 189.918L158.313 193.902Z" fill="#6A6A6A"/>
<path d="M178.424 179.367L179.74 178.031C180.228 178.699 180.539 179.428 180.675 180.216C180.81 180.982 180.751 181.766 180.497 182.569C180.244 183.349 179.778 184.083 179.099 184.771C178.28 185.602 177.347 186.157 176.3 186.436C175.242 186.703 174.175 186.693 173.101 186.406C172.026 186.095 171.043 185.501 170.153 184.624C169.263 183.747 168.649 182.779 168.311 181.721C167.985 180.65 167.942 179.59 168.182 178.539C168.422 177.489 168.945 176.554 169.753 175.735C170.607 174.868 171.522 174.331 172.499 174.124C173.475 173.893 174.478 174.003 175.506 174.456C176.535 174.884 177.56 175.66 178.582 176.784L171.913 183.551C172.553 184.064 173.222 184.407 173.918 184.579C174.615 184.751 175.298 184.746 175.969 184.564C176.627 184.371 177.226 184.001 177.764 183.455C178.36 182.85 178.709 182.187 178.81 181.467C178.911 180.724 178.782 180.024 178.424 179.367ZM171.141 176.998C170.415 177.734 170.021 178.561 169.957 179.481C169.892 180.401 170.147 181.306 170.719 182.198L175.861 176.981C175.03 176.256 174.185 175.927 173.325 175.992C172.477 176.045 171.749 176.38 171.141 176.998Z" fill="#6A6A6A"/>
<path d="M187.833 176.101C187.126 176.784 186.281 177.216 185.299 177.399C184.318 177.558 183.312 177.463 182.281 177.114C181.25 176.742 180.301 176.106 179.434 175.206C178.566 174.306 177.971 173.329 177.648 172.274C177.326 171.219 177.273 170.193 177.492 169.195C177.722 168.185 178.222 167.31 178.989 166.57C179.829 165.76 180.673 165.363 181.522 165.378C182.371 165.37 183.214 165.645 184.053 166.202C184.903 166.748 185.745 167.453 186.578 168.317C187.018 168.773 187.45 169.317 187.874 169.949C188.288 170.57 188.611 171.241 188.846 171.965C189.08 172.664 189.138 173.373 189.019 174.09C188.889 174.794 188.493 175.465 187.833 176.101ZM186.874 174.386C187.486 173.796 187.846 173.161 187.952 172.479C188.071 171.786 187.989 171.1 187.707 170.423C187.413 169.734 186.977 169.09 186.398 168.49C185.762 167.83 185.105 167.353 184.426 167.058C183.748 166.739 183.072 166.638 182.398 166.756C181.725 166.849 181.088 167.186 180.488 167.764C179.589 168.632 179.199 169.621 179.321 170.731C179.43 171.829 179.948 172.858 180.873 173.818C181.487 174.454 182.156 174.908 182.882 175.18C183.608 175.429 184.32 175.495 185.018 175.378C185.716 175.238 186.335 174.907 186.874 174.386ZM182.042 163.973L183.482 162.585L192.159 171.583L190.845 172.85C190.845 172.85 190.729 172.753 190.497 172.56C190.277 172.356 190.016 172.121 189.714 171.857C189.412 171.592 189.169 171.364 188.984 171.172L182.042 163.973Z" fill="#6A6A6A"/>
<path d="M182.692 156.481L184.156 155.119L196.073 167.935L194.608 169.297L182.692 156.481Z" fill="#6A6A6A"/>
<path d="M201.005 153.778L204.469 157.756L211.653 151.502L212.884 152.916L204.191 160.483L193.521 148.227L202.195 140.676L203.426 142.09L196.261 148.328L199.774 152.363L205.638 147.258L206.869 148.672L201.005 153.778Z" fill="#6A6A6A"/>
<path d="M212.927 147.586L214.353 146.407C214.848 146.927 215.426 147.207 216.085 147.246C216.757 147.274 217.453 146.991 218.172 146.396C218.609 146.035 218.901 145.696 219.05 145.378C219.211 145.05 219.27 144.742 219.226 144.454C219.172 144.153 219.044 143.88 218.842 143.636C218.598 143.341 218.33 143.173 218.037 143.134C217.747 143.071 217.426 143.088 217.074 143.185C216.734 143.271 216.361 143.395 215.955 143.558C215.466 143.725 214.958 143.896 214.433 144.071C213.909 144.222 213.384 144.332 212.857 144.401C212.331 144.446 211.833 144.392 211.362 144.241C210.881 144.077 210.449 143.764 210.066 143.302C209.748 142.916 209.527 142.493 209.405 142.031C209.273 141.557 209.247 141.081 209.328 140.603C209.411 140.102 209.587 139.622 209.855 139.162C210.136 138.691 210.515 138.26 210.99 137.867C211.632 137.336 212.278 137.018 212.927 136.914C213.589 136.799 214.232 136.884 214.856 137.168C215.483 137.428 216.057 137.862 216.58 138.468L215.25 139.567C214.682 139.063 214.151 138.8 213.656 138.776C213.163 138.73 212.66 138.919 212.146 139.344C211.62 139.779 211.311 140.229 211.219 140.694C211.128 141.159 211.241 141.584 211.56 141.969C211.794 142.252 212.093 142.405 212.458 142.427C212.812 142.437 213.213 142.386 213.662 142.275C214.113 142.14 214.588 141.996 215.088 141.842C215.588 141.688 216.075 141.545 216.549 141.412C217.023 141.28 217.48 141.205 217.92 141.187C218.36 141.17 218.784 141.251 219.193 141.432C219.604 141.59 219.996 141.893 220.367 142.343C220.814 142.882 221.083 143.47 221.177 144.106C221.273 144.719 221.172 145.343 220.875 145.978C220.591 146.602 220.102 147.201 219.409 147.774C218.779 148.295 218.176 148.664 217.599 148.881C217.024 149.075 216.483 149.166 215.975 149.153C215.457 149.128 214.992 149.036 214.581 148.879C214.182 148.711 213.84 148.507 213.555 148.267C213.27 148.027 213.061 147.8 212.927 147.586Z" fill="#6A6A6A"/>
<path d="M216.023 134.035L221.772 129.456L222.94 130.922L217.191 135.502L216.023 134.035ZM216.09 129.827L217.655 128.581L227.468 140.9L225.904 142.146L216.09 129.827Z" fill="#6A6A6A"/>
<path d="M235.399 135.008C234.617 135.604 233.727 135.935 232.731 136.003C231.738 136.047 230.75 135.835 229.766 135.369C228.786 134.88 227.917 134.138 227.16 133.143C226.403 132.149 225.925 131.109 225.727 130.024C225.529 128.938 225.597 127.913 225.93 126.947C226.276 125.971 226.874 125.16 227.722 124.514C228.65 123.807 229.535 123.511 230.376 123.624C231.22 123.715 232.026 124.086 232.794 124.737C233.575 125.378 234.33 126.176 235.057 127.13C235.44 127.634 235.806 128.225 236.154 128.903C236.493 129.567 236.736 130.272 236.885 131.017C237.037 131.739 237.012 132.45 236.81 133.148C236.599 133.833 236.128 134.453 235.399 135.008ZM234.646 133.194C235.322 132.679 235.753 132.089 235.938 131.424C236.136 130.749 236.135 130.059 235.933 129.354C235.721 128.636 235.362 127.945 234.858 127.282C234.302 126.553 233.705 126.002 233.066 125.63C232.429 125.235 231.77 125.056 231.087 125.094C230.407 125.109 229.735 125.369 229.072 125.874C228.078 126.631 227.576 127.568 227.568 128.685C227.549 129.789 227.944 130.871 228.751 131.932C229.287 132.634 229.899 133.163 230.588 133.518C231.28 133.85 231.98 133.998 232.686 133.963C233.396 133.904 234.049 133.648 234.646 133.194ZM231.056 122.29L232.647 121.078L240.22 131.023L238.768 132.129C238.768 132.129 238.664 132.019 238.456 131.801C238.261 131.572 238.029 131.309 237.76 131.011C237.491 130.713 237.276 130.458 237.114 130.246L231.056 122.29Z" fill="#6A6A6A"/>
<path d="M235.366 119.047L241.31 114.723L242.413 116.239L236.469 120.563L235.366 119.047ZM235.617 114.845L237.235 113.668L246.5 126.405L244.882 127.582L235.617 114.845Z" fill="#6A6A6A"/>
<path d="M256.406 114.467L257.946 113.398C258.303 114.145 258.474 114.918 258.462 115.718C258.453 116.495 258.251 117.255 257.853 117.997C257.46 118.717 256.866 119.352 256.072 119.904C255.114 120.569 254.095 120.942 253.014 121.023C251.925 121.09 250.878 120.883 249.875 120.403C248.876 119.899 248.02 119.134 247.307 118.107C246.594 117.08 246.169 116.016 246.033 114.914C245.91 113.802 246.064 112.752 246.493 111.763C246.923 110.775 247.61 109.953 248.555 109.297C249.554 108.603 250.553 108.244 251.551 108.221C252.554 108.174 253.518 108.468 254.446 109.102C255.378 109.713 256.242 110.665 257.038 111.959L249.235 117.377C249.769 118 250.363 118.461 251.016 118.758C251.669 119.055 252.341 119.177 253.034 119.122C253.717 119.054 254.373 118.801 255.003 118.363C255.701 117.879 256.166 117.292 256.398 116.603C256.634 115.891 256.637 115.179 256.406 114.467ZM249.686 110.794C248.837 111.384 248.296 112.124 248.064 113.016C247.831 113.909 247.913 114.845 248.311 115.827L254.328 111.649C253.646 110.784 252.876 110.304 252.019 110.209C251.175 110.105 250.398 110.3 249.686 110.794Z" fill="#6A6A6A"/>
<path d="M332.486 57.9283L333.689 59.2171L331.687 61.081L334.337 62.5809L333.485 64.1326L330.691 62.5612L330.06 65.7189L328.326 65.3649L328.895 62.429L326.223 62.7293L326.019 60.9782L328.836 60.6376L327.586 57.9381L329.174 57.2027L330.403 59.8569L332.486 57.9283Z" fill="#6A6A6A"/>
<path d="M416.08 43.6638L411.83 27.9795L418.755 26.1028C419.849 25.8064 420.828 25.7225 421.691 25.851C422.551 25.9635 423.271 26.295 423.852 26.8456C424.449 27.3918 424.882 28.1636 425.153 29.1609C425.336 29.8366 425.38 30.4462 425.286 30.9898C425.207 31.5291 425.021 32.02 424.726 32.4624C424.427 32.8887 424.036 33.2623 423.554 33.5831C423.087 33.8996 422.554 34.1648 421.956 34.3787L421.851 34.2776C422.712 34.0788 423.473 33.985 424.132 33.9963C424.791 34.0076 425.353 34.2007 425.817 34.5757C426.281 34.9506 426.64 35.6046 426.893 36.5376L427.952 40.4466L426.022 40.9698L424.962 37.0608C424.788 36.4173 424.54 35.9491 424.219 35.6563C423.91 35.3429 423.478 35.1836 422.924 35.1784C422.382 35.1526 421.668 35.2597 420.783 35.4994L416.271 36.7222L418.011 43.1407L416.08 43.6638ZM415.781 34.9125L420.776 33.5589C421.869 33.2625 422.608 32.7689 422.99 32.0781C423.385 31.3668 423.462 30.5688 423.222 29.6841C422.991 28.8315 422.541 28.2541 421.872 27.9519C421.215 27.6292 420.339 27.6161 419.245 27.9126L414.251 29.2661L415.781 34.9125Z" fill="#6A6A6A"/>
<path d="M437.702 33.8854L439.524 33.4433C439.587 34.2684 439.468 35.0517 439.168 35.7935C438.88 36.515 438.417 37.1505 437.778 37.6999C437.152 38.2292 436.369 38.6078 435.43 38.8357C434.296 39.1108 433.211 39.0912 432.174 38.7768C431.134 38.4461 430.232 37.876 429.47 37.0663C428.719 36.2364 428.197 35.2141 427.902 33.9994C427.607 32.7846 427.595 31.6385 427.865 30.5611C428.152 29.4797 428.674 28.5556 429.431 27.7888C430.188 27.022 431.125 26.5029 432.243 26.2318C433.425 25.9449 434.486 25.9704 435.426 26.3084C436.378 26.6263 437.172 27.2482 437.808 28.1743C438.456 29.0802 438.919 30.28 439.196 31.7735L429.964 34.0137C430.237 34.7877 430.625 35.4311 431.127 35.9439C431.628 36.4567 432.212 36.8124 432.878 37.0111C433.539 37.1935 434.243 37.1944 434.988 37.0136C435.814 36.8131 436.459 36.4336 436.924 35.8749C437.401 35.2961 437.66 34.633 437.702 33.8854ZM432.758 28.0362C431.754 28.2799 430.982 28.7758 430.443 29.5239C429.905 30.2721 429.644 31.1757 429.661 32.235L436.779 30.5077C436.455 29.4544 435.91 28.7291 435.145 28.3317C434.396 27.9303 433.6 27.8318 432.758 28.0362Z" fill="#6A6A6A"/>
<path d="M448.247 35.8517C447.285 36.058 446.339 35.9797 445.409 35.6168C444.492 35.2341 443.687 34.6226 442.996 33.7823C442.317 32.9223 441.846 31.8812 441.584 30.659C441.322 29.4368 441.332 28.2926 441.614 27.2262C441.897 26.1599 442.394 25.2605 443.106 24.5281C443.835 23.7922 444.721 23.3124 445.763 23.0886C446.904 22.8438 447.831 22.9518 448.543 23.4125C449.269 23.8535 449.84 24.532 450.259 25.448C450.693 26.3605 451.036 27.4033 451.288 28.5766C451.421 29.1959 451.501 29.8861 451.528 30.6474C451.551 31.3924 451.472 32.1339 451.289 32.872C451.119 33.5902 450.795 34.2224 450.315 34.7685C449.832 35.2983 449.143 35.6593 448.247 35.8517ZM448.337 33.889C449.168 33.7107 449.809 33.3601 450.259 32.8374C450.726 32.3111 451.018 31.6859 451.135 30.9618C451.249 30.2214 451.218 29.4439 451.043 28.6291C450.851 27.7328 450.545 26.9804 450.124 26.3717C449.717 25.7432 449.196 25.301 448.561 25.0451C447.94 24.7694 447.221 24.719 446.407 24.8938C445.184 25.1561 444.332 25.7907 443.849 26.7978C443.363 27.7885 443.26 28.9357 443.539 30.2394C443.725 31.1031 444.054 31.8421 444.526 32.4566C445.012 33.0513 445.582 33.483 446.236 33.7517C446.903 34.0006 447.604 34.0464 448.337 33.889ZM449.727 22.4938L451.682 22.0741L454.305 34.2959L452.521 34.6788C452.521 34.6788 452.473 34.5356 452.377 34.2493C452.298 33.9595 452.2 33.6225 452.084 33.2384C451.967 32.8543 451.881 32.5319 451.825 32.2712L449.727 22.4938Z" fill="#6A6A6A"/>
<path d="M454.883 16.3258L456.846 15.9436L460.19 33.1211L458.227 33.5033L454.883 16.3258Z" fill="#6A6A6A"/>
<path d="M473.402 23.4336L474.232 28.643L483.638 27.1457L483.933 28.9974L472.551 30.8091L469.997 14.7611L481.354 12.9533L481.648 14.805L472.267 16.2984L473.108 21.5819L480.786 20.3597L481.081 22.2113L473.402 23.4336Z" fill="#6A6A6A"/>
<path d="M483.99 24.8937L485.824 24.645C485.969 25.3484 486.312 25.8906 486.852 26.2715C487.407 26.6502 488.148 26.7769 489.073 26.6514C489.634 26.5752 490.062 26.4415 490.355 26.2503C490.666 26.0569 490.878 25.8262 490.993 25.5583C491.106 25.2739 491.141 24.9748 491.099 24.661C491.047 24.2811 490.908 23.9973 490.68 23.8095C490.467 23.6029 490.185 23.4477 489.835 23.3439C489.501 23.2378 489.119 23.1467 488.688 23.0706C488.184 22.9539 487.663 22.8312 487.124 22.7025C486.6 22.555 486.095 22.3711 485.611 22.1509C485.142 21.9118 484.747 21.6038 484.426 21.2268C484.104 20.8332 483.902 20.3392 483.822 19.7446C483.754 19.2492 483.791 18.7733 483.931 18.317C484.068 17.8442 484.298 17.4263 484.618 17.0632C484.953 16.6813 485.356 16.366 485.827 16.1171C486.314 15.866 486.864 15.6989 487.475 15.616C488.301 15.504 489.017 15.5751 489.623 15.8292C490.246 16.0811 490.747 16.4924 491.127 17.0631C491.522 17.6151 491.781 18.2864 491.905 19.0769L490.196 19.3088C489.979 18.5813 489.667 18.077 489.259 17.796C488.865 17.4962 488.338 17.3911 487.677 17.4807C487 17.5726 486.5 17.7918 486.177 18.1384C485.854 18.485 485.726 18.906 485.793 19.4014C485.843 19.7648 486.016 20.0524 486.314 20.2643C486.61 20.4596 486.977 20.6284 487.417 20.7706C487.871 20.894 488.351 21.0223 488.857 21.1555C489.363 21.2887 489.852 21.4242 490.325 21.5619C490.798 21.6996 491.225 21.877 491.608 22.0942C491.991 22.3114 492.308 22.6047 492.56 22.9742C492.826 23.3249 492.999 23.7893 493.077 24.3674C493.171 25.061 493.09 25.7027 492.834 26.2926C492.592 26.8636 492.177 27.3404 491.59 27.7228C491.019 28.103 490.288 28.3535 489.396 28.4745C488.586 28.5843 487.879 28.5793 487.274 28.4595C486.684 28.321 486.176 28.1124 485.752 27.8336C485.325 27.5383 484.978 27.2153 484.712 26.8646C484.462 26.5116 484.28 26.1579 484.164 25.8036C484.049 25.4492 483.991 25.1459 483.99 24.8937Z" fill="#6A6A6A"/>
<path d="M494.694 14.8822L501.995 14.0342L502.212 15.8967L494.911 16.7447L494.694 14.8822ZM496.977 11.3453L498.963 11.1145L500.78 26.7594L498.794 26.9901L496.977 11.3453Z" fill="#6A6A6A"/>
<path d="M511.945 25.8069C510.966 25.8977 510.036 25.7079 509.155 25.2372C508.29 24.7485 507.564 24.0459 506.976 23.1296C506.404 22.1952 506.06 21.1056 505.945 19.8609C505.829 18.6163 505.975 17.4813 506.382 16.456C506.789 15.4306 507.389 14.5966 508.183 13.9538C508.994 13.3094 509.93 12.938 510.993 12.8394C512.154 12.7316 513.061 12.9487 513.714 13.4906C514.382 14.0145 514.87 14.756 515.176 15.7151C515.499 16.6726 515.716 17.7488 515.827 18.9437C515.886 19.5743 515.883 20.2692 515.82 21.0283C515.755 21.7708 515.588 22.4977 515.319 23.2089C515.066 23.902 514.668 24.4912 514.128 24.9766C513.585 25.4454 512.858 25.7222 511.945 25.8069ZM512.267 23.8688C513.114 23.7902 513.791 23.5181 514.301 23.0524C514.826 22.5851 515.19 21.999 515.393 21.2939C515.594 20.5723 515.655 19.7966 515.578 18.9668C515.494 18.0541 515.279 17.2706 514.933 16.6164C514.603 15.944 514.138 15.4432 513.539 15.1138C512.954 14.7664 512.247 14.6312 511.417 14.7082C510.172 14.8237 509.251 15.3528 508.652 16.2955C508.052 17.2216 507.813 18.3485 507.936 19.6761C508.018 20.5557 508.257 21.3285 508.654 21.9947C509.065 22.6428 509.58 23.139 510.198 23.4834C510.831 23.8096 511.52 23.9381 512.267 23.8688ZM514.999 12.7187L516.99 12.5338L518.145 24.9803L516.328 25.149C516.328 25.149 516.298 25.0012 516.237 24.7055C516.192 24.4084 516.135 24.0622 516.065 23.667C515.995 23.2718 515.947 22.9414 515.923 22.6759L514.999 12.7187Z" fill="#6A6A6A"/>
<path d="M521.811 12.141L529.143 11.631L529.273 13.5015L521.941 14.0115L521.811 12.141ZM524.254 8.71321L526.249 8.57444L527.342 24.2865L525.347 24.4253L524.254 8.71321Z" fill="#6A6A6A"/>
<path d="M539.43 19.5561L541.302 19.462C541.21 20.2844 540.947 21.0318 540.514 21.7044C540.096 22.3595 539.522 22.8973 538.793 23.3177C538.078 23.7207 537.239 23.9464 536.273 23.9949C535.108 24.0534 534.046 23.8314 533.086 23.3289C532.125 22.8098 531.346 22.0812 530.748 21.1434C530.166 20.188 529.844 19.0861 529.781 17.8377C529.719 16.5893 529.921 15.4611 530.387 14.4531C530.871 13.4442 531.556 12.6338 532.443 12.0219C533.33 11.41 534.348 11.0752 535.497 11.0175C536.712 10.9565 537.749 11.1798 538.609 11.6873C539.485 12.1774 540.149 12.9367 540.601 13.9653C541.069 14.9764 541.299 16.2415 541.292 17.7604L531.804 18.2368C531.928 19.0482 532.189 19.7527 532.586 20.3502C532.983 20.9477 533.49 21.4062 534.107 21.7257C534.723 22.0285 535.414 22.1607 536.179 22.1223C537.028 22.0797 537.733 21.8273 538.294 21.3653C538.871 20.8858 539.249 20.2827 539.43 19.5561ZM535.666 12.8864C534.633 12.9382 533.783 13.2813 533.114 13.9157C532.445 14.55 532.02 15.389 531.839 16.4328L539.154 16.0655C539.033 14.9702 538.633 14.1559 537.955 13.6225C537.294 13.0883 536.531 12.843 535.666 12.8864Z" fill="#6A6A6A"/>
<path d="M644.377 12.9009L644.69 14.6358L641.998 15.1183L643.414 17.8149L641.857 18.6578L640.36 15.8236L638.118 18.136L636.852 16.8991L638.921 14.7393L636.513 13.5449L637.289 11.962L639.842 13.2019L640.253 10.2554L641.986 10.4973L641.582 13.3942L644.377 12.9009Z" fill="#6A6A6A"/>
<path d="M721.3 45.815L726.199 30.3212L733.04 32.4845C734.121 32.8262 734.99 33.2845 735.647 33.8594C736.309 34.4184 736.736 35.0865 736.927 35.8637C737.134 36.6459 737.082 37.5296 736.771 38.5148C736.56 39.1822 736.268 39.7191 735.894 40.1255C735.537 40.5369 735.115 40.8492 734.628 41.0623C734.146 41.2595 733.615 41.3626 733.036 41.3716C732.472 41.3856 731.88 41.321 731.261 41.1777L731.228 41.0359C732.06 41.334 732.75 41.6659 733.299 42.0317C733.847 42.3974 734.216 42.8635 734.404 43.4299C734.592 43.9962 734.54 44.7403 734.248 45.6619L733.027 49.5235L731.12 48.9205L732.342 45.0589C732.543 44.4233 732.587 43.8955 732.475 43.4755C732.384 43.0447 732.107 42.6774 731.644 42.3736C731.201 42.0589 730.543 41.7634 729.669 41.487L725.212 40.0775L723.207 46.418L721.3 45.815ZM725.777 38.2897L730.711 39.85C731.792 40.1917 732.68 40.1753 733.375 39.8008C734.091 39.4155 734.587 38.7858 734.864 37.9118C735.13 37.0696 735.063 36.3406 734.664 35.7248C734.285 35.0981 733.556 34.6139 732.475 34.2722L727.541 32.7119L725.777 38.2897Z" fill="#6A6A6A"/>
<path d="M748.36 50.5127L750.13 51.1317C749.734 51.8586 749.209 52.4518 748.554 52.9113C747.92 53.3606 747.186 53.6423 746.352 53.7566C745.538 53.8606 744.675 53.7531 743.763 53.434C742.662 53.0488 741.761 52.4426 741.062 51.6154C740.368 50.7724 739.921 49.8038 739.721 48.7098C739.542 47.6055 739.659 46.4634 740.072 45.2835C740.484 44.1036 741.097 43.1348 741.909 42.3771C742.737 41.625 743.677 41.1328 744.73 40.9005C745.782 40.6682 746.851 40.7418 747.936 41.1215C749.085 41.5231 749.962 42.121 750.567 42.9153C751.193 43.6993 751.522 44.6529 751.553 45.7761C751.605 46.8891 751.341 48.1476 750.762 49.5518L741.794 46.4157C741.603 47.2141 741.579 47.9649 741.722 48.668C741.864 49.3711 742.161 49.9869 742.612 50.5154C743.068 51.0281 743.658 51.411 744.382 51.6641C745.184 51.9447 745.932 51.9767 746.626 51.7603C747.341 51.5335 747.919 51.1177 748.36 50.5127ZM747.388 42.9161C746.413 42.575 745.496 42.5721 744.637 42.9074C743.778 43.2427 743.068 43.8595 742.507 44.7579L749.421 47.1759C749.721 46.1156 749.658 45.2107 749.232 44.4612C748.821 43.7172 748.206 43.2022 747.388 42.9161Z" fill="#6A6A6A"/>
<path d="M755.754 57.7817C754.835 57.4328 754.083 56.8534 753.499 56.0435C752.937 55.2239 752.593 54.2735 752.469 53.1924C752.366 52.1015 752.536 50.9718 752.98 49.8031C753.423 48.6344 754.053 47.6791 754.87 46.9372C755.686 46.1952 756.592 45.7101 757.588 45.4819C758.599 45.2597 759.603 45.3377 760.601 45.7162C761.692 46.1302 762.411 46.7241 762.759 47.4979C763.129 48.2621 763.24 49.1423 763.094 50.1385C762.963 51.1407 762.685 52.2027 762.259 53.3246C762.034 53.9168 761.727 54.5398 761.336 55.1937C760.951 55.832 760.481 56.4114 759.927 56.932C759.395 57.443 758.779 57.7975 758.08 57.9957C757.387 58.1783 756.611 58.1069 755.754 57.7817ZM756.896 56.1827C757.691 56.4843 758.419 56.5379 759.081 56.3435C759.759 56.155 760.343 55.7886 760.835 55.2444C761.333 54.6845 761.73 54.0151 762.025 53.2359C762.351 52.3789 762.502 51.5807 762.48 50.8413C762.479 50.0922 762.281 49.438 761.887 48.8785C761.515 48.3094 760.939 47.877 760.16 47.5813C758.992 47.1378 757.931 47.2077 756.979 47.7911C756.033 48.3589 755.323 49.2661 754.85 50.5127C754.536 51.3386 754.411 52.1379 754.474 52.9106C754.559 53.6737 754.803 54.3457 755.207 54.9266C755.632 55.4979 756.195 55.9166 756.896 56.1827ZM764.252 47.3692L766.122 48.0789L761.686 59.7656L759.98 59.118C759.98 59.118 760.018 58.9719 760.093 58.6796C760.184 58.3932 760.285 58.0571 760.396 57.6713C760.506 57.2855 760.609 56.9679 760.704 56.7186L764.252 47.3692Z" fill="#6A6A6A"/>
<path d="M771.555 44.8617L773.411 45.6062L766.896 61.8484L765.04 61.1038L771.555 44.8617Z" fill="#6A6A6A"/>
<path d="M782.325 60.5113L780.198 65.3384L788.914 69.1794L788.158 70.8952L777.611 66.2477L784.164 51.3775L794.688 56.0149L793.932 57.7307L785.238 53.8998L783.081 58.7955L790.196 61.9308L789.44 63.6466L782.325 60.5113Z" fill="#6A6A6A"/>
<path d="M793.318 68.8299L794.991 69.6198C794.73 70.2892 794.722 70.9306 794.967 71.5438C795.227 72.1642 795.779 72.6737 796.623 73.0722C797.136 73.3141 797.567 73.4349 797.917 73.4344C798.283 73.4411 798.587 73.3635 798.829 73.2014C799.079 73.0243 799.271 72.7926 799.406 72.5063C799.57 72.1596 799.608 71.8456 799.519 71.5643C799.453 71.2751 799.301 70.9914 799.064 70.7135C798.842 70.4426 798.57 70.158 798.251 69.8595C797.892 69.4874 797.522 69.1006 797.14 68.6991C796.78 68.2897 796.457 67.8608 796.171 67.4125C795.908 66.9562 795.744 66.4827 795.681 65.9921C795.625 65.4864 795.725 64.9623 795.981 64.4197C796.194 63.9676 796.484 63.5883 796.85 63.2818C797.223 62.9603 797.643 62.7346 798.11 62.6048C798.599 62.467 799.108 62.422 799.639 62.4697C800.184 62.5245 800.736 62.6836 801.293 62.9469C802.047 63.3027 802.609 63.7522 802.979 64.2956C803.364 64.8461 803.561 65.4642 803.569 66.1499C803.599 66.8277 803.451 67.5318 803.124 68.2624L801.564 67.5259C801.779 66.7979 801.792 66.2049 801.602 65.7469C801.435 65.281 801.05 64.9057 800.448 64.621C799.83 64.3293 799.291 64.2408 798.831 64.3555C798.372 64.4702 798.035 64.7537 797.821 65.2058C797.665 65.5374 797.654 65.8731 797.788 66.213C797.93 66.5379 798.146 66.8797 798.438 67.2384C798.751 67.5892 799.084 67.9582 799.435 68.3455C799.787 68.7327 800.124 69.1128 800.445 69.4858C800.767 69.8587 801.029 70.2405 801.232 70.6311C801.434 71.0217 801.541 71.4405 801.551 71.8876C801.583 72.3268 801.474 72.8101 801.225 73.3376C800.927 73.9706 800.509 74.4646 799.973 74.8196C799.459 75.1667 798.851 75.3406 798.15 75.3415C797.465 75.3495 796.715 75.1614 795.901 74.7771C795.163 74.4284 794.572 74.0391 794.13 73.6092C793.71 73.1713 793.398 72.7199 793.194 72.2548C792.997 71.7746 792.882 71.315 792.85 70.8758C792.832 70.4438 792.872 70.0478 792.968 69.6877C793.065 69.3277 793.181 69.0418 793.318 68.8299Z" fill="#6A6A6A"/>
<path d="M807.036 65.9554L813.623 69.2164L812.791 70.8968L806.204 67.6358L807.036 65.9554ZM810.875 64.2296L812.667 65.117L805.679 79.232L803.887 78.3446L810.875 64.2296Z" fill="#6A6A6A"/>
<path d="M814.565 84.0264C813.694 83.5706 813.016 82.906 812.533 82.0324C812.072 81.1517 811.844 80.1673 811.849 79.079C811.876 77.9836 812.18 76.8821 812.759 75.7745C813.338 74.6668 814.077 73.7932 814.976 73.1536C815.875 72.514 816.832 72.1401 817.848 72.032C818.879 71.9315 819.867 72.1285 820.812 72.6229C821.846 73.1636 822.489 73.8388 822.743 74.6486C823.019 75.4513 823.025 76.3385 822.761 77.3103C822.512 78.2898 822.11 79.3112 821.554 80.3745C821.26 80.9357 820.88 81.5177 820.415 82.1205C819.957 82.7085 819.422 83.228 818.809 83.679C818.22 84.123 817.566 84.4018 816.848 84.5154C816.138 84.6143 815.377 84.4513 814.565 84.0264ZM815.889 82.5745C816.642 82.9685 817.359 83.1083 818.039 82.994C818.734 82.8875 819.359 82.5932 819.912 82.1113C820.472 81.6146 820.946 80.9971 821.332 80.2587C821.757 79.4464 822.002 78.6718 822.068 77.935C822.156 77.1911 822.038 76.5181 821.713 75.9157C821.411 75.3064 820.891 74.8086 820.153 74.4224C819.045 73.843 817.984 73.7863 816.969 74.2523C815.962 74.7036 815.149 75.52 814.531 76.7014C814.122 77.4842 813.903 78.2629 813.873 79.0377C813.867 79.8054 814.029 80.5017 814.361 81.1265C814.715 81.7442 815.224 82.2269 815.889 82.5745ZM824.24 74.6983L826.013 75.6253L820.219 86.7016L818.602 85.8558C818.602 85.8558 818.657 85.7151 818.766 85.4339C818.891 85.1603 819.031 84.8386 819.186 84.4687C819.342 84.0988 819.482 83.7957 819.606 83.5594L824.24 74.6983Z" fill="#6A6A6A"/>
<path d="M829.146 77.3236L835.582 80.8738L834.676 82.5156L828.24 78.9654L829.146 77.3236ZM833.058 75.77L834.809 76.736L827.202 90.5269L825.451 89.5609L833.058 75.77Z" fill="#6A6A6A"/>
<path d="M839.075 92.6309L840.7 93.5667C840.177 94.2078 839.551 94.6935 838.822 95.0239C838.116 95.3481 837.342 95.4892 836.501 95.4471C835.683 95.3988 834.855 95.1335 834.017 94.651C833.006 94.0688 832.233 93.3064 831.699 92.364C831.173 91.4071 830.913 90.3726 830.919 89.2605C830.947 88.1422 831.274 87.0414 831.898 85.9582C832.521 84.875 833.303 84.0363 834.241 83.4421C835.194 82.8561 836.209 82.5464 837.286 82.5128C838.363 82.4793 839.4 82.7495 840.397 83.3234C841.451 83.9306 842.202 84.6805 842.65 85.573C843.12 86.4594 843.266 87.4573 843.089 88.5668C842.934 89.6702 842.443 90.8582 841.613 92.1309L833.381 87.3897C833.046 88.139 832.883 88.8723 832.893 89.5897C832.903 90.307 833.081 90.9671 833.426 91.5698C833.779 92.1581 834.288 92.6436 834.953 93.0262C835.689 93.4504 836.418 93.6204 837.14 93.536C837.885 93.4455 838.53 93.1438 839.075 92.6309ZM839.526 84.9856C838.63 84.4699 837.73 84.2973 836.824 84.4679C835.918 84.6385 835.106 85.1133 834.388 85.8923L840.735 89.548C841.227 88.5615 841.332 87.6606 841.051 86.8451C840.785 86.038 840.277 85.4182 839.526 84.9856Z" fill="#6A6A6A"/>
<path d="M936.132 148.701L935.436 150.32L932.924 149.236L932.616 152.266L930.853 152.109L931.169 148.919L928.024 149.61L927.651 147.879L930.568 147.221L929.22 144.895L930.741 144.004L932.185 146.448L934.155 144.218L935.466 145.377L933.53 147.569L936.132 148.701Z" fill="#6A6A6A"/>
<path d="M989.579 227.99L1002.43 218.051L1006.82 223.728C1007.52 224.624 1007.97 225.496 1008.18 226.343C1008.41 227.18 1008.38 227.972 1008.09 228.72C1007.82 229.481 1007.27 230.177 1006.45 230.809C1005.9 231.237 1005.35 231.512 1004.81 231.633C1004.29 231.767 1003.76 231.783 1003.24 231.681C1002.73 231.568 1002.24 231.351 1001.75 231.027C1001.28 230.718 1000.83 230.328 1000.41 229.857L1000.46 229.721C1000.97 230.44 1001.35 231.107 1001.59 231.72C1001.84 232.333 1001.87 232.926 1001.71 233.498C1001.54 234.071 1001.07 234.653 1000.31 235.244L997.101 237.721L995.878 236.139L999.082 233.662C999.61 233.254 999.947 232.846 1000.09 232.437C1000.27 232.031 1000.25 231.571 1000.04 231.058C999.855 230.547 999.483 229.929 998.922 229.204L996.063 225.505L990.802 229.572L989.579 227.99ZM997.546 224.358L1000.71 228.452C1001.4 229.349 1002.14 229.842 1002.93 229.93C1003.74 230.022 1004.5 229.787 1005.23 229.227C1005.93 228.686 1006.29 228.049 1006.31 227.316C1006.36 226.585 1006.03 225.771 1005.34 224.875L1002.17 220.78L997.546 224.358Z" fill="#6A6A6A"/>
<path d="M1008.63 246.587L1009.74 248.103C1009 248.476 1008.23 248.664 1007.43 248.669C1006.65 248.678 1005.89 248.492 1005.14 248.111C1004.41 247.733 1003.76 247.154 1003.19 246.372C1002.51 245.429 1002.11 244.418 1002.01 243.339C1001.92 242.251 1002.1 241.201 1002.56 240.187C1003.04 239.177 1003.79 238.305 1004.8 237.57C1005.81 236.834 1006.86 236.386 1007.96 236.226C1009.07 236.079 1010.12 236.209 1011.12 236.617C1012.12 237.025 1012.95 237.694 1013.63 238.624C1014.35 239.608 1014.73 240.598 1014.77 241.596C1014.84 242.597 1014.57 243.568 1013.96 244.509C1013.36 245.454 1012.43 246.339 1011.16 247.164L1005.57 239.481C1004.96 240.029 1004.51 240.632 1004.23 241.292C1003.94 241.951 1003.84 242.626 1003.91 243.317C1003.99 243.999 1004.26 244.649 1004.71 245.269C1005.21 245.957 1005.81 246.409 1006.5 246.625C1007.22 246.846 1007.93 246.833 1008.63 246.587ZM1012.16 239.787C1011.55 238.952 1010.8 238.427 1009.9 238.214C1009.01 238.001 1008.07 238.104 1007.1 238.523L1011.41 244.447C1012.26 243.746 1012.72 242.966 1012.8 242.107C1012.88 241.261 1012.67 240.488 1012.16 239.787Z" fill="#6A6A6A"/>
<path d="M1010.41 256.517C1009.85 255.707 1009.56 254.803 1009.54 253.805C1009.55 252.811 1009.8 251.834 1010.32 250.873C1010.85 249.917 1011.63 249.085 1012.66 248.376C1013.69 247.666 1014.75 247.239 1015.85 247.093C1016.94 246.946 1017.96 247.063 1018.91 247.441C1019.87 247.833 1020.65 248.468 1021.26 249.347C1021.92 250.307 1022.17 251.205 1022.02 252.04C1021.89 252.878 1021.48 253.666 1020.79 254.402C1020.12 255.152 1019.28 255.868 1018.29 256.549C1017.77 256.908 1017.17 257.245 1016.47 257.561C1015.79 257.867 1015.08 258.077 1014.32 258.19C1013.6 258.308 1012.89 258.249 1012.2 258.015C1011.53 257.771 1010.93 257.271 1010.41 256.517ZM1012.26 255.85C1012.74 256.55 1013.31 257.009 1013.96 257.225C1014.63 257.455 1015.32 257.486 1016.03 257.318C1016.76 257.141 1017.47 256.815 1018.15 256.343C1018.91 255.823 1019.49 255.252 1019.89 254.631C1020.31 254.014 1020.52 253.364 1020.52 252.68C1020.53 252 1020.31 251.317 1019.83 250.631C1019.12 249.601 1018.21 249.056 1017.1 248.994C1016 248.923 1014.9 249.266 1013.8 250.023C1013.07 250.524 1012.51 251.11 1012.13 251.782C1011.76 252.458 1011.58 253.149 1011.58 253.857C1011.61 254.568 1011.83 255.233 1012.26 255.85ZM1023.32 252.782L1024.45 254.429L1014.16 261.521L1013.13 260.019C1013.13 260.019 1013.24 259.92 1013.47 259.722C1013.71 259.538 1013.98 259.319 1014.29 259.065C1014.6 258.81 1014.87 258.607 1015.08 258.456L1023.32 252.782Z" fill="#6A6A6A"/>
<path d="M1030.7 254.778L1031.8 256.445L1017.21 266.108L1016.11 264.441L1030.7 254.778Z" fill="#6A6A6A"/>
<path d="M1030.46 273.422L1025.97 276.188L1030.96 284.299L1029.37 285.282L1023.32 275.468L1037.16 266.947L1043.19 276.74L1041.59 277.723L1036.61 269.634L1032.06 272.439L1036.13 279.059L1034.54 280.043L1030.46 273.422Z" fill="#6A6A6A"/>
<path d="M1034.68 286.313L1035.61 287.913C1035.02 288.316 1034.65 288.839 1034.5 289.483C1034.36 290.142 1034.53 290.874 1035 291.681C1035.28 292.171 1035.57 292.516 1035.86 292.714C1036.15 292.927 1036.45 293.036 1036.74 293.04C1037.05 293.036 1037.34 292.954 1037.61 292.795C1037.94 292.602 1038.15 292.365 1038.24 292.083C1038.35 291.808 1038.38 291.488 1038.35 291.124C1038.32 290.775 1038.25 290.387 1038.16 289.96C1038.08 289.45 1037.99 288.921 1037.9 288.374C1037.84 287.833 1037.82 287.296 1037.84 286.765C1037.88 286.24 1038.01 285.757 1038.24 285.317C1038.48 284.869 1038.86 284.494 1039.38 284.193C1039.81 283.942 1040.27 283.794 1040.74 283.749C1041.23 283.696 1041.7 283.748 1042.16 283.906C1042.64 284.07 1043.09 284.323 1043.5 284.663C1043.92 285.017 1044.28 285.461 1044.59 285.995C1045.01 286.715 1045.21 287.404 1045.21 288.062C1045.22 288.734 1045.03 289.354 1044.64 289.923C1044.28 290.498 1043.76 290.994 1043.08 291.41L1042.21 289.919C1042.8 289.441 1043.15 288.96 1043.25 288.476C1043.38 287.997 1043.28 287.47 1042.94 286.893C1042.6 286.302 1042.21 285.924 1041.76 285.757C1041.32 285.591 1040.88 285.633 1040.45 285.884C1040.13 286.069 1039.93 286.339 1039.85 286.695C1039.78 287.043 1039.77 287.447 1039.8 287.908C1039.86 288.375 1039.93 288.867 1040 289.386C1040.07 289.904 1040.13 290.408 1040.18 290.897C1040.23 291.387 1040.23 291.85 1040.18 292.287C1040.12 292.723 1039.97 293.129 1039.73 293.502C1039.5 293.882 1039.14 294.219 1038.64 294.512C1038.03 294.863 1037.41 295.033 1036.76 295.021C1036.14 295.015 1035.54 294.814 1034.97 294.417C1034.4 294.034 1033.89 293.454 1033.44 292.676C1033.03 291.969 1032.76 291.314 1032.64 290.709C1032.54 290.11 1032.54 289.561 1032.64 289.062C1032.75 288.555 1032.91 288.111 1033.14 287.732C1033.37 287.366 1033.63 287.062 1033.91 286.821C1034.19 286.579 1034.45 286.41 1034.68 286.313Z" fill="#6A6A6A"/>
<path d="M1047.66 291.807L1051.24 298.229L1049.6 299.141L1046.03 292.718L1047.66 291.807ZM1051.8 292.564L1052.78 294.311L1039.01 301.97L1038.04 300.222L1051.8 292.564Z" fill="#6A6A6A"/>
<path d="M1043.58 310.886C1043.12 310.016 1042.94 309.084 1043.04 308.091C1043.16 307.104 1043.53 306.164 1044.15 305.271C1044.8 304.384 1045.67 303.649 1046.78 303.066C1047.88 302.482 1048.99 302.182 1050.09 302.165C1051.19 302.149 1052.19 302.384 1053.09 302.871C1054 303.373 1054.7 304.096 1055.2 305.039C1055.74 306.071 1055.89 306.992 1055.64 307.803C1055.41 308.62 1054.91 309.355 1054.14 310.005C1053.38 310.67 1052.47 311.283 1051.41 311.843C1050.85 312.139 1050.21 312.403 1049.48 312.635C1048.77 312.859 1048.04 312.984 1047.28 313.008C1046.54 313.039 1045.84 312.898 1045.19 312.584C1044.55 312.263 1044.01 311.696 1043.58 310.886ZM1045.5 310.441C1045.89 311.193 1046.4 311.715 1047.03 312.007C1047.66 312.313 1048.34 312.425 1049.07 312.342C1049.82 312.251 1050.56 312.011 1051.29 311.622C1052.1 311.194 1052.75 310.696 1053.22 310.126C1053.71 309.564 1054 308.942 1054.07 308.262C1054.17 307.589 1054.02 306.884 1053.63 306.147C1053.05 305.042 1052.21 304.393 1051.11 304.201C1050.02 304.001 1048.89 304.212 1047.71 304.835C1046.93 305.247 1046.31 305.764 1045.84 306.385C1045.4 307.014 1045.14 307.679 1045.06 308.382C1045 309.091 1045.15 309.778 1045.5 310.441ZM1056.84 308.693L1057.78 310.462L1046.72 316.297L1045.87 314.683C1045.87 314.683 1045.99 314.598 1046.24 314.428C1046.5 314.274 1046.8 314.088 1047.14 313.872C1047.48 313.656 1047.76 313.485 1048 313.361L1056.84 308.693Z" fill="#6A6A6A"/>
<path d="M1059.39 313.611L1062.68 320.186L1061 321.024L1057.72 314.449L1059.39 313.611ZM1063.5 314.552L1064.39 316.341L1050.3 323.381L1049.41 321.592L1063.5 314.552Z" fill="#6A6A6A"/>
<path d="M1060.41 335.076L1061.21 336.772C1060.42 337 1059.63 337.042 1058.84 336.897C1058.07 336.761 1057.36 336.435 1056.69 335.921C1056.05 335.414 1055.52 334.724 1055.11 333.849C1054.61 332.794 1054.41 331.728 1054.51 330.649C1054.62 329.563 1055 328.565 1055.64 327.655C1056.3 326.753 1057.19 326.035 1058.32 325.501C1059.45 324.967 1060.57 324.724 1061.68 324.772C1062.8 324.834 1063.81 325.159 1064.72 325.746C1065.62 326.333 1066.32 327.146 1066.81 328.186C1067.33 329.286 1067.52 330.33 1067.37 331.319C1067.26 332.315 1066.81 333.218 1066.03 334.028C1065.27 334.846 1064.19 335.541 1062.78 336.114L1058.73 327.523C1058.02 327.947 1057.47 328.457 1057.07 329.051C1056.67 329.646 1056.44 330.29 1056.38 330.982C1056.33 331.667 1056.47 332.356 1056.8 333.049C1057.16 333.818 1057.67 334.373 1058.31 334.716C1058.97 335.066 1059.67 335.186 1060.41 335.076ZM1065.14 329.054C1064.7 328.12 1064.06 327.464 1063.22 327.087C1062.38 326.711 1061.44 326.637 1060.41 326.868L1063.53 333.491C1064.5 332.961 1065.1 332.282 1065.34 331.452C1065.58 330.637 1065.51 329.838 1065.14 329.054Z" fill="#6A6A6A"/>
<path d="M1104.19 421.931L1102.71 422.9L1101.21 420.613L1099.29 422.974L1097.9 421.873L1099.92 419.383L1096.92 418.229L1097.56 416.579L1100.36 417.634L1100.51 414.95L1102.27 415.043L1102.13 417.878L1105 417.1L1105.46 418.789L1102.64 419.554L1104.19 421.931Z" fill="#6A6A6A"/>
</svg>
