<svg width="42" height="42" viewBox="0 0 42 42" fill="none" xmlns="http://www.w3.org/2000/svg">
<circle cx="21" cy="21" r="21" fill="#C33B49" fill-opacity="0.1"/>
<path d="M25.4583 12H15.5417C14.6027 12.0012 13.7025 12.4087 13.0386 13.133C12.3746 13.8573 12.0011 14.8393 12 15.8636V25.1364C12.0011 26.1607 12.3746 27.1427 13.0386 27.867C13.7025 28.5913 14.6027 28.9988 15.5417 29H25.4583C26.3973 28.9988 27.2975 28.5913 27.9614 27.867C28.6254 27.1427 28.9989 26.1607 29 25.1364V15.8636C28.9989 14.8393 28.6254 13.8573 27.9614 13.133C27.2975 12.4087 26.3973 12.0012 25.4583 12ZM15.5417 13.5455H25.4583C25.8825 13.5464 26.2967 13.6857 26.6476 13.9456C26.9985 14.2054 27.2701 14.5739 27.4275 15.0036L22.0031 20.9219C21.6039 21.3557 21.0634 21.5992 20.5 21.5992C19.9366 21.5992 19.3961 21.3557 18.9969 20.9219L13.5725 15.0036C13.7299 14.5739 14.0015 14.2054 14.3524 13.9456C14.7033 13.6857 15.1175 13.5464 15.5417 13.5455ZM25.4583 27.4545H15.5417C14.9781 27.4545 14.4376 27.2103 14.0391 26.7756C13.6406 26.3408 13.4167 25.7512 13.4167 25.1364V17.0227L17.9953 22.0145C18.6602 22.738 19.5609 23.1443 20.5 23.1443C21.4391 23.1443 22.3398 22.738 23.0047 22.0145L27.5833 17.0227V25.1364C27.5833 25.7512 27.3595 26.3408 26.9609 26.7756C26.5624 27.2103 26.0219 27.4545 25.4583 27.4545Z" fill="#C33B49"/>
</svg>
