<svg width="16" height="16" viewBox="0 0 16 16" fill="none" xmlns="http://www.w3.org/2000/svg">
<path d="M15.0727 4.44357C15.0373 3.6405 14.9074 3.0884 14.7214 2.61C14.5295 2.10218 14.2342 1.64754 13.8474 1.26959C13.4695 0.885761 13.0118 0.587509 12.5099 0.398593C12.0287 0.21256 11.4795 0.0826941 10.6764 0.0472867C9.86736 0.00888067 9.61051 0 7.5585 0C5.50648 0 5.24964 0.00888067 4.44357 0.0442881C3.6405 0.0796955 3.0884 0.209676 2.61011 0.395594C2.10218 0.587509 1.64754 0.882763 1.26959 1.26959C0.885761 1.64754 0.587624 2.10518 0.398593 2.60711C0.21256 3.0884 0.0826941 3.6375 0.0472867 4.44057C0.00888067 5.24963 0 5.50648 0 7.5585C0 9.61051 0.00888067 9.86736 0.0442881 10.6734C0.0796955 11.4765 0.209676 12.0286 0.395709 12.507C0.587624 13.0148 0.885761 13.4695 1.26959 13.8474C1.64754 14.2312 2.10518 14.5295 2.60711 14.7184C3.0884 14.9044 3.6375 15.0343 4.44069 15.0697C5.24664 15.1052 5.5036 15.114 7.55561 15.114C9.60763 15.114 9.86448 15.1052 10.6705 15.0697C11.4736 15.0343 12.0257 14.9044 12.504 14.7184C13.5197 14.3257 14.3228 13.5226 14.7155 12.507C14.9014 12.0257 15.0314 11.4765 15.0668 10.6734C15.1022 9.86736 15.1111 9.61051 15.1111 7.5585C15.1111 5.50648 15.1081 5.24963 15.0727 4.44357ZM13.7117 10.6144C13.6791 11.3525 13.5551 11.7511 13.4518 12.0168C13.1978 12.6753 12.6753 13.1978 12.0168 13.4518C11.7511 13.5551 11.3496 13.6791 10.6144 13.7115C9.81719 13.7471 9.5781 13.7558 7.5615 13.7558C5.54489 13.7558 5.3028 13.7471 4.5085 13.7115C3.77037 13.6791 3.37178 13.5551 3.10605 13.4518C2.77838 13.3307 2.48013 13.1388 2.23805 12.8878C1.98708 12.6427 1.79517 12.3475 1.67407 12.0198C1.57073 11.7541 1.44674 11.3525 1.41433 10.6174C1.37881 9.82019 1.37005 9.58098 1.37005 7.56438C1.37005 5.54777 1.37881 5.30569 1.41433 4.5115C1.44674 3.77337 1.57073 3.37477 1.67407 3.10905C1.79517 2.78127 1.98708 2.48313 2.24105 2.24093C2.48601 1.98996 2.78127 1.79805 3.10905 1.67706C3.37477 1.57373 3.77637 1.44974 4.5115 1.41722C5.30869 1.38181 5.54789 1.37293 7.56438 1.37293C9.58398 1.37293 9.82307 1.38181 10.6174 1.41722C11.3555 1.44974 11.7541 1.57373 12.0198 1.67706C12.3475 1.79805 12.6457 1.98996 12.8878 2.24093C13.1388 2.48601 13.3307 2.78127 13.4518 3.10905C13.5551 3.37477 13.6791 3.77625 13.7117 4.5115C13.7471 5.30869 13.7559 5.54777 13.7559 7.56438C13.7559 9.58098 13.7471 9.81719 13.7117 10.6144Z" fill="white"/>
<path d="M7.55861 3.67578C5.41514 3.67578 3.67603 5.41478 3.67603 7.55837C3.67603 9.70196 5.41514 11.441 7.55861 11.441C9.7022 11.441 11.4412 9.70196 11.4412 7.55837C11.4412 5.41478 9.7022 3.67578 7.55861 3.67578ZM7.55861 10.0769C6.16804 10.0769 5.04007 8.94906 5.04007 7.55837C5.04007 6.16768 6.16804 5.03983 7.55861 5.03983C8.9493 5.03983 10.0771 6.16768 10.0771 7.55837C10.0771 8.94906 8.9493 10.0769 7.55861 10.0769Z" fill="white"/>
<path d="M12.5012 3.52359C12.5012 4.02414 12.0953 4.43 11.5946 4.43C11.0941 4.43 10.6882 4.02414 10.6882 3.52359C10.6882 3.02293 11.0941 2.61719 11.5946 2.61719C12.0953 2.61719 12.5012 3.02293 12.5012 3.52359Z" fill="white"/>
</svg>
