<svg width="50" height="50" viewBox="0 0 50 50" fill="none" xmlns="http://www.w3.org/2000/svg">
<path d="M25 50C38.8071 50 50 38.8071 50 25C50 11.1929 38.8071 0 25 0C11.1929 0 0 11.1929 0 25C0 38.8071 11.1929 50 25 50Z" fill="black" fill-opacity="0.2"/>
<path d="M15.7561 22.6699L19.1331 19.2579C19.2142 19.1762 19.3107 19.1113 19.4171 19.067C19.5234 19.0228 19.6374 19 19.7526 19C19.8677 19 19.9818 19.0228 20.0881 19.067C20.1944 19.1113 20.2909 19.1762 20.3721 19.2579C20.5344 19.4214 20.6255 19.6425 20.6255 19.8729C20.6255 20.1033 20.5344 20.3244 20.3721 20.4879L17.2651 23.6219H35.0591C35.1737 23.6219 35.2872 23.6445 35.3932 23.6884C35.4991 23.7322 35.5953 23.7965 35.6764 23.8776C35.7575 23.9587 35.8218 24.0549 35.8656 24.1608C35.9095 24.2667 35.9321 24.3803 35.9321 24.4949C35.9321 24.6095 35.9095 24.7231 35.8656 24.829C35.8218 24.9349 35.7575 25.0311 35.6764 25.1122C35.5953 25.1933 35.4991 25.2576 35.3932 25.3014C35.2872 25.3453 35.1737 25.3679 35.0591 25.3679H17.2131L20.3721 28.5179C20.4538 28.599 20.5187 28.6956 20.5629 28.8019C20.6072 28.9082 20.63 29.0222 20.63 29.1374C20.63 29.2526 20.6072 29.3666 20.5629 29.4729C20.5187 29.5792 20.4538 29.6758 20.3721 29.7569C20.2909 29.8386 20.1944 29.9035 20.0881 29.9477C19.9818 29.992 19.8677 30.0148 19.7526 30.0148C19.6374 30.0148 19.5234 29.992 19.4171 29.9477C19.3107 29.9035 19.2142 29.8386 19.1331 29.7569L15.7561 26.3709C15.2655 25.88 14.99 25.2144 14.99 24.5204C14.99 23.8264 15.2655 23.1608 15.7561 22.6699Z" fill="white"/>
</svg>
