<svg width="14" height="17" viewBox="0 0 14 17" fill="none" xmlns="http://www.w3.org/2000/svg">
<path d="M7.00003 4.25C6.42995 4.25 5.87268 4.41202 5.39868 4.71556C4.92468 5.01911 4.55524 5.45056 4.33708 5.95534C4.11892 6.46012 4.06184 7.01556 4.17306 7.55144C4.28428 8.08731 4.55879 8.57954 4.9619 8.96588C5.365 9.35222 5.87859 9.61533 6.43771 9.72192C6.99683 9.82851 7.57638 9.7738 8.10306 9.56472C8.62974 9.35563 9.0799 9.00155 9.39662 8.54726C9.71333 8.09297 9.88238 7.55887 9.88238 7.0125C9.88238 6.27984 9.57871 5.57719 9.03816 5.05912C8.49761 4.54105 7.76448 4.25 7.00003 4.25ZM7.00003 8.39375C6.71499 8.39375 6.43636 8.31274 6.19936 8.16097C5.96235 8.00919 5.77764 7.79347 5.66856 7.54108C5.55948 7.28869 5.53094 7.01097 5.58654 6.74303C5.64215 6.47509 5.77941 6.22898 5.98096 6.03581C6.18252 5.84264 6.43931 5.71109 6.71887 5.65779C6.99843 5.60449 7.2882 5.63185 7.55154 5.73639C7.81488 5.84093 8.03997 6.01797 8.19832 6.24512C8.35668 6.47226 8.44121 6.73931 8.44121 7.0125C8.44121 7.37883 8.28937 7.73016 8.01909 7.98919C7.74882 8.24822 7.38225 8.39375 7.00003 8.39375Z" fill="#C33B49"/>
<path d="M7 17C6.41379 17.003 5.83538 16.8631 5.31322 16.592C4.79106 16.3209 4.34034 15.9265 3.99881 15.4418C1.3457 11.7184 0 8.91927 0 7.12168C0 5.23289 0.737498 3.42146 2.05025 2.08589C3.36301 0.750318 5.14348 0 7 0C8.85652 0 10.637 0.750318 11.9497 2.08589C13.2625 3.42146 14 5.23289 14 7.12168C14 8.91927 12.6543 11.7184 10.0012 15.4418C9.65966 15.9265 9.20894 16.3209 8.68678 16.592C8.16462 16.8631 7.58622 17.003 7 17ZM7 1.54616C5.54668 1.54785 4.15337 2.13596 3.12572 3.18147C2.09807 4.22698 1.52001 5.64452 1.51835 7.12309C1.51835 8.54672 2.8362 11.1794 5.22824 14.5359C5.43131 14.8204 5.69772 15.052 6.00567 15.2118C6.31362 15.3715 6.65435 15.4547 7 15.4547C7.34565 15.4547 7.68638 15.3715 7.99433 15.2118C8.30228 15.052 8.56869 14.8204 8.77176 14.5359C11.1638 11.1794 12.4817 8.54672 12.4817 7.12309C12.48 5.64452 11.9019 4.22698 10.8743 3.18147C9.84663 2.13596 8.45332 1.54785 7 1.54616Z" fill="#C33B49"/>
</svg>
