<svg width="120" height="29" viewBox="0 0 120 29" fill="none" xmlns="http://www.w3.org/2000/svg">
<mask id="path-1-outside-1_30_129" maskUnits="userSpaceOnUse" x="0" y="0" width="120" height="29" fill="black">
<rect fill="white" width="120" height="29"/>
<path d="M2 2H9.93447C11.1873 2.41177 12.2512 3.17647 13.1262 4.29412C14.021 5.39216 14.4685 6.7451 14.4685 8.35294C14.4685 10.9804 13.4145 12.9118 11.3066 14.1471L14.3193 22.5882H10.1433L7.60782 15.0882H6.02689V22.5882H2V2ZM6.02689 5.52941V11.7941H8.59218C8.93024 11.7157 9.29813 11.3824 9.69584 10.7941C10.1134 10.1863 10.3222 9.48039 10.3222 8.67647C10.3222 7.87255 10.1433 7.16667 9.78533 6.55882C9.44727 5.95098 9.10921 5.60784 8.77115 5.52941H6.02689Z"/>
<path d="M22.6071 10.6471H20.3699C20.0716 11 19.823 11.4902 19.6242 12.1176C19.4452 12.7451 19.3557 13.3529 19.3557 13.9412H23.6213C23.661 13.3529 23.5815 12.7451 23.3826 12.1176C23.1838 11.4706 22.9252 10.9804 22.6071 10.6471ZM26.6638 19.5V22.5882H19.0873C17.6953 21.6667 16.7109 20.5294 16.1342 19.1765C15.5774 17.8039 15.299 16.4216 15.299 15.0294C15.299 11.8137 16.5319 9.32353 18.9978 7.55882H23.8301C25.1624 8.51961 26.0672 9.53922 26.5445 10.6176C27.0217 11.6961 27.2604 12.7843 27.2604 13.8824C27.2604 14.9804 27.1709 15.9216 26.9919 16.7059H19.5645C19.6242 17.1569 19.7932 17.6765 20.0716 18.2647C20.3699 18.8333 20.6881 19.2451 21.0261 19.5H26.6638Z"/>
<path d="M36.4507 15.7941H33.259C32.8414 16.3039 32.6326 16.9412 32.6326 17.7059C32.6326 18.4706 32.8513 19.0686 33.2888 19.5H36.4507V15.7941ZM30.0375 7.55882H37.435C38.6282 8.26471 39.4137 9.07843 39.7915 10C40.1694 10.902 40.3583 12.1373 40.3583 13.7059V18.1176C40.3583 19.7451 40.398 21.2353 40.4776 22.5882H37.0771L36.5402 21.5294C35.7646 22.2353 34.6709 22.5882 33.259 22.5882H31.3798C29.6895 21.4902 28.8443 19.9118 28.8443 17.8529C28.8443 15.7745 29.7094 14.1373 31.4394 12.9412H34.2434C35.0189 12.9412 35.7447 13.1765 36.4209 13.6471V12.1765C36.4209 11.4118 36.0828 10.902 35.4067 10.6471H30.0375V7.55882Z"/>
<path d="M46.8612 2V22.5882H42.9238V2H46.8612Z"/>
<path d="M50.3146 16.0294V10.6471H48.2564V7.55882H50.3146V3.47059H54.2818V7.55882H56.7278V10.6471H54.2818V16.9706C54.2818 18.1667 54.4906 19.0098 54.9082 19.5H56.7278V22.5882H52.4921C51.4381 21.6275 50.8018 20.5882 50.583 19.4706C50.4041 18.5294 50.3146 17.3824 50.3146 16.0294Z"/>
<path d="M58.3313 14.3235V7.55882H62.2986V14.3529C62.2986 16.0588 62.6466 17.4804 63.3426 18.6176H65.1025C65.7587 17.5 66.0868 16.0784 66.0868 14.3529V7.55882H70.0541V14.1176C70.0541 15.5882 69.8552 16.8824 69.4575 18C69.0796 19.1176 68.4532 20.3824 67.5783 21.7941L65.5797 25C65.2218 25.6078 64.8439 26.0588 64.4462 26.3529C64.0485 26.6471 63.5315 26.8627 62.8951 27H58.1822V23.9118H61.4037C61.8213 23.7941 62.1693 23.5882 62.4477 23.2941C62.7261 23 63.0144 22.5784 63.3127 22.0294L63.4917 21.7059H61.4335C60.479 20.9412 59.7233 19.9118 59.1665 18.6176C58.6097 17.3039 58.3313 15.8725 58.3313 14.3235Z"/>
<path d="M72.6687 22.5882V2H76.7553V19.1765H82.9597V22.5882H72.6687Z"/>
<path d="M84.8415 22.5882V7.55882H88.7789V22.5882H84.8415ZM84.8415 2H88.7789V5.97059H84.8415V2Z"/>
<path d="M97.9594 7.55882H101.121C101.996 8.65686 102.593 9.7549 102.911 10.8529C103.229 11.951 103.388 13.3235 103.388 14.9706V22.5882H99.421V14.6765C99.421 12.8137 99.1625 11.4706 98.6455 10.6471H95.3046V22.5882H91.3374V7.55882H94.4396L94.9765 8.61765C95.414 8.22549 95.8217 7.95098 96.1995 7.79412C96.5972 7.63725 97.1839 7.55882 97.9594 7.55882Z"/>
<path d="M110.885 13.1471L112.734 7.55882H116.881L114.047 14.8824L117 22.5882H112.913L110.855 16.7647H110.736L108.767 22.5882H104.681L107.634 14.8824L104.8 7.55882H108.887L110.766 13.1471H110.885Z"/>
</mask>
<path d="M2 2H9.93447C11.1873 2.41177 12.2512 3.17647 13.1262 4.29412C14.021 5.39216 14.4685 6.7451 14.4685 8.35294C14.4685 10.9804 13.4145 12.9118 11.3066 14.1471L14.3193 22.5882H10.1433L7.60782 15.0882H6.02689V22.5882H2V2ZM6.02689 5.52941V11.7941H8.59218C8.93024 11.7157 9.29813 11.3824 9.69584 10.7941C10.1134 10.1863 10.3222 9.48039 10.3222 8.67647C10.3222 7.87255 10.1433 7.16667 9.78533 6.55882C9.44727 5.95098 9.10921 5.60784 8.77115 5.52941H6.02689Z" fill="white"/>
<path d="M22.6071 10.6471H20.3699C20.0716 11 19.823 11.4902 19.6242 12.1176C19.4452 12.7451 19.3557 13.3529 19.3557 13.9412H23.6213C23.661 13.3529 23.5815 12.7451 23.3826 12.1176C23.1838 11.4706 22.9252 10.9804 22.6071 10.6471ZM26.6638 19.5V22.5882H19.0873C17.6953 21.6667 16.7109 20.5294 16.1342 19.1765C15.5774 17.8039 15.299 16.4216 15.299 15.0294C15.299 11.8137 16.5319 9.32353 18.9978 7.55882H23.8301C25.1624 8.51961 26.0672 9.53922 26.5445 10.6176C27.0217 11.6961 27.2604 12.7843 27.2604 13.8824C27.2604 14.9804 27.1709 15.9216 26.9919 16.7059H19.5645C19.6242 17.1569 19.7932 17.6765 20.0716 18.2647C20.3699 18.8333 20.6881 19.2451 21.0261 19.5H26.6638Z" fill="white"/>
<path d="M36.4507 15.7941H33.259C32.8414 16.3039 32.6326 16.9412 32.6326 17.7059C32.6326 18.4706 32.8513 19.0686 33.2888 19.5H36.4507V15.7941ZM30.0375 7.55882H37.435C38.6282 8.26471 39.4137 9.07843 39.7915 10C40.1694 10.902 40.3583 12.1373 40.3583 13.7059V18.1176C40.3583 19.7451 40.398 21.2353 40.4776 22.5882H37.0771L36.5402 21.5294C35.7646 22.2353 34.6709 22.5882 33.259 22.5882H31.3798C29.6895 21.4902 28.8443 19.9118 28.8443 17.8529C28.8443 15.7745 29.7094 14.1373 31.4394 12.9412H34.2434C35.0189 12.9412 35.7447 13.1765 36.4209 13.6471V12.1765C36.4209 11.4118 36.0828 10.902 35.4067 10.6471H30.0375V7.55882Z" fill="white"/>
<path d="M46.8612 2V22.5882H42.9238V2H46.8612Z" fill="white"/>
<path d="M50.3146 16.0294V10.6471H48.2564V7.55882H50.3146V3.47059H54.2818V7.55882H56.7278V10.6471H54.2818V16.9706C54.2818 18.1667 54.4906 19.0098 54.9082 19.5H56.7278V22.5882H52.4921C51.4381 21.6275 50.8018 20.5882 50.583 19.4706C50.4041 18.5294 50.3146 17.3824 50.3146 16.0294Z" fill="white"/>
<path d="M58.3313 14.3235V7.55882H62.2986V14.3529C62.2986 16.0588 62.6466 17.4804 63.3426 18.6176H65.1025C65.7587 17.5 66.0868 16.0784 66.0868 14.3529V7.55882H70.0541V14.1176C70.0541 15.5882 69.8552 16.8824 69.4575 18C69.0796 19.1176 68.4532 20.3824 67.5783 21.7941L65.5797 25C65.2218 25.6078 64.8439 26.0588 64.4462 26.3529C64.0485 26.6471 63.5315 26.8627 62.8951 27H58.1822V23.9118H61.4037C61.8213 23.7941 62.1693 23.5882 62.4477 23.2941C62.7261 23 63.0144 22.5784 63.3127 22.0294L63.4917 21.7059H61.4335C60.479 20.9412 59.7233 19.9118 59.1665 18.6176C58.6097 17.3039 58.3313 15.8725 58.3313 14.3235Z" fill="white"/>
<path d="M72.6687 22.5882V2H76.7553V19.1765H82.9597V22.5882H72.6687Z" fill="white"/>
<path d="M84.8415 22.5882V7.55882H88.7789V22.5882H84.8415ZM84.8415 2H88.7789V5.97059H84.8415V2Z" fill="white"/>
<path d="M97.9594 7.55882H101.121C101.996 8.65686 102.593 9.7549 102.911 10.8529C103.229 11.951 103.388 13.3235 103.388 14.9706V22.5882H99.421V14.6765C99.421 12.8137 99.1625 11.4706 98.6455 10.6471H95.3046V22.5882H91.3374V7.55882H94.4396L94.9765 8.61765C95.414 8.22549 95.8217 7.95098 96.1995 7.79412C96.5972 7.63725 97.1839 7.55882 97.9594 7.55882Z" fill="white"/>
<path d="M110.885 13.1471L112.734 7.55882H116.881L114.047 14.8824L117 22.5882H112.913L110.855 16.7647H110.736L108.767 22.5882H104.681L107.634 14.8824L104.8 7.55882H108.887L110.766 13.1471H110.885Z" fill="white"/>
<path d="M2 2H9.93447C11.1873 2.41177 12.2512 3.17647 13.1262 4.29412C14.021 5.39216 14.4685 6.7451 14.4685 8.35294C14.4685 10.9804 13.4145 12.9118 11.3066 14.1471L14.3193 22.5882H10.1433L7.60782 15.0882H6.02689V22.5882H2V2ZM6.02689 5.52941V11.7941H8.59218C8.93024 11.7157 9.29813 11.3824 9.69584 10.7941C10.1134 10.1863 10.3222 9.48039 10.3222 8.67647C10.3222 7.87255 10.1433 7.16667 9.78533 6.55882C9.44727 5.95098 9.10921 5.60784 8.77115 5.52941H6.02689Z" stroke="black" stroke-width="4" mask="url(#path-1-outside-1_30_129)"/>
<path d="M22.6071 10.6471H20.3699C20.0716 11 19.823 11.4902 19.6242 12.1176C19.4452 12.7451 19.3557 13.3529 19.3557 13.9412H23.6213C23.661 13.3529 23.5815 12.7451 23.3826 12.1176C23.1838 11.4706 22.9252 10.9804 22.6071 10.6471ZM26.6638 19.5V22.5882H19.0873C17.6953 21.6667 16.7109 20.5294 16.1342 19.1765C15.5774 17.8039 15.299 16.4216 15.299 15.0294C15.299 11.8137 16.5319 9.32353 18.9978 7.55882H23.8301C25.1624 8.51961 26.0672 9.53922 26.5445 10.6176C27.0217 11.6961 27.2604 12.7843 27.2604 13.8824C27.2604 14.9804 27.1709 15.9216 26.9919 16.7059H19.5645C19.6242 17.1569 19.7932 17.6765 20.0716 18.2647C20.3699 18.8333 20.6881 19.2451 21.0261 19.5H26.6638Z" stroke="black" stroke-width="4" mask="url(#path-1-outside-1_30_129)"/>
<path d="M36.4507 15.7941H33.259C32.8414 16.3039 32.6326 16.9412 32.6326 17.7059C32.6326 18.4706 32.8513 19.0686 33.2888 19.5H36.4507V15.7941ZM30.0375 7.55882H37.435C38.6282 8.26471 39.4137 9.07843 39.7915 10C40.1694 10.902 40.3583 12.1373 40.3583 13.7059V18.1176C40.3583 19.7451 40.398 21.2353 40.4776 22.5882H37.0771L36.5402 21.5294C35.7646 22.2353 34.6709 22.5882 33.259 22.5882H31.3798C29.6895 21.4902 28.8443 19.9118 28.8443 17.8529C28.8443 15.7745 29.7094 14.1373 31.4394 12.9412H34.2434C35.0189 12.9412 35.7447 13.1765 36.4209 13.6471V12.1765C36.4209 11.4118 36.0828 10.902 35.4067 10.6471H30.0375V7.55882Z" stroke="black" stroke-width="4" mask="url(#path-1-outside-1_30_129)"/>
<path d="M46.8612 2V22.5882H42.9238V2H46.8612Z" stroke="black" stroke-width="4" mask="url(#path-1-outside-1_30_129)"/>
<path d="M50.3146 16.0294V10.6471H48.2564V7.55882H50.3146V3.47059H54.2818V7.55882H56.7278V10.6471H54.2818V16.9706C54.2818 18.1667 54.4906 19.0098 54.9082 19.5H56.7278V22.5882H52.4921C51.4381 21.6275 50.8018 20.5882 50.583 19.4706C50.4041 18.5294 50.3146 17.3824 50.3146 16.0294Z" stroke="black" stroke-width="4" mask="url(#path-1-outside-1_30_129)"/>
<path d="M58.3313 14.3235V7.55882H62.2986V14.3529C62.2986 16.0588 62.6466 17.4804 63.3426 18.6176H65.1025C65.7587 17.5 66.0868 16.0784 66.0868 14.3529V7.55882H70.0541V14.1176C70.0541 15.5882 69.8552 16.8824 69.4575 18C69.0796 19.1176 68.4532 20.3824 67.5783 21.7941L65.5797 25C65.2218 25.6078 64.8439 26.0588 64.4462 26.3529C64.0485 26.6471 63.5315 26.8627 62.8951 27H58.1822V23.9118H61.4037C61.8213 23.7941 62.1693 23.5882 62.4477 23.2941C62.7261 23 63.0144 22.5784 63.3127 22.0294L63.4917 21.7059H61.4335C60.479 20.9412 59.7233 19.9118 59.1665 18.6176C58.6097 17.3039 58.3313 15.8725 58.3313 14.3235Z" stroke="black" stroke-width="4" mask="url(#path-1-outside-1_30_129)"/>
<path d="M72.6687 22.5882V2H76.7553V19.1765H82.9597V22.5882H72.6687Z" stroke="black" stroke-width="4" mask="url(#path-1-outside-1_30_129)"/>
<path d="M84.8415 22.5882V7.55882H88.7789V22.5882H84.8415ZM84.8415 2H88.7789V5.97059H84.8415V2Z" stroke="black" stroke-width="4" mask="url(#path-1-outside-1_30_129)"/>
<path d="M97.9594 7.55882H101.121C101.996 8.65686 102.593 9.7549 102.911 10.8529C103.229 11.951 103.388 13.3235 103.388 14.9706V22.5882H99.421V14.6765C99.421 12.8137 99.1625 11.4706 98.6455 10.6471H95.3046V22.5882H91.3374V7.55882H94.4396L94.9765 8.61765C95.414 8.22549 95.8217 7.95098 96.1995 7.79412C96.5972 7.63725 97.1839 7.55882 97.9594 7.55882Z" stroke="black" stroke-width="4" mask="url(#path-1-outside-1_30_129)"/>
<path d="M110.885 13.1471L112.734 7.55882H116.881L114.047 14.8824L117 22.5882H112.913L110.855 16.7647H110.736L108.767 22.5882H104.681L107.634 14.8824L104.8 7.55882H108.887L110.766 13.1471H110.885Z" stroke="black" stroke-width="4" mask="url(#path-1-outside-1_30_129)"/>
</svg>
