<svg width="42" height="42" viewBox="0 0 42 42" fill="none" xmlns="http://www.w3.org/2000/svg">
<circle cx="21" cy="21" r="21" fill="#C33B49" fill-opacity="0.1"/>
<path d="M21.7365 12.7524C21.7365 12.5532 21.8157 12.3621 21.9566 12.2212C22.0975 12.0803 22.2885 12.0012 22.4878 12.0012C24.4795 12.0034 26.389 12.7956 27.7973 14.2039C29.2056 15.6123 29.9978 17.5218 30 19.5135C30 19.7128 29.9209 19.9039 29.78 20.0447C29.6391 20.1856 29.448 20.2648 29.2488 20.2648C29.0495 20.2648 28.8585 20.1856 28.7176 20.0447C28.5767 19.9039 28.4976 19.7128 28.4976 19.5135C28.4958 17.9202 27.862 16.3926 26.7354 15.2659C25.6087 14.1392 24.0811 13.5055 22.4878 13.5037C22.2885 13.5037 22.0975 13.4245 21.9566 13.2836C21.8157 13.1428 21.7365 12.9517 21.7365 12.7524ZM22.4878 16.5086C23.2847 16.5086 24.049 16.8252 24.6125 17.3887C25.1761 17.9523 25.4927 18.7166 25.4927 19.5135C25.4927 19.7128 25.5718 19.9039 25.7127 20.0447C25.8536 20.1856 26.0446 20.2648 26.2439 20.2648C26.4431 20.2648 26.6342 20.1856 26.7751 20.0447C26.916 19.9039 26.9951 19.7128 26.9951 19.5135C26.9939 18.3185 26.5187 17.1727 25.6736 16.3276C24.8286 15.4826 23.6828 15.0073 22.4878 15.0061C22.2885 15.0061 22.0975 15.0853 21.9566 15.2262C21.8157 15.3671 21.7365 15.5581 21.7365 15.7574C21.7365 15.9566 21.8157 16.1477 21.9566 16.2886C22.0975 16.4295 22.2885 16.5086 22.4878 16.5086ZM29.3186 24.5761C29.754 25.0127 29.9985 25.604 29.9985 26.2206C29.9985 26.8371 29.754 27.4285 29.3186 27.865L28.635 28.6531C22.4825 34.5435 7.51063 19.5751 13.3101 13.403L14.174 12.6518C14.611 12.2286 15.1971 11.9945 15.8054 12.0001C16.4137 12.0057 16.9954 12.2506 17.4245 12.6818C17.4478 12.7051 18.8398 14.5133 18.8398 14.5133C19.2529 14.9473 19.4828 15.5237 19.4818 16.1228C19.4808 16.7219 19.249 17.2975 18.8346 17.7301L17.9647 18.8239C18.4461 19.9937 19.1539 21.0568 20.0474 21.9521C20.941 22.8475 22.0026 23.5574 23.1714 24.0412L24.2719 23.166C24.7046 22.7519 25.2801 22.5203 25.879 22.5195C26.4779 22.5187 27.0541 22.7486 27.4879 23.1615C27.4879 23.1615 29.2954 24.5528 29.3186 24.5761ZM28.285 25.6684C28.285 25.6684 26.4873 24.2854 26.464 24.2621C26.3092 24.1086 26.1001 24.0225 25.8822 24.0225C25.6642 24.0225 25.4551 24.1086 25.3003 24.2621C25.2801 24.2831 23.7648 25.4904 23.7648 25.4904C23.6627 25.5716 23.5412 25.6249 23.4123 25.6449C23.2833 25.665 23.1513 25.651 23.0294 25.6045C21.5153 25.0408 20.14 24.1582 18.9967 23.0166C17.8534 21.875 16.9688 20.501 16.4029 18.9877C16.3527 18.8641 16.3363 18.7293 16.3555 18.5973C16.3746 18.4653 16.4286 18.3407 16.5118 18.2364C16.5118 18.2364 17.719 16.7205 17.7393 16.7009C17.8927 16.5462 17.9788 16.337 17.9788 16.1191C17.9788 15.9011 17.8927 15.692 17.7393 15.5373C17.716 15.5147 16.333 13.7155 16.333 13.7155C16.1759 13.5747 15.9709 13.4992 15.76 13.5047C15.5491 13.5101 15.3483 13.596 15.1987 13.7448L14.3347 14.496C10.0963 19.5924 23.0707 31.8473 27.5367 27.6269L28.2211 26.8381C28.3815 26.6895 28.4778 26.4844 28.4897 26.2662C28.5016 26.0479 28.4282 25.8335 28.285 25.6684Z" fill="#C33B49"/>
</svg>
