<svg width="13" height="15" viewBox="0 0 13 15" fill="none" xmlns="http://www.w3.org/2000/svg">
<path d="M6.29747 0C2.18635 0 0 2.63449 0 5.50712C0 6.83937 0.744409 8.5007 1.93603 9.0276C2.11697 9.10916 2.21541 9.07447 2.25573 8.90665C2.29135 8.77915 2.44792 8.16506 2.52386 7.87536C2.5473 7.78254 2.53512 7.70191 2.46011 7.61472C2.06447 7.1572 1.75039 6.32372 1.75039 5.54181C1.75039 3.53829 3.34328 1.59288 6.05371 1.59288C8.39757 1.59288 10.0373 3.11545 10.0373 5.29337C10.0373 7.75441 8.73508 9.45699 7.04282 9.45699C6.10621 9.45699 5.40868 8.72196 5.62994 7.81254C5.89714 6.72968 6.42123 5.56525 6.42123 4.78428C6.42123 4.08394 6.02559 3.50453 5.21742 3.50453C4.26394 3.50453 3.49047 4.44864 3.49047 5.7162C3.49047 6.52155 3.77548 7.06532 3.77548 7.06532C3.77548 7.06532 2.83232 10.8755 2.657 11.5871C2.36073 12.7918 2.69731 14.7429 2.72637 14.9107C2.74419 15.0035 2.84825 15.0326 2.90638 14.9566C2.9992 14.8347 4.13925 13.2081 4.45895 12.0324C4.57521 11.604 5.05242 9.8667 5.05242 9.8667C5.36649 10.4339 6.2731 10.9092 7.23877 10.9092C10.1114 10.9092 12.1871 8.38444 12.1871 5.25118C12.1768 2.24729 9.60606 0 6.29747 0Z" fill="white"/>
</svg>
