<svg width="50" height="50" viewBox="0 0 50 50" fill="none" xmlns="http://www.w3.org/2000/svg">
<path d="M25 50C38.8071 50 50 38.8071 50 25C50 11.1929 38.8071 0 25 0C11.1929 0 0 11.1929 0 25C0 38.8071 11.1929 50 25 50Z" fill="black"/>
<path d="M35.156 22.6699L31.78 19.2579C31.6988 19.1762 31.6023 19.1113 31.496 19.067C31.3897 19.0228 31.2757 19 31.1605 19C31.0453 19 30.9313 19.0228 30.825 19.067C30.7186 19.1113 30.6221 19.1762 30.541 19.2579C30.3787 19.4214 30.2876 19.6425 30.2876 19.8729C30.2876 20.1033 30.3787 20.3244 30.541 20.4879L33.648 23.6209H15.853C15.7382 23.6209 15.6245 23.6435 15.5184 23.6875C15.4124 23.7315 15.3161 23.796 15.235 23.8773C15.1539 23.9586 15.0896 24.0551 15.0459 24.1612C15.0021 24.2674 14.9797 24.3811 14.98 24.4959C14.98 24.7274 15.072 24.9495 15.2357 25.1132C15.3994 25.2769 15.6214 25.3689 15.853 25.3689H33.699L30.54 28.5189C30.4583 28.6 30.3934 28.6966 30.3491 28.8029C30.3049 28.9092 30.2821 29.0232 30.2821 29.1384C30.2821 29.2536 30.3049 29.3676 30.3491 29.4739C30.3934 29.5802 30.4583 29.6768 30.54 29.7579C30.6211 29.8396 30.7176 29.9045 30.824 29.9487C30.9303 29.993 31.0443 30.0158 31.1595 30.0158C31.2747 30.0158 31.3887 29.993 31.495 29.9487C31.6013 29.9045 31.6978 29.8396 31.779 29.7579L35.156 26.3719C35.6468 25.8809 35.9226 25.2151 35.9226 24.5209C35.9226 23.8267 35.6468 23.1609 35.156 22.6699Z" fill="white"/>
</svg>
