<svg width="95" height="95" viewBox="0 0 95 95" fill="none" xmlns="http://www.w3.org/2000/svg">
<rect width="95" height="95" rx="47.5" transform="matrix(1 0 0 -1 0 95.0001)" fill="white"/>
<path d="M18.6903 62.8796L18.3061 62.058C18.53 61.9316 18.7051 61.7553 18.8316 61.5293C18.9493 61.3001 19.0061 61.0414 19.0019 60.7531C18.9949 60.4589 18.9163 60.1511 18.7659 59.8296C18.6351 59.5498 18.4878 59.3357 18.3241 59.1873C18.1604 59.0389 17.9921 58.9507 17.8194 58.9227C17.6379 58.8914 17.4549 58.919 17.2703 59.0053C17.0858 59.0916 16.9636 59.2104 16.9038 59.3618C16.838 59.5159 16.8167 59.7108 16.8399 59.9467C16.8572 60.1853 16.8997 60.4701 16.9674 60.8012C17.0245 61.0938 17.0682 61.389 17.0986 61.6867C17.1203 61.9813 17.1127 62.2678 17.076 62.5462C17.0366 62.8186 16.9522 63.0648 16.8229 63.2849C16.6849 63.5018 16.479 63.6743 16.2051 63.8024C15.9134 63.9388 15.6109 63.9823 15.2976 63.9329C14.9783 63.8863 14.6748 63.7417 14.3872 63.4989C14.0908 63.253 13.8382 62.9067 13.6293 62.4602C13.3064 61.7696 13.2354 61.1679 13.4165 60.6552C13.5947 60.1365 13.9754 59.748 14.5585 59.4899L14.9343 60.2936C14.5378 60.5008 14.3089 60.7638 14.2476 61.0827C14.1804 61.4044 14.2359 61.7557 14.4141 62.1368C14.5672 62.4642 14.7665 62.712 15.012 62.8802C15.2516 63.0511 15.5143 63.0698 15.8 62.9361C15.9251 62.8777 16.0227 62.7994 16.0929 62.7012C16.1571 62.6059 16.1987 62.4776 16.2176 62.3164C16.2366 62.1552 16.233 61.9537 16.207 61.7119C16.1782 61.4641 16.1317 61.163 16.0675 60.8085C16.0097 60.5453 15.971 60.2841 15.9514 60.0248C15.9289 59.7596 15.9384 59.5084 15.9799 59.2714C16.0214 59.0343 16.1168 58.8192 16.2659 58.6261C16.4122 58.4271 16.6283 58.2607 16.9141 58.1271C17.2177 57.9851 17.5294 57.9301 17.849 57.962C18.1627 57.9967 18.4678 58.137 18.7642 58.3829C19.0518 58.6257 19.3112 58.9941 19.5423 59.4883C19.726 59.8812 19.8355 60.2472 19.8707 60.5863C19.9032 60.9194 19.8849 61.2217 19.8161 61.4934C19.7444 61.7591 19.6428 61.9916 19.5111 62.1911C19.3766 62.3845 19.2358 62.5411 19.0886 62.6607C18.9386 62.7744 18.8059 62.8474 18.6903 62.8796Z" fill="#6A6A6A"/>
<path d="M14.4393 49.0337C14.9204 49.0135 15.3508 49.1079 15.7306 49.3168C16.1093 49.5193 16.4239 49.8154 16.6745 50.2051C16.925 50.5948 17.0948 51.0576 17.1839 51.5936C17.2644 52.0779 17.2642 52.5358 17.1833 52.9673C17.1013 53.3923 16.9461 53.7764 16.7178 54.1196C16.4895 54.4628 16.1891 54.7516 15.8167 54.986C15.4378 55.2215 14.9965 55.3811 14.4928 55.4648C13.9827 55.5496 13.5135 55.5413 13.0852 55.4399C12.657 55.3386 12.2793 55.1625 11.9523 54.9116C11.6188 54.6617 11.3445 54.349 11.1295 53.9733C10.9133 53.5912 10.765 53.158 10.6845 52.6737C10.5944 52.1312 10.6081 51.6346 10.7256 51.1838C10.8366 50.734 11.0418 50.3515 11.3412 50.0363C11.6329 49.7158 12.0097 49.4873 12.4714 49.3508L12.6195 50.2419C12.33 50.3763 12.0947 50.5581 11.9138 50.7872C11.7329 51.0163 11.6107 51.2789 11.5471 51.5748C11.477 51.8718 11.4704 52.1914 11.5272 52.5336C11.6002 52.9727 11.7604 53.3575 12.0077 53.688C12.2551 54.0185 12.5746 54.264 12.9662 54.4245C13.3568 54.5786 13.8136 54.6122 14.3367 54.5253C14.8533 54.4394 15.2747 54.2599 15.6009 53.9867C15.9195 53.7081 16.1424 53.3725 16.2696 52.9797C16.3903 52.5881 16.4142 52.1727 16.3412 51.7336C16.2843 51.3914 16.1785 51.0938 16.0236 50.8408C15.8677 50.5814 15.6671 50.3725 15.4218 50.2142C15.1765 50.0559 14.8979 49.9562 14.5858 49.9152L14.4393 49.0337Z" fill="#6A6A6A"/>
<path d="M16.5478 45.6732L10.1863 44.8785L10.5952 41.6047C10.6524 41.1473 10.7699 40.7637 10.948 40.4542C11.1203 40.1372 11.3547 39.9077 11.6512 39.7655C11.9412 39.6225 12.2953 39.5772 12.7135 39.6294C13.001 39.6653 13.2399 39.7449 13.4303 39.8683C13.6149 39.9842 13.7623 40.1321 13.8726 40.3118C13.9829 40.4915 14.0601 40.6969 14.1042 40.928C14.1484 41.1592 14.1643 41.4034 14.1521 41.6607L14.0847 41.722C14.1459 41.3381 14.2288 41.0199 14.3333 40.7675C14.4379 40.5151 14.5935 40.3321 14.8001 40.2186C15.001 40.0977 15.2845 40.0601 15.6504 40.1058L17.2187 40.3017L17.1 41.2525L15.561 41.0602C15.3062 41.0284 15.1016 41.046 14.9472 41.113C14.7928 41.18 14.6732 41.3143 14.5882 41.5161C14.5033 41.7179 14.4372 42.0083 14.3898 42.3873L14.1364 44.4163L16.6653 44.7322L16.5478 45.6732ZM13.313 44.3134L13.6044 41.9806C13.6567 41.5623 13.5913 41.2356 13.4083 41.0004C13.2261 40.7586 12.9651 40.6165 12.6253 40.5741C12.2986 40.5333 12.0336 40.6097 11.8302 40.8033C11.6276 40.9903 11.5002 41.293 11.448 41.7112L11.1566 44.0441L13.313 44.3134Z" fill="#6A6A6A"/>
<path d="M19.413 34.4029C19.1464 35.0095 18.7857 35.4958 18.331 35.862C17.8789 36.2222 17.3683 36.4385 16.7992 36.5108C16.2326 36.5771 15.6401 36.4743 15.0215 36.2024C14.397 35.928 13.9176 35.5596 13.5833 35.0975C13.2517 34.6293 13.0657 34.1069 13.0253 33.5302C12.9876 32.9476 13.102 32.353 13.3686 31.7465C13.6378 31.134 13.9985 30.6476 14.4505 30.2874C14.9026 29.9272 15.4132 29.7109 15.9824 29.6386C16.5516 29.5663 17.1484 29.6674 17.773 29.9419C18.3915 30.2138 18.8666 30.5838 19.1983 31.052C19.5299 31.5201 19.7159 32.0425 19.7562 32.6192C19.7966 33.1958 19.6822 33.7904 19.413 34.4029ZM18.6293 34.0585C18.8193 33.6261 18.9041 33.2048 18.8838 32.7946C18.8634 32.3844 18.7317 32.0077 18.4885 31.6643C18.2453 31.321 17.8775 31.0411 17.385 30.8247C16.8926 30.6083 16.4377 30.5266 16.0203 30.5796C15.6029 30.6326 15.2362 30.7903 14.9203 31.0527C14.5983 31.3125 14.3423 31.6585 14.1523 32.0909C13.9676 32.5113 13.887 32.9309 13.9108 33.3497C13.9285 33.7659 14.0589 34.1457 14.3021 34.489C14.5453 34.8324 14.9131 35.1123 15.4056 35.3287C15.898 35.5451 16.3529 35.6268 16.7703 35.5738C17.1877 35.5208 17.5557 35.3601 17.8743 35.0917C18.1928 34.8233 18.4445 34.4789 18.6293 34.0585Z" fill="#6A6A6A"/>
<path d="M18.1976 23.9862L22.4246 27.5488L24.8418 24.6807L25.4875 25.2249L22.4628 28.8137L17.5901 24.707L18.1976 23.9862Z" fill="#6A6A6A"/>
<path d="M24.7651 17.4308L27.9763 21.958L31.048 19.7792L31.5385 20.4708L27.6948 23.1971L23.9932 17.9784L24.7651 17.4308Z" fill="#6A6A6A"/>
<path d="M35.3809 11.7475L40.7936 10.3632L41.0028 11.1813L35.5901 12.5656L35.3809 11.7475ZM37.8108 11.8963L38.7335 11.6603L40.1275 17.1111L39.2048 17.3471L37.8108 11.8963Z" fill="#6A6A6A"/>
<path d="M47.6653 16.397C47.0042 16.3866 46.4173 16.2431 45.9045 15.9666C45.3982 15.6902 45.0016 15.3042 44.7149 14.8087C44.4346 14.3132 44.2998 13.7285 44.3105 13.0543C44.3212 12.3736 44.4745 11.7901 44.7702 11.3038C45.0725 10.8175 45.481 10.4443 45.9958 10.184C46.5171 9.92378 47.1082 9.7989 47.7693 9.80934C48.4369 9.81987 49.0238 9.96335 49.5301 10.2398C50.0364 10.5162 50.4329 10.9021 50.7197 11.3977C51.0065 11.8932 51.1445 12.4813 51.1338 13.162C51.1231 13.8362 50.9667 14.4164 50.6644 14.9026C50.3621 15.3888 49.9536 15.7621 49.4388 16.0224C48.9241 16.2827 48.3329 16.4076 47.6653 16.397ZM47.6788 15.5429C48.15 15.5503 48.5704 15.4653 48.9398 15.2878C49.3092 15.1103 49.6048 14.8433 49.8264 14.4867C50.0481 14.1302 50.1632 13.6835 50.1716 13.1468C50.1801 12.6101 50.0792 12.1601 49.8689 11.7967C49.6586 11.4333 49.3716 11.1571 49.008 10.968C48.6444 10.7724 48.2271 10.6709 47.7558 10.6635C47.2976 10.6562 46.8805 10.7446 46.5045 10.9285C46.1285 11.1059 45.8297 11.3729 45.608 11.7294C45.3863 12.086 45.2713 12.5326 45.2628 13.0693C45.2543 13.606 45.3552 14.0561 45.5655 14.4195C45.7758 14.7829 46.0661 15.0591 46.4363 15.2483C46.8065 15.4374 47.2206 15.5356 47.6788 15.5429Z" fill="#6A6A6A"/>
<path d="M59.8711 15.9927L59.0667 17.7302L62.7911 19.4546L62.4363 20.2209L57.8565 18.1004L60.5339 12.3177L65.1049 14.4341L64.7501 15.2003L61.0345 13.48L60.2177 15.2442L63.2561 16.651L62.9095 17.3995L59.8711 15.9927Z" fill="#6A6A6A"/>
<path d="M72.3382 19.8402L73.1719 20.551L69.0142 21.4925L68.9739 21.5096L65.5545 22.3992L64.7208 21.6884L69.0427 20.6298L69.0702 20.6276L72.3382 19.8402ZM69.7477 17.6316L69.435 20.9386L69.4297 20.9598L69.0605 25.3884L68.1524 24.6141L68.5686 21.1255L68.559 21.0916L68.914 16.9208L69.7477 17.6316Z" fill="#6A6A6A"/>
<path d="M73.2933 26.9294L73.977 26.4645L75.2665 28.3612C75.4804 28.6759 75.7469 28.8637 76.066 28.9245C76.3888 28.9907 76.7048 28.9187 77.0141 28.7084C77.3343 28.4907 77.5202 28.2215 77.5719 27.9007C77.6273 27.5853 77.548 27.2703 77.334 26.9555L76.1331 25.1892L71.5585 28.2992L71.0272 27.5178L76.3101 23.9263L78.02 26.4415C78.1971 26.702 78.3233 26.9693 78.3986 27.2435C78.483 27.5193 78.5091 27.7912 78.477 28.059C78.4485 28.3323 78.3571 28.5888 78.2028 28.8287C78.0521 29.0739 77.833 29.2943 77.5454 29.4898C77.2632 29.6817 76.9804 29.8026 76.6969 29.8524C76.4171 29.9078 76.1449 29.8984 75.8803 29.8244C75.6249 29.7521 75.3844 29.6259 75.1589 29.446C74.9371 29.2714 74.7376 29.0539 74.5606 28.7934L73.2933 26.9294Z" fill="#6A6A6A"/>
<path d="M81.5775 33.3344L76.3664 35.1793L77.6182 38.7151L76.8222 38.9969L75.2558 34.5726L81.2629 32.4459L81.5775 33.3344Z" fill="#6A6A6A"/>
<path d="M77.5507 44.7401C77.5066 44.0804 77.6012 43.4837 77.8345 42.9498C78.0682 42.4224 78.4202 41.9954 78.8904 41.6687C79.361 41.3486 79.9327 41.166 80.6054 41.1211C81.2847 41.0756 81.8788 41.1802 82.3879 41.4349C82.8974 41.696 83.3031 42.0724 83.6049 42.5639C83.9072 43.062 84.0804 43.6408 84.1245 44.3005C84.1691 44.9667 84.0745 45.5635 83.8408 46.0908C83.6071 46.6182 83.2551 47.0452 82.7849 47.3719C82.3147 47.6985 81.74 47.8846 81.0607 47.93C80.388 47.975 79.7969 47.8669 79.2874 47.6057C78.7778 47.3446 78.3722 46.9682 78.0703 46.4767C77.7685 45.9852 77.5953 45.4063 77.5507 44.7401ZM78.4031 44.6831C78.4345 45.1534 78.5539 45.5653 78.7612 45.9188C78.9686 46.2723 79.2591 46.5448 79.6327 46.7363C80.0063 46.9279 80.4609 47.0057 80.9965 46.9699C81.5321 46.9341 81.9723 46.7964 82.3171 46.5568C82.6619 46.3173 82.9135 46.0085 83.0719 45.6305C83.2369 45.2521 83.3036 44.8278 83.2722 44.3575C83.2416 43.9003 83.1192 43.4919 82.9049 43.1323C82.6971 42.7722 82.4064 42.4964 82.0328 42.3049C81.6591 42.1134 81.2045 42.0356 80.669 42.0714C80.1334 42.1072 79.6932 42.2449 79.3484 42.4844C79.0036 42.724 78.7522 43.036 78.5942 43.4205C78.4362 43.805 78.3725 44.2259 78.4031 44.6831Z" fill="#6A6A6A"/>
<path d="M77.5769 51.1037L83.8093 52.5634L83.0582 55.7708C82.9532 56.219 82.796 56.5873 82.5866 56.876C82.3821 57.1725 82.1252 57.3757 81.8158 57.4856C81.5128 57.597 81.1565 57.6047 80.7467 57.5087C80.465 57.4427 80.2362 57.3385 80.0602 57.196C79.8891 57.0614 79.7583 56.8991 79.6678 56.709C79.5772 56.519 79.5222 56.3069 79.5028 56.0727C79.4833 55.8385 79.4932 55.5944 79.5325 55.3402L79.6059 55.2865C79.5046 55.6612 79.3888 55.9683 79.2584 56.2079C79.128 56.4475 78.9542 56.6128 78.7371 56.7038C78.5248 56.8026 78.2394 56.8101 77.8809 56.7261L76.3444 56.3663L76.5626 55.4348L78.0703 55.7879C78.3199 55.8463 78.5249 55.8505 78.6853 55.8002C78.8456 55.75 78.9786 55.6292 79.0842 55.4378C79.1898 55.2464 79.2861 54.9651 79.373 54.5937L79.8386 52.6059L77.361 52.0256L77.5769 51.1037ZM80.6452 52.7948L80.11 55.0804C80.014 55.4901 80.0445 55.8214 80.2014 56.0742C80.3568 56.3335 80.6009 56.5021 80.9338 56.5801C81.2539 56.655 81.5251 56.6071 81.7475 56.4363C81.9683 56.2719 82.1267 55.9849 82.2227 55.5751L82.7579 53.2896L80.6452 52.7948Z" fill="#6A6A6A"/>
<path d="M77.116 61.4692L75.4357 60.5514L73.4682 64.1534L72.7271 63.7486L75.1464 59.3194L80.739 62.3741L78.3244 66.7948L77.5833 66.39L79.5461 62.7966L77.8399 61.8646L76.2348 64.8031L75.511 64.4077L77.116 61.4692Z" fill="#6A6A6A"/>
<path d="M53.7655 67.9273C53.6719 67.8341 53.5605 67.7601 53.4378 67.7096C53.3151 67.6591 53.1835 67.6331 53.0506 67.6331C52.9176 67.6331 52.786 67.6591 52.6633 67.7096C52.5406 67.7601 52.4292 67.8341 52.3356 67.9273L48.6804 71.5375V51.2287C48.6804 50.9649 48.5743 50.7119 48.3855 50.5254C48.1966 50.3389 47.9405 50.2341 47.6735 50.2341V50.2341C47.4064 50.2341 47.1503 50.3389 46.9615 50.5254C46.7726 50.7119 46.6665 50.9649 46.6665 51.2287V71.5276L43.0214 67.9273C42.9351 67.8107 42.8241 67.7141 42.6962 67.6442C42.5683 67.5743 42.4265 67.5327 42.2806 67.5224C42.1348 67.5121 41.9884 67.5332 41.8517 67.5844C41.715 67.6356 41.5912 67.7155 41.489 67.8187C41.3867 67.9219 41.3084 68.0459 41.2596 68.182C41.2107 68.3181 41.1924 68.4631 41.206 68.6068C41.2196 68.7506 41.2647 68.8898 41.3383 69.0146C41.4118 69.1394 41.512 69.2469 41.6318 69.3296L45.579 73.2283C46.1454 73.787 46.9132 74.1008 47.7137 74.1008C48.5143 74.1008 49.2821 73.787 49.8485 73.2283L53.7957 69.3296C53.9793 69.1393 54.0792 68.885 54.0735 68.6223C54.0678 68.3595 53.9571 68.1096 53.7655 67.9273Z" fill="black"/>
</svg>
