<svg width="18" height="14" viewBox="0 0 18 14" fill="none" xmlns="http://www.w3.org/2000/svg">
<path d="M17.3332 1.6266C16.7052 1.88589 16.0359 2.05776 15.3382 2.14121C16.056 1.73787 16.6038 1.10404 16.8614 0.340061C16.1922 0.715591 15.4533 0.980846 14.6658 1.12887C14.0304 0.492062 13.1247 0.0976562 12.1367 0.0976562C10.2198 0.0976562 8.67661 1.56202 8.67661 3.35721C8.67661 3.61551 8.69983 3.86388 8.75683 4.10032C5.87834 3.96819 3.33128 2.66973 1.62022 0.691748C1.3215 1.17954 1.14628 1.73787 1.14628 2.33891C1.14628 3.46749 1.76378 4.4679 2.68422 5.04709C2.12795 5.03716 1.58222 4.88516 1.11989 4.64573C1.11989 4.65567 1.11989 4.66858 1.11989 4.6815C1.11989 6.26508 2.32006 7.58043 3.89389 7.88343C3.61206 7.95596 3.30489 7.99073 2.98611 7.99073C2.76445 7.99073 2.54067 7.97881 2.33061 7.93509C2.77922 9.2256 4.05222 10.1744 5.56589 10.2052C4.38789 11.0725 2.89217 11.595 1.27295 11.595C0.989003 11.595 0.716669 11.5831 0.444336 11.5503C1.97806 12.4812 3.79572 13.0127 5.75589 13.0127C12.1272 13.0127 15.6106 8.04537 15.6106 3.7397C15.6106 3.59564 15.6053 3.45656 15.5979 3.31847C16.2851 2.85949 16.8624 2.28626 17.3332 1.6266Z" fill="white"/>
</svg>
