<svg width="18" height="9" viewBox="0 0 18 9" fill="none" xmlns="http://www.w3.org/2000/svg">
<path d="M9.00014 8.50807C8.50735 8.50895 8.01922 8.41269 7.56366 8.22481C7.1081 8.03692 6.69403 7.76108 6.34514 7.41307L0.217639 1.28557C0.0764112 1.14434 -0.00292969 0.952795 -0.00292969 0.753069C-0.00292969 0.553343 0.0764112 0.361797 0.217639 0.220569C0.358867 0.079341 0.550413 0 0.750139 0C0.949865 0 1.14141 0.079341 1.28264 0.220569L7.41014 6.34807C7.83201 6.76942 8.40389 7.00609 9.00014 7.00609C9.59639 7.00609 10.1683 6.76942 10.5901 6.34807L16.7176 0.220569C16.8589 0.079341 17.0504 0 17.2501 0C17.4499 0 17.6414 0.079341 17.7826 0.220569C17.9239 0.361797 18.0032 0.553343 18.0032 0.753069C18.0032 0.952795 17.9239 1.14434 17.7826 1.28557L11.6551 7.41307C11.3062 7.76108 10.8922 8.03692 10.4366 8.22481C9.98105 8.41269 9.49292 8.50895 9.00014 8.50807Z" fill="black"/>
</svg>
